<?xml version="1.0" encoding="UTF-8"?>
<svg version="1.1" xmlns="http://www.w3.org/2000/svg" width="32" height="32">
<path d="M0 0 C4.8846525 2.26787438 7.73212562 5.1153475 10 10 C10.75381535 15.5997712 10.77303575 20.33499991 8.375 25.5 C3.80134327 30.3143755 0.6912538 32.25156236 -6 32.5 C-12.6912538 32.25156236 -15.80134327 30.3143755 -20.375 25.5 C-22.77303575 20.33499991 -22.75381535 15.5997712 -22 10 C-17.52212837 0.3553534 -9.85292056 -1.32635469 0 0 Z " fill="#0EBBCE" transform="translate(22,0)"/>
<path d="M0 0 C0.35773958 3.75626559 0.13556761 5.73929307 -1.625 9.125 C-4.97592501 13.18138291 -7.46097485 15.65820815 -12.84375 16.3828125 C-17.64190023 16.56096164 -21.10942866 16.41347955 -25.5 14.375 C-28.2369527 11.77489494 -30.17258618 9.30340191 -32 6 C-32 5.01 -32 4.02 -32 3 C-28.535 2.505 -28.535 2.505 -25 2 C-24.2884375 3.4540625 -24.2884375 3.4540625 -23.5625 4.9375 C-22.29806053 7.80477437 -22.29806053 7.80477437 -21 9 C-15.01305907 9.61826764 -15.01305907 9.61826764 -9.875 6.75 C-8.451875 5.38875 -8.451875 5.38875 -7 4 C-1.54313099 0 -1.54313099 0 0 0 Z " fill="#7726EE" transform="translate(32,16)"/>
<path d="M0 0 C0.99 0.33 1.98 0.66 3 1 C3.4375 3.6875 3.4375 3.6875 3 7 C0.43101558 9.6751408 -2.49207816 11.63418933 -6.109375 12.51171875 C-8.22630502 12.88775599 -8.22630502 12.88775599 -10 15 C-12.4375 15.375 -12.4375 15.375 -15 15 C-16.8125 13.4375 -16.8125 13.4375 -18 11 C-18.1875 7.25 -18.1875 7.25 -18 4 C-17.67 5.32 -17.34 6.64 -17 8 C-7.22506463 6.24546735 -7.22506463 6.24546735 0 0 Z " fill="#3165E3" transform="translate(29,9)"/>
<path d="M0 0 C1 1 1 1 1.0625 3.5625 C1.041875 4.366875 1.02125 5.17125 1 6 C-0.98 6.99 -0.98 6.99 -3 8 C-3 6.02 -3 4.04 -3 2 C-5.58148508 2.35606691 -6.82045747 2.83328193 -8.75 4.625 C-10.47331403 7.89929666 -10.33159028 10.3525069 -10 14 C-9.01 15.485 -9.01 15.485 -8 17 C-4.80165127 17.50500243 -3.4213623 17.27331609 -0.6875 15.5 C-0.130625 15.005 0.42625 14.51 1 14 C-0.75 18.875 -0.75 18.875 -3 20 C-10.32326284 20.46496907 -10.32326284 20.46496907 -12.72265625 18.81640625 C-15.34569762 15.08639329 -14.67931747 10.32910494 -14 6 C-10.56325943 -0.58072177 -6.91177308 -1.25668601 0 0 Z " fill="#EEF0FB" transform="translate(22,6)"/>
<path d="M0 0 C1.890625 0.33984375 1.890625 0.33984375 4 1 C5.75 3.5625 5.75 3.5625 7 6 C1.11421184 11.84900198 -3.53222981 14 -12 14 C-11.39664218 7.60440714 -11.39664218 7.60440714 -9.6875 5 C-8 4 -8 4 -5.8125 4.3125 C-5.214375 4.539375 -4.61625 4.76625 -4 5 C-4.33 6.98 -4.66 8.96 -5 11 C-1.87544942 9.35820641 -1.87544942 9.35820641 -1.26953125 6.8359375 C-1.11871094 6.02382812 -0.96789063 5.21171875 -0.8125 4.375 C-0.65394531 3.55773437 -0.49539062 2.74046875 -0.33203125 1.8984375 C-0.22246094 1.27195312 -0.11289062 0.64546875 0 0 Z " fill="#2393D4" transform="translate(24,3)"/>
<path d="M0 0 C0.350625 0.928125 0.70125 1.85625 1.0625 2.8125 C3.59919019 6.9857645 5.4710174 7.46185496 10 9 C3.8757764 12.16770186 3.8757764 12.16770186 0.0625 11.4375 C-3.78528457 9.63139704 -5.02869835 7.71514542 -7 4 C-7 3.01 -7 2.02 -7 1 C-2.25 0 -2.25 0 0 0 Z " fill="#4E35F5" transform="translate(7,18)"/>
<path d="M0 0 C0.66 0.33 1.32 0.66 2 1 C-1.42649435 7.0371567 -1.42649435 7.0371567 -4 9 C-7.35546875 9.73046875 -7.35546875 9.73046875 -11.1875 10.1875 C-12.45980469 10.34605469 -13.73210938 10.50460938 -15.04296875 10.66796875 C-16.01878906 10.77753906 -16.99460937 10.88710938 -18 11 C-18 8.69 -18 6.38 -18 4 C-17.67 5.32 -17.34 6.64 -17 8 C-7.22506463 6.24546735 -7.22506463 6.24546735 0 0 Z " fill="#3985DB" transform="translate(29,9)"/>
<path d="M0 0 C0 4.0541612 -1.58846142 5.34025367 -4.19921875 8.28125 C-6.87802517 10.83802836 -9.69601674 12.34800837 -13 14 C-13.33 13.34 -13.66 12.68 -14 12 C-16.01669827 10.86649466 -16.01669827 10.86649466 -18 10 C-16.7625 9.7525 -15.525 9.505 -14.25 9.25 C-10.38900614 8.28813837 -8.65871297 7.01320803 -6 4 C-4.02369593 2.63178949 -2.02790984 1.29048808 0 0 Z " fill="#6449E8" transform="translate(31,16)"/>
<path d="M0 0 C1 1 1 1 1.0625 3.5625 C1.041875 4.366875 1.02125 5.17125 1 6 C-0.98 6.99 -0.98 6.99 -3 8 C-3 6.02 -3 4.04 -3 2 C-5.48858887 2.42906705 -6.74896408 2.74896408 -8.5625 4.5625 C-9.2740625 5.2740625 -9.2740625 5.2740625 -10 6 C-10.99 6 -11.98 6 -13 6 C-10.23321722 -0.68639172 -6.90782969 -1.56403691 0 0 Z " fill="#D7ECF2" transform="translate(22,6)"/>
<path d="M0 0 C0.66 0 1.32 0 2 0 C2.4375 2.6875 2.4375 2.6875 2 6 C-0.0409429 8.17261663 -2.25832756 9.8199654 -5 11 C-5.99 10.67 -6.98 10.34 -8 10 C-7.236875 9.278125 -6.47375 8.55625 -5.6875 7.8125 C-2.955914 5.16073022 -2.955914 5.16073022 -1.3125 2.1875 C-0.879375 1.465625 -0.44625 0.74375 0 0 Z " fill="#4F6BDE" transform="translate(30,10)"/>
<path d="M0 0 C0.598125 0.226875 1.19625 0.45375 1.8125 0.6875 C1.4825 2.6675 1.1525 4.6475 0.8125 6.6875 C0.4825 6.0275 0.1525 5.3675 -0.1875 4.6875 C-1.8375 5.0175 -3.4875 5.3475 -5.1875 5.6875 C-5.5175 7.0075 -5.8475 8.3275 -6.1875 9.6875 C-5.58414218 3.29190714 -5.58414218 3.29190714 -3.875 0.6875 C-2.1875 -0.3125 -2.1875 -0.3125 0 0 Z " fill="#16ADD0" transform="translate(18.1875,7.3125)"/>
<path d="M0 0 C0.99 0.33 1.98 0.66 3 1 C5.3406065 0.72230092 7.67624308 0.39460023 10 0 C10 1.32 10 2.64 10 4 C2.61538462 4.36923077 2.61538462 4.36923077 -0.5 2.5 C-0.995 2.005 -1.49 1.51 -2 1 C-1.34 0.67 -0.68 0.34 0 0 Z " fill="#662AF8" transform="translate(8,28)"/>
<path d="M0 0 C0.33 1.65 0.66 3.3 1 5 C-1.31 5 -3.62 5 -6 5 C-6.33 3.68 -6.66 2.36 -7 1 C-2.25 0 -2.25 0 0 0 Z " fill="#2C79E2" transform="translate(7,18)"/>
<path d="M0 0 C1.27875 -0.061875 2.5575 -0.12375 3.875 -0.1875 C4.95394531 -0.23970703 4.95394531 -0.23970703 6.0546875 -0.29296875 C6.69664062 -0.19628906 7.33859375 -0.09960938 8 0 C8.66 0.99 9.32 1.98 10 3 C7.36 3.33 4.72 3.66 2 4 C1.34 2.68 0.68 1.36 0 0 Z " fill="#3E57EF" transform="translate(1,23)"/>
<path d="M0 0 C0.99 0.495 0.99 0.495 2 1 C2 1.66 2 2.32 2 3 C2.45375 2.505 2.9075 2.01 3.375 1.5 C5 0 5 0 7 0 C7 1.32 7 2.64 7 4 C4.69 4.33 2.38 4.66 0 5 C0 3.35 0 1.7 0 0 Z " fill="#1A9AD6" transform="translate(0,14)"/>
<path d="M0 0 C0.99 0 1.98 0 3 0 C2.47731534 2.76276177 1.89130413 5.3260876 1 8 C0.34 8 -0.32 8 -1 8 C-1.08226668 4.95613276 -0.97608217 2.92824652 0 0 Z " fill="#1CA2D3" transform="translate(24,3)"/>
<path d="M0 0 C0.99 0.66 1.98 1.32 3 2 C1.68 3.32 0.36 4.64 -1 6 C-1.99 5.01 -2.98 4.02 -4 3 C-2.68 2.01 -1.36 1.02 0 0 Z " fill="#10ADCA" transform="translate(23,1)"/>
<path d="M0 0 C1.125 3.75 1.125 3.75 0 6 C-1.65 6 -3.3 6 -5 6 C-4.34 5.01 -3.68 4.02 -3 3 C-2.34 3 -1.68 3 -1 3 C-0.67 2.01 -0.34 1.02 0 0 Z " fill="#7237E7" transform="translate(31,18)"/>
<path d="M0 0 C2 1 2 1 2 1 Z " fill="#4020FF" transform="translate(24,31)"/>
<path d="M0 0 C2 1 2 1 2 1 Z " fill="#4020FF" transform="translate(6,31)"/>
<path d="" fill="#4020FF" transform="translate(0,0)"/>
<path d="" fill="#2040FF" transform="translate(0,0)"/>
<path d="" fill="#20BFFF" transform="translate(0,0)"/>
<path d="" fill="#00DFFF" transform="translate(0,0)"/>
<path d="M0 0 C2 1 2 1 2 1 Z " fill="#00DFFF" transform="translate(24,0)"/>
<path d="M0 0 C2 1 2 1 2 1 Z " fill="#00DFDF" transform="translate(6,0)"/>
<path d="" fill="#5500FF" transform="translate(0,0)"/>
<path d="" fill="#5555FF" transform="translate(0,0)"/>
<path d="" fill="#8040FF" transform="translate(0,0)"/>
<path d="" fill="#4040FF" transform="translate(0,0)"/>
<path d="" fill="#6633CC" transform="translate(0,0)"/>
<path d="" fill="#3333CC" transform="translate(0,0)"/>
<path d="" fill="#8040FF" transform="translate(0,0)"/>
<path d="" fill="#4040FF" transform="translate(0,0)"/>
<path d="" fill="#5500FF" transform="translate(0,0)"/>
<path d="" fill="#5555FF" transform="translate(0,0)"/>
<path d="" fill="#00AAFF" transform="translate(0,0)"/>
<path d="" fill="#00AAAA" transform="translate(0,0)"/>
<path d="" fill="#40BFFF" transform="translate(0,0)"/>
<path d="" fill="#00BFFF" transform="translate(0,0)"/>
<path d="" fill="#3399CC" transform="translate(0,0)"/>
<path d="" fill="#00CCCC" transform="translate(0,0)"/>
<path d="" fill="#40BFFF" transform="translate(0,0)"/>
<path d="" fill="#00BFFF" transform="translate(0,0)"/>
<path d="" fill="#00AAFF" transform="translate(0,0)"/>
<path d="" fill="#00AAAA" transform="translate(0,0)"/>
</svg>
