<?xml version="1.0" encoding="UTF-8"?>
<svg version="1.1" xmlns="http://www.w3.org/2000/svg" width="148" height="148">
<path d="M0 0 C48.84 0 97.68 0 148 0 C148 48.84 148 97.68 148 148 C99.16 148 50.32 148 0 148 C0 99.16 0 50.32 0 0 Z " fill="#317FDC" transform="translate(0,0)"/>
<path d="M0 0 C2.39122736 3.32692502 1.88471912 5.97502788 1.4375 10 C-1.5625 12 -1.5625 12 -4.5625 12 C-4.5625 9.03 -4.5625 6.06 -4.5625 3 C-7.80856681 2.41338532 -7.80856681 2.41338532 -11.5625 3 C-15.37824742 6.04915257 -18.40213195 10.242491 -19.5625 15 C-19.91939368 20.53185203 -19.37552963 24.77420872 -17.5625 30 C-16.01317598 31.54932402 -14.52561911 31.35590492 -12.375 31.5 C-9.63933883 31.45664562 -8.07518407 31.35396895 -5.80859375 29.7890625 C-1.67691257 25.19351111 0.89840798 19.58375547 3.4375 14 C4.0975 14 4.7575 14 5.4375 14 C5.4375 13.34 5.4375 12.68 5.4375 12 C10.3875 12 15.3375 12 20.4375 12 C18.42857143 24.1875 18.42857143 24.1875 17.4375 29 C23.29878352 24.56443409 24.06715118 18.98543666 25.4375 12 C27.9125 12.495 27.9125 12.495 30.4375 13 C30.9325 14.485 30.9325 14.485 31.4375 16 C32.159375 15.34 32.88125 14.68 33.625 14 C36.6529253 11.84680867 37.83001163 11.49895995 41.4375 12 C42.4375 13 42.4375 13 42.625 16.0625 C42.42041202 20.35884755 41.59635143 23.87159177 40.4375 28 C41.4275 28 42.4175 28 43.4375 28 C43.63085938 27.41992188 43.82421875 26.83984375 44.0234375 26.2421875 C45.49479167 21.828125 46.96614583 17.4140625 48.4375 13 C50.9125 12.505 50.9125 12.505 53.4375 12 C53.9325 19.425 53.9325 19.425 54.4375 27 C57.48640402 26.31782938 57.48640402 26.31782938 58.6875 24.1875 C59.56104334 21.63966526 59.38108136 20.48762358 58.4375 18 C58.1075 17.67 57.7775 17.34 57.4375 17 C56.9764948 10.77642981 56.9764948 10.77642981 58.625 8 C60.4375 7 60.4375 7 63.125 7.3125 C63.888125 7.539375 64.65125 7.76625 65.4375 8 C65.5625 15.625 65.5625 15.625 64.4375 19 C68.4829649 16.50784683 68.4829649 16.50784683 71.875 13.25 C74.47813083 11.16749534 77.23772031 11.82546656 80.4375 12 C81.0975 12 81.7575 12 82.4375 12 C84.10416667 12 85.77083333 12 87.4375 12 C86.98521993 15.16596047 86.42546096 18.03470078 85.375 21.0625 C84.46501367 23.9137905 84.26309225 26.03506817 84.4375 29 C85.0975 29 85.7575 29 86.4375 29 C87.4275 26.525 87.4275 26.525 88.4375 24 C89.0975 24 89.7575 24 90.4375 24 C89.91534461 27.7595188 89.26476947 30.36771463 86.4375 33 C83.25 33.25 83.25 33.25 80.4375 33 C80.1075 32.01 79.7775 31.02 79.4375 30 C78.715625 30.495 77.99375 30.99 77.25 31.5 C74.26221062 33.09348767 72.75814527 33.53848302 69.4375 33 C67.41399676 29.96474514 67.11625982 28.80573798 66.8125 25.3125 C66.70035156 24.10013672 66.70035156 24.10013672 66.5859375 22.86328125 C66.53695312 22.24839844 66.48796875 21.63351563 66.4375 21 C65.1175 21 63.7975 21 62.4375 21 C62.23125 21.680625 62.025 22.36125 61.8125 23.0625 C60.02437276 26.88259002 57.70409159 30.28826009 54.4375 33 C53.1175 33 51.7975 33 50.4375 33 C48.67287317 29.91190305 48.4375 28.76687864 48.4375 25 C47.7775 25 47.1175 25 46.4375 25 C46.355 25.5775 46.2725 26.155 46.1875 26.75 C45.18909139 29.74522583 43.95636469 31.11085148 41.4375 33 C37.1375 32.7 37.1375 32.7 35.4375 31 C35.10506921 26.26774995 35.24856725 21.60711442 36.4375 17 C31.98659073 19.54337673 30.30084123 23.41742876 28.4375 28 C27.66995168 30.81448914 27.66995168 30.81448914 27.4375 33 C26.1175 33 24.7975 33 23.4375 33 C23.1075 32.34 22.7775 31.68 22.4375 31 C21.6021875 31.495 21.6021875 31.495 20.75 32 C18.08486676 33.15249005 16.31356851 33.30274405 13.4375 33 C12.7775 32.34 12.1175 31.68 11.4375 31 C10.4475 31.66 9.4575 32.32 8.4375 33 C5.25 33.125 5.25 33.125 2.4375 33 C1.7775 31.35 1.1175 29.7 0.4375 28 C-0.2225 28 -0.8825 28 -1.5625 28 C-2.2225 29.32 -2.8825 30.64 -3.5625 32 C-4.2225 32 -4.8825 32 -5.5625 32 C-5.5625 32.66 -5.5625 33.32 -5.5625 34 C-9.28272765 36.48015176 -13.24626952 36.67363135 -17.5625 36 C-22.05566943 33.7110269 -24.31712065 31.46502369 -26.5625 27 C-27.82293056 19.57396326 -26.50286847 13.55292504 -23.046875 6.9609375 C-21.40497688 4.79190366 -20.06574688 3.99488017 -17.5625 3 C-17.5625 2.34 -17.5625 1.68 -17.5625 1 C-11.83050612 -1.35158723 -5.87178881 -2.29142978 0 0 Z " fill="#E5F5F7" transform="translate(43.5625,54)"/>
<path d="M0 0 C1.26650391 0.00966797 1.26650391 0.00966797 2.55859375 0.01953125 C3.43128906 0.03628906 4.30398437 0.05304687 5.203125 0.0703125 C6.53537109 0.08384766 6.53537109 0.08384766 7.89453125 0.09765625 C10.08100558 0.12116673 12.26692594 0.15402751 14.453125 0.1953125 C14.62369696 1.73655197 14.789375 3.27833331 14.953125 4.8203125 C15.0459375 5.67882813 15.13875 6.53734375 15.234375 7.421875 C15.4659174 10.35750187 15.46736248 13.25171453 15.453125 16.1953125 C16.02275467 16.19087128 16.59238434 16.18643005 17.17927551 16.18185425 C23.10004166 16.13765814 29.02076106 16.1074616 34.94165039 16.08544922 C37.15228173 16.07538244 39.36289972 16.06172802 41.57348633 16.04443359 C44.74824311 16.02021512 47.92282406 16.00883623 51.09765625 16 C52.08836624 15.98967743 53.07907623 15.97935486 54.09980774 15.96871948 C55.02053574 15.96856842 55.94126373 15.96841736 56.88989258 15.96826172 C58.10567741 15.96159988 58.10567741 15.96159988 59.34602356 15.95480347 C61.453125 16.1953125 61.453125 16.1953125 64.453125 18.1953125 C63.66292969 18.41316406 62.87273437 18.63101563 62.05859375 18.85546875 C59.24338238 19.95390863 59.24338238 19.95390863 58.37890625 22.69140625 C58.17652344 23.66207031 57.97414063 24.63273437 57.765625 25.6328125 C56.99740598 29.1722756 56.49319111 31.13521333 54.453125 34.1953125 C53.463125 34.1953125 52.473125 34.1953125 51.453125 34.1953125 C51.783125 29.2453125 52.113125 24.2953125 52.453125 19.1953125 C45.53036459 19.90901889 45.53036459 19.90901889 41.453125 24.1953125 C41.123125 22.5453125 40.793125 20.8953125 40.453125 19.1953125 C39.133125 18.8653125 37.813125 18.5353125 36.453125 18.1953125 C36.35515625 19.00355469 36.2571875 19.81179687 36.15625 20.64453125 C34.63181916 31.53895511 34.63181916 31.53895511 30.453125 35.1953125 C29.793125 35.1953125 29.133125 35.1953125 28.453125 35.1953125 C29.08377655 29.41434 30.10467632 23.8509419 31.453125 18.1953125 C30.463125 18.3809375 29.473125 18.5665625 28.453125 18.7578125 C24.28224822 19.37192933 20.60278231 18.85052155 16.453125 18.1953125 C16.453125 18.8553125 16.453125 19.5153125 16.453125 20.1953125 C15.793125 20.1953125 15.133125 20.1953125 14.453125 20.1953125 C14.205625 20.8553125 13.958125 21.5153125 13.703125 22.1953125 C8.54523026 34.57425987 8.54523026 34.57425987 3.453125 38.1953125 C0.36764234 38.76125641 -2.47896948 38.88472947 -5.546875 38.1953125 C-7.91367903 36.33071971 -8.47439115 35.47865845 -9.234375 32.5078125 C-10.13437466 22.9678161 -9.1173362 17.82726216 -3.234375 10.1953125 C0.19964046 7.63976611 2.26769867 7.71237869 6.453125 8.1953125 C7.453125 9.1953125 7.453125 9.1953125 7.578125 12.6328125 C7.453125 16.1953125 7.453125 16.1953125 6.453125 18.1953125 C8.103125 17.5353125 9.753125 16.8753125 11.453125 16.1953125 C11.783125 13.5553125 12.113125 10.9153125 12.453125 8.1953125 C6.55822714 4.82108363 -0.09138309 5.87110903 -6.546875 7.1953125 C-6.546875 7.8553125 -6.546875 8.5153125 -6.546875 9.1953125 C-7.31 9.9171875 -8.073125 10.6390625 -8.859375 11.3828125 C-13.63819901 16.38390739 -14.73360108 20.50363479 -14.984375 27.2578125 C-14.84480697 32.56804364 -14.20307582 35.33598941 -10.546875 39.1953125 C-7.04091288 41.94999702 -2.80791264 41.50091971 1.453125 41.1953125 C3.80841781 40.77800232 3.80841781 40.77800232 5.453125 40.1953125 C5.453125 39.5353125 5.453125 38.8753125 5.453125 38.1953125 C7.328125 36.0703125 7.328125 36.0703125 9.453125 34.1953125 C10.113125 34.1953125 10.773125 34.1953125 11.453125 34.1953125 C11.700625 34.9996875 11.948125 35.8040625 12.203125 36.6328125 C12.615625 37.4784375 13.028125 38.3240625 13.453125 39.1953125 C14.773125 39.5253125 16.093125 39.8553125 17.453125 40.1953125 C14.153125 40.1953125 10.853125 40.1953125 7.453125 40.1953125 C7.783125 41.5153125 8.113125 42.8353125 8.453125 44.1953125 C7.793125 45.1853125 7.133125 46.1753125 6.453125 47.1953125 C3.578125 47.3828125 3.578125 47.3828125 0.453125 47.1953125 C-3.3232682 46.8971701 -3.3232682 46.8971701 -5.546875 48.1953125 C-7.54647512 48.2353045 -9.54734742 48.23878049 -11.546875 48.1953125 C-11.216875 47.2053125 -10.886875 46.2153125 -10.546875 45.1953125 C-11.165625 45.6903125 -11.784375 46.1853125 -12.421875 46.6953125 C-14.546875 48.1953125 -14.546875 48.1953125 -16.546875 48.1953125 C-16.546875 45.8853125 -16.546875 43.5753125 -16.546875 41.1953125 C-17.206875 40.8653125 -17.866875 40.5353125 -18.546875 40.1953125 C-17.886875 40.1953125 -17.226875 40.1953125 -16.546875 40.1953125 C-16.63066406 39.24011719 -16.71445312 38.28492188 -16.80078125 37.30078125 C-17.35735249 30.23444012 -17.62743584 23.58282229 -16.8046875 16.515625 C-16.49550108 13.73294719 -16.4712786 10.99237946 -16.546875 8.1953125 C-13.906875 7.8653125 -11.266875 7.5353125 -8.546875 7.1953125 C-8.546875 5.5453125 -8.546875 3.8953125 -8.546875 2.1953125 C-5.55561181 0.47325062 -3.44001787 -0.04648673 0 0 Z " fill="#23B6C9" transform="translate(32.546875,47.8046875)"/>
<path d="M0 0 C2.39122736 3.32692502 1.88471912 5.97502788 1.4375 10 C-1.5625 12 -1.5625 12 -4.5625 12 C-4.5625 9.03 -4.5625 6.06 -4.5625 3 C-7.80856681 2.41338532 -7.80856681 2.41338532 -11.5625 3 C-15.37824742 6.04915257 -18.40213195 10.242491 -19.5625 15 C-19.91939368 20.53185203 -19.37552963 24.77420872 -17.5625 30 C-16.01317598 31.54932402 -14.52561911 31.35590492 -12.375 31.5 C-9.37016401 31.5 -8.045971 31.41410793 -5.73828125 29.4375 C-4.17195524 27.5326749 -4.17195524 27.5326749 -2.8515625 25.53125 C-2.42617188 25.0259375 -2.00078125 24.520625 -1.5625 24 C-0.5725 24 0.4175 24 1.4375 24 C1.4375 22.68 1.4375 21.36 1.4375 20 C2.7575 19.34 4.0775 18.68 5.4375 18 C5.4375 22.29 5.4375 26.58 5.4375 31 C3.7875 30.67 2.1375 30.34 0.4375 30 C0.4375 29.34 0.4375 28.68 0.4375 28 C-0.2225 28 -0.8825 28 -1.5625 28 C-2.2225 29.32 -2.8825 30.64 -3.5625 32 C-4.2225 32 -4.8825 32 -5.5625 32 C-5.5625 32.66 -5.5625 33.32 -5.5625 34 C-9.28272765 36.48015176 -13.24626952 36.67363135 -17.5625 36 C-22.05566943 33.7110269 -24.31712065 31.46502369 -26.5625 27 C-27.82293056 19.57396326 -26.50286847 13.55292504 -23.046875 6.9609375 C-21.40497688 4.79190366 -20.06574688 3.99488017 -17.5625 3 C-17.5625 2.34 -17.5625 1.68 -17.5625 1 C-11.83050612 -1.35158723 -5.87178881 -2.29142978 0 0 Z " fill="#E1F6F9" transform="translate(43.5625,54)"/>
<path d="M0 0 C0 1.65 0 3.3 0 5 C0.66 5 1.32 5 2 5 C2.66 4.34 3.32 3.68 4 3 C4 4.65 4 6.3 4 8 C7.94727588 8.17942163 10.5980513 8.09350689 14 6 C12.89821635 13.24029252 8.9313137 19.33791895 4.6875 25.1875 C1.3291064 27.45246313 -0.94267692 27.52296687 -4.9140625 27.46875 C-7.60527338 26.86398351 -8.47993892 26.31605521 -10 24 C-10.29296875 20.86328125 -10.29296875 20.86328125 -10.1875 17.3125 C-10.16042969 16.13300781 -10.13335938 14.95351562 -10.10546875 13.73828125 C-10.07066406 12.83464844 -10.03585938 11.93101563 -10 11 C-7.525 11.495 -7.525 11.495 -5 12 C-5 11.34 -5 10.68 -5 10 C-5.66 10 -6.32 10 -7 10 C-6.39169139 3.55192878 -6.39169139 3.55192878 -4.625 1.0625 C-3 0 -3 0 0 0 Z " fill="#16ACD2" transform="translate(34,59)"/>
<path d="M0 0 C4.95 0 9.9 0 15 0 C12.99107143 12.1875 12.99107143 12.1875 12 17 C13.65 16.01 15.3 15.02 17 14 C17.28875 14.639375 17.5775 15.27875 17.875 15.9375 C18.82823451 18.15206079 18.82823451 18.15206079 21 19 C21.33 18.01 21.66 17.02 22 16 C22 17.65 22 19.3 22 21 C20.68 21 19.36 21 18 21 C17.67 20.34 17.34 19.68 17 19 C16.443125 19.33 15.88625 19.66 15.3125 20 C12.64736676 21.15249005 10.87606851 21.30274405 8 21 C7.34 20.34 6.68 19.68 6 19 C5.01 19.66 4.02 20.32 3 21 C-0.1875 21.125 -0.1875 21.125 -3 21 C-3 20.34 -3 19.68 -3 19 C-2.34 18.67 -1.68 18.34 -1 18 C-1 14.37 -1 10.74 -1 7 C-1.99 7.33 -2.98 7.66 -4 8 C-4 9.32 -4 10.64 -4 12 C-4.66 12 -5.32 12 -6 12 C-4.99806563 8.20696275 -4.18975773 5.28463659 -2 2 C-1.34 2 -0.68 2 0 2 C0 1.34 0 0.68 0 0 Z " fill="#E1F4F6" transform="translate(49,66)"/>
<path d="M0 0 C2.66666667 0 5.33333333 0 8 0 C7.54771993 3.16596047 6.98796096 6.03470078 5.9375 9.0625 C5.02751367 11.9137905 4.82559225 14.03506817 5 17 C5.66 17 6.32 17 7 17 C7.66 15.35 8.32 13.7 9 12 C9.66 12 10.32 12 11 12 C10.47784461 15.7595188 9.82726947 18.36771463 7 21 C3.8125 21.25 3.8125 21.25 1 21 C0.67 20.01 0.34 19.02 0 18 C-0.721875 18.495 -1.44375 18.99 -2.1875 19.5 C-5.14848659 21.07919285 -6.71253029 21.28178312 -10 21 C-10.33 20.34 -10.66 19.68 -11 19 C-10.01 19 -9.02 19 -8 19 C-7.89042969 18.26394531 -7.78085938 17.52789062 -7.66796875 16.76953125 C-6.01936331 6.62323597 -6.01936331 6.62323597 -3 3 C-2.01 2.67 -1.02 2.34 0 2 C0 1.34 0 0.68 0 0 Z " fill="#F8FAF8" transform="translate(123,66)"/>
<path d="M0 0 C1.1446875 0.3403125 1.1446875 0.3403125 2.3125 0.6875 C2.4375 8.3125 2.4375 8.3125 1.3125 11.6875 C5.36491652 9.17310034 5.36491652 9.17310034 8.8125 5.9375 C11.15431309 3.9859891 13.385963 4.49239753 16.3125 4.6875 C16.3125 5.3475 16.3125 6.0075 16.3125 6.6875 C15.69375 7.1 15.075 7.5125 14.4375 7.9375 C10.62845213 11.07436295 10.30721859 15.321136 9.8125 20 C9.6475 21.216875 9.4825 22.43375 9.3125 23.6875 C8.6525 24.0175 7.9925 24.3475 7.3125 24.6875 C4.3125 22.6875 4.3125 22.6875 3.80078125 20.5234375 C3.74277344 19.71132812 3.68476562 18.89921875 3.625 18.0625 C3.55925781 17.24523437 3.49351563 16.42796875 3.42578125 15.5859375 C3.38839844 14.95945312 3.35101563 14.33296875 3.3125 13.6875 C1.9925 13.6875 0.6725 13.6875 -0.6875 13.6875 C-0.89375 14.368125 -1.1 15.04875 -1.3125 15.75 C-3.14158866 19.65759851 -5.79029034 22.52607939 -8.6875 25.6875 C-10.0075 25.3575 -11.3275 25.0275 -12.6875 24.6875 C-11.3675 24.3575 -10.0475 24.0275 -8.6875 23.6875 C-9.0175 22.3675 -9.3475 21.0475 -9.6875 19.6875 C-8.759375 19.56375 -8.759375 19.56375 -7.8125 19.4375 C-5.55607414 18.86756505 -5.55607414 18.86756505 -4.375 16.875 C-3.57892942 14.34204816 -3.75590333 13.14352759 -4.6875 10.6875 C-5.0175 10.3575 -5.3475 10.0275 -5.6875 9.6875 C-6.1485052 3.46392981 -6.1485052 3.46392981 -4.5 0.6875 C-2.6875 -0.3125 -2.6875 -0.3125 0 0 Z " fill="#DEF1F9" transform="translate(106.6875,61.3125)"/>
<path d="M0 0 C0.66 0 1.32 0 2 0 C1.67 0.9075 1.34 1.815 1 2.75 C-0.60656311 8.46610497 -1.34580312 15.38575554 0.7578125 21.03515625 C2.61995137 24.0189772 4.61854234 26.06070621 8 27 C12.09656586 27.31316723 16.06587072 27.31137643 20 26 C20 25.34 20 24.68 20 24 C21.875 21.875 21.875 21.875 24 20 C24.66 20 25.32 20 26 20 C26.2475 20.804375 26.495 21.60875 26.75 22.4375 C27.1625 23.283125 27.575 24.12875 28 25 C29.32 25.33 30.64 25.66 32 26 C28.7 26 25.4 26 22 26 C22.33 27.32 22.66 28.64 23 30 C22.34 30.99 21.68 31.98 21 33 C18.125 33.1875 18.125 33.1875 15 33 C11.2236068 32.7018576 11.2236068 32.7018576 9 34 C7.00039988 34.039992 4.99952758 34.04346799 3 34 C3.33 33.01 3.66 32.02 4 31 C3.38125 31.495 2.7625 31.99 2.125 32.5 C0 34 0 34 -2 34 C-2 31.69 -2 29.38 -2 27 C-2.66 26.67 -3.32 26.34 -4 26 C-3.34 26 -2.68 26 -2 26 C-2.14308594 24.53240234 -2.14308594 24.53240234 -2.2890625 23.03515625 C-3.62405383 7.24810765 -3.62405383 7.24810765 0 0 Z " fill="#1D90D5" transform="translate(18,62)"/>
<path d="M0 0 C4.07507572 -0.04946866 8.15003497 -0.08575189 12.2253418 -0.10986328 C13.61144048 -0.1199157 14.99751799 -0.1335597 16.38354492 -0.15087891 C18.3766975 -0.17515952 20.37000533 -0.18542031 22.36328125 -0.1953125 C24.16212769 -0.21102295 24.16212769 -0.21102295 25.99731445 -0.22705078 C29 0 29 0 32 2 C31.20980469 2.21785156 30.41960937 2.43570313 29.60546875 2.66015625 C26.79025738 3.75859613 26.79025738 3.75859613 25.92578125 6.49609375 C25.72339844 7.46675781 25.52101563 8.43742187 25.3125 9.4375 C24.54428098 12.9769631 24.04006611 14.93990083 22 18 C21.01 18 20.02 18 19 18 C19.33 13.05 19.66 8.1 20 3 C13.07723959 3.71370639 13.07723959 3.71370639 9 8 C8.67 6.35 8.34 4.7 8 3 C6.68 2.67 5.36 2.34 4 2 C3.90203125 2.80824219 3.8040625 3.61648437 3.703125 4.44921875 C2.17869416 15.34364261 2.17869416 15.34364261 -2 19 C-2.66 19 -3.32 19 -4 19 C-3.54988125 14.2287412 -2.74985235 9.82722033 -1.45703125 5.20703125 C-1.18479736 4.22839111 -0.91256348 3.24975098 -0.63208008 2.24145508 C-0.31920044 1.13193481 -0.31920044 1.13193481 0 0 Z " fill="#26A5CC" transform="translate(65,64)"/>
<path d="M0 0 C2.64 0 5.28 0 8 0 C8 7.92 8 15.84 8 24 C-1 25.125 -1 25.125 -4.28125 24.87890625 C-5.32539062 24.80639648 -5.32539062 24.80639648 -6.390625 24.73242188 C-7.08671875 24.67634766 -7.7828125 24.62027344 -8.5 24.5625 C-9.22703125 24.51029297 -9.9540625 24.45808594 -10.703125 24.40429688 C-12.46926692 24.27648397 -14.23472311 24.13925121 -16 24 C-15.67 23.34 -15.34 22.68 -15 22 C-12.67504723 21.61250787 -10.3400417 21.28241883 -8 21 C-7.01 20.67 -6.02 20.34 -5 20 C-4.67 20.66 -4.34 21.32 -4 22 C-0.97065509 22.65772428 -0.97065509 22.65772428 2 23 C3.52299523 20.06279492 4.80100302 17.0831351 6 14 C5.34 14 4.68 14 4 14 C3.67 15.65 3.34 17.3 3 19 C1.68 19 0.36 19 -1 19 C-0.58349953 13.96911268 -0.05618923 9.66069558 2 5 C2 4.01 2 3.02 2 2 C1.34 1.34 0.68 0.68 0 0 Z " fill="#5A68D4" transform="translate(128,64)"/>
<path d="M0 0 C1.26650391 0.00966797 1.26650391 0.00966797 2.55859375 0.01953125 C3.43128906 0.03628906 4.30398437 0.05304687 5.203125 0.0703125 C6.53537109 0.08384766 6.53537109 0.08384766 7.89453125 0.09765625 C10.08100558 0.12116673 12.26692594 0.15402751 14.453125 0.1953125 C14.783125 1.8453125 15.113125 3.4953125 15.453125 5.1953125 C13.10014369 5.1953125 10.74689107 5.17907724 8.39453125 5.125 C7.27949219 5.10695313 6.16445313 5.08890625 5.015625 5.0703125 C3.90316406 5.04710937 2.79070313 5.02390625 1.64453125 5 C-1.53120844 5.19435371 -3.69241362 5.84011028 -6.546875 7.1953125 C-6.546875 7.8553125 -6.546875 8.5153125 -6.546875 9.1953125 C-8.859375 11.8203125 -8.859375 11.8203125 -11.546875 14.1953125 C-12.536875 14.1953125 -13.526875 14.1953125 -14.546875 14.1953125 C-14.546875 14.8553125 -14.546875 15.5153125 -14.546875 16.1953125 C-15.206875 15.8653125 -15.866875 15.5353125 -16.546875 15.1953125 C-16.546875 12.8853125 -16.546875 10.5753125 -16.546875 8.1953125 C-13.906875 7.8653125 -11.266875 7.5353125 -8.546875 7.1953125 C-8.546875 5.5453125 -8.546875 3.8953125 -8.546875 2.1953125 C-5.55561181 0.47325062 -3.44001787 -0.04648673 0 0 Z " fill="#07BECC" transform="translate(32.546875,47.8046875)"/>
<path d="M0 0 C5.28 0 10.56 0 16 0 C15.0625 10.17857143 15.0625 10.17857143 14 14 C14.99 14.33 15.98 14.66 17 15 C15.35 15.66 13.7 16.32 12 17 C12 13.37 12 9.74 12 6 C7.39467611 6.69302969 7.39467611 6.69302969 5 8 C4.67 8.99 4.34 9.98 4 11 C3.34 11 2.68 11 2 11 C2 10.01 2 9.02 2 8 C1.34 8 0.68 8 0 8 C0 5.36 0 2.72 0 0 Z " fill="#1F9CD6" transform="translate(96,56)"/>
<path d="M0 0 C2.39122736 3.32692502 1.88471912 5.97502788 1.4375 10 C-1.5625 12 -1.5625 12 -4.5625 12 C-4.5625 9.03 -4.5625 6.06 -4.5625 3 C-7.80856681 2.41338532 -7.80856681 2.41338532 -11.5625 3 C-13.95645432 5.05890879 -15.70693444 7.46080502 -17.5625 10 C-18.2225 10.66 -18.8825 11.32 -19.5625 12 C-19.376875 11.195625 -19.19125 10.39125 -19 9.5625 C-18.855625 8.716875 -18.71125 7.87125 -18.5625 7 C-18.8925 6.67 -19.2225 6.34 -19.5625 6 C-19.8925 6.66 -20.2225 7.32 -20.5625 8 C-21.2225 8 -21.8825 8 -22.5625 8 C-21.75 6.0625 -21.75 6.0625 -20.5625 4 C-19.5725 3.67 -18.5825 3.34 -17.5625 3 C-17.5625 2.34 -17.5625 1.68 -17.5625 1 C-11.83050612 -1.35158723 -5.87178881 -2.29142978 0 0 Z " fill="#D1F4F6" transform="translate(43.5625,54)"/>
<path d="M0 0 C0.33 4.62 0.66 9.24 1 14 C-3.95 14 -8.9 14 -14 14 C-13.071875 12.783125 -12.14375 11.56625 -11.1875 10.3125 C-9.38183549 7.92750051 -7.82699546 5.68726102 -6.375 3.0625 C-5 1 -5 1 -2.875 0.1875 C-1 0 -1 0 0 0 Z " fill="#4C79D6" transform="translate(111,74)"/>
<path d="M0 0 C0 0.66 0 1.32 0 2 C-0.928125 2.61875 -0.928125 2.61875 -1.875 3.25 C-5.68404787 6.38686295 -6.00528141 10.633636 -6.5 15.3125 C-6.665 16.529375 -6.83 17.74625 -7 19 C-7.66 19.33 -8.32 19.66 -9 20 C-9.99 19.34 -10.98 18.68 -12 18 C-12.51602772 11.80766732 -12.04271128 6.77225103 -8.25 1.625 C-5.35585916 -0.46521283 -3.4905952 -0.31732684 0 0 Z " fill="#E1EFF6" transform="translate(123,66)"/>
<path d="M0 0 C0.66 0 1.32 0 2 0 C1.67 0.9075 1.34 1.815 1 2.75 C-0.60656311 8.46610497 -1.34580312 15.38575554 0.7578125 21.03515625 C2.66358744 24.08889798 4.70745586 25.70650052 8 27 C10.59154919 27.24029959 10.59154919 27.24029959 13.25 27.125 C14.58804688 27.09792969 14.58804688 27.09792969 15.953125 27.0703125 C16.62859375 27.04710938 17.3040625 27.02390625 18 27 C17.67 27.66 17.34 28.32 17 29 C12.71 29 8.42 29 4 29 C4 28.34 4 27.68 4 27 C2.68 26.67 1.36 26.34 0 26 C0.33 27.32 0.66 28.64 1 30 C0.01 30.66 -0.98 31.32 -2 32 C-2 30.35 -2 28.7 -2 27 C-2.66 26.67 -3.32 26.34 -4 26 C-3.34 26 -2.68 26 -2 26 C-2.14308594 24.53240234 -2.14308594 24.53240234 -2.2890625 23.03515625 C-3.62405383 7.24810765 -3.62405383 7.24810765 0 0 Z " fill="#179ED6" transform="translate(18,62)"/>
<path d="M0 0 C0.33 0 0.66 0 1 0 C1.1953125 2.01822917 1.390625 4.03645833 1.5859375 6.0546875 C1.86374749 8.22668245 1.86374749 8.22668245 4 10 C3.69670231 13.84177074 2.47524576 16.09427672 0 19 C-0.99 18.67 -1.98 18.34 -3 18 C-3 12.72 -3 7.44 -3 2 C-3.99 1.67 -4.98 1.34 -6 1 C-4.68 1 -3.36 1 -2 1 C-2 1.99 -2 2.98 -2 4 C-1.34 4 -0.68 4 0 4 C0 2.68 0 1.36 0 0 Z " fill="#2988CC" transform="translate(100,63)"/>
<path d="M0 0 C0 1.65 0 3.3 0 5 C0.66 5 1.32 5 2 5 C2.66 4.34 3.32 3.68 4 3 C4 5.31 4 7.62 4 10 C4.99 10.33 5.98 10.66 7 11 C5.68 11 4.36 11 3 11 C2.67 11.66 2.34 12.32 2 13 C2 11.68 2 10.36 2 9 C1.34 9 0.68 9 0 9 C-0.33 9.99 -0.66 10.98 -1 12 C-1.33 11.34 -1.66 10.68 -2 10 C-2.66 10 -3.32 10 -4 10 C-4.33 10.66 -4.66 11.32 -5 12 C-5 11.34 -5 10.68 -5 10 C-5.66 10 -6.32 10 -7 10 C-6.39169139 3.55192878 -6.39169139 3.55192878 -4.625 1.0625 C-3 0 -3 0 0 0 Z " fill="#0CB4CE" transform="translate(34,59)"/>
<path d="M0 0 C0.99 0 1.98 0 3 0 C3.25684171 4.36630901 3.4224636 7.96496418 1.75 12.0625 C1.1725 12.701875 0.595 13.34125 0 14 C-1.32 14 -2.64 14 -4 14 C-4.31549088 8.7418187 -3.70016294 5.53627373 -1 1 C-0.67 0.67 -0.34 0.34 0 0 Z " fill="#3AA2C7" transform="translate(53,69)"/>
<path d="M0 0 C0.99 0.33 1.98 0.66 3 1 C2.34 1.66 1.68 2.32 1 3 C-1.18845267 10.53800365 -1.24450088 18.21672191 -1 26 C-1.66 26 -2.32 26 -3 26 C-3.76955706 22.92177175 -4.02702134 20.15115118 -3.9375 17 C-3.88008674 14.21806638 -4.0195961 12.9531871 -5.125 10.3125 C-6 8 -6 8 -5.125 5.1875 C-4.75375 4.465625 -4.3825 3.74375 -4 3 C-3.01 3 -2.02 3 -1 3 C-0.67 2.01 -0.34 1.02 0 0 Z " fill="#EEF8F8" transform="translate(24,59)"/>
<path d="M0 0 C0.99 0 1.98 0 3 0 C3.29341888 5.67276511 3.00559652 8.99067246 0 14 C-1.32 14 -2.64 14 -4 14 C-3.36927957 4.01721794 -3.36927957 4.01721794 0 0 Z " fill="#4373C9" transform="translate(120,69)"/>
<path d="M0 0 C0.66 0 1.32 0 2 0 C2 4.62 2 9.24 2 14 C3.98 14.66 5.96 15.32 8 16 C8 16.33 8 16.66 8 17 C5.36 17 2.72 17 0 17 C-0.66 14.03 -1.32 11.06 -2 8 C-2.66 9.32 -3.32 10.64 -4 12 C-4.66 12 -5.32 12 -6 12 C-6.33 12.66 -6.66 13.32 -7 14 C-6.51726991 8.85087905 -3.66411915 3.66411915 0 0 Z " fill="#4293CA" transform="translate(78,71)"/>
<path d="M0 0 C1.32 0.66 2.64 1.32 4 2 C4.125 7.75 4.125 7.75 3 10 C2.34 10 1.68 10 1 10 C1 10.99 1 11.98 1 13 C-0.32 12.34 -1.64 11.68 -3 11 C-3 9.35 -3 7.7 -3 6 C-2.01 6 -1.02 6 0 6 C0 4.02 0 2.04 0 0 Z " fill="#F7FAF7" transform="translate(69,72)"/>
<path d="M0 0 C0.33 0.99 0.66 1.98 1 3 C1.66 3 2.32 3 3 3 C3.33 2.34 3.66 1.68 4 1 C3.6186908 6.62431073 3.22315022 9.90482403 -1 14 C-1.66 14 -2.32 14 -3 14 C-2.48594831 9.03083364 -1.76615118 4.70973649 0 0 Z " fill="#1E99CA" transform="translate(64,69)"/>
<path d="M0 0 C0.598125 0.226875 1.19625 0.45375 1.8125 0.6875 C1.4825 1.0175 1.1525 1.3475 0.8125 1.6875 C0.74101801 3.03993917 0.72850546 4.39584367 0.75 5.75 C0.770625 7.049375 0.79125 8.34875 0.8125 9.6875 C-0.84364657 10.06968767 -2.51207024 10.40145102 -4.1875 10.6875 C-5.1875 9.6875 -5.1875 9.6875 -5.4375 6.3125 C-5.1875 2.6875 -5.1875 2.6875 -3.9375 0.6875 C-2.1875 -0.3125 -2.1875 -0.3125 0 0 Z " fill="#B5D8E9" transform="translate(106.1875,61.3125)"/>
<path d="M0 0 C1.32 0.33 2.64 0.66 4 1 C4 1.66 4 2.32 4 3 C6.31 3.33 8.62 3.66 11 4 C10.34 5.32 9.68 6.64 9 8 C7.02 8 5.04 8 3 8 C3.33 7.01 3.66 6.02 4 5 C3.38125 5.495 2.7625 5.99 2.125 6.5 C0 8 0 8 -2 8 C-1.67 7.05125 -1.34 6.1025 -1 5.125 C0.10159191 2.22937548 0.10159191 2.22937548 0 0 Z " fill="#1D98DC" transform="translate(18,88)"/>
<path d="M0 0 C0.8723412 2.99480917 1.10829766 5.63575911 1.0625 8.75 C1.05347656 9.54921875 1.04445313 10.3484375 1.03515625 11.171875 C1.01775391 12.07679687 1.01775391 12.07679687 1 13 C-0.65 12.67 -2.3 12.34 -4 12 C-4 11.01 -4 10.02 -4 9 C-4.66 9 -5.32 9 -6 9 C-6 8.01 -6 7.02 -6 6 C-5.01 6 -4.02 6 -3 6 C-3 4.68 -3 3.36 -3 2 C-2.01 1.34 -1.02 0.68 0 0 Z " fill="#F3F9F6" transform="translate(48,72)"/>
<path d="M0 0 C0.33 0 0.66 0 1 0 C1.20930233 14.37209302 1.20930233 14.37209302 0 18 C-3.29363353 20.74469461 -5.76464012 21.36303085 -10 21 C-10.33 20.34 -10.66 19.68 -11 19 C-10.01 19 -9.02 19 -8 19 C-7.67 18.34 -7.34 17.68 -7 17 C-6.360625 16.896875 -5.72125 16.79375 -5.0625 16.6875 C-2.8044971 16.18858244 -2.8044971 16.18858244 -1.8125 13.9375 C-0.80157232 10.28260763 -0.38369805 6.77303086 0 3 C-0.66 2.67 -1.32 2.34 -2 2 C-1.34 2 -0.68 2 0 2 C0 1.34 0 0.68 0 0 Z " fill="#CDDEF3" transform="translate(123,66)"/>
<path d="M0 0 C0.33 0 0.66 0 1 0 C1 2.31 1 4.62 1 7 C5.455 6.505 5.455 6.505 10 6 C10 7.32 10 8.64 10 10 C11.32 10.33 12.64 10.66 14 11 C11.625 11.125 11.625 11.125 9 11 C8.34 10.34 7.68 9.68 7 9 C6.01 9.66 5.02 10.32 4 11 C0.8125 11.125 0.8125 11.125 -2 11 C-2 10.34 -2 9.68 -2 9 C-1.34 8.67 -0.68 8.34 0 8 C0 5.36 0 2.72 0 0 Z " fill="#D7F1F8" transform="translate(48,76)"/>
<path d="M0 0 C0.66 0 1.32 0 2 0 C3.28446919 2.56893838 3.32977144 4.76576337 3.5625 7.625 C3.64628906 8.62789062 3.73007813 9.63078125 3.81640625 10.6640625 C3.87699219 11.43492188 3.93757813 12.20578125 4 13 C3.01 13.495 3.01 13.495 2 14 C1.01 13.34 0.02 12.68 -1 12 C-1.27060777 7.8055795 -1.34152439 4.02457316 0 0 Z " fill="#F7FBF7" transform="translate(112,72)"/>
<path d="M0 0 C0.99 0.66 1.98 1.32 3 2 C2.34 2 1.68 2 1 2 C0.34 3.32 -0.32 4.64 -1 6 C-1.66 6 -2.32 6 -3 6 C-3 6.66 -3 7.32 -3 8 C-6.90028225 10.60018816 -10.47434569 10.15085514 -15 10 C-15 9.67 -15 9.34 -15 9 C-13.02 8.67 -11.04 8.34 -9 8 C-10.32 7.34 -11.64 6.68 -13 6 C-11.1746875 5.9071875 -11.1746875 5.9071875 -9.3125 5.8125 C-4.84150148 5.28836874 -2.86698342 3.49413605 0 0 Z " fill="#CAECF2" transform="translate(41,80)"/>
<path d="M0 0 C0.99 0 1.98 0 3 0 C3.33 1.65 3.66 3.3 4 5 C4.33 5 4.66 5 5 5 C5.33 8.3 5.66 11.6 6 15 C4.35 15 2.7 15 1 15 C0.81548975 5.58997722 0.81548975 5.58997722 2 1 C1.34 0.67 0.68 0.34 0 0 Z " fill="#E0F4F8" transform="translate(78,70)"/>
<path d="M0 0 C0.33 0 0.66 0 1 0 C0.36927957 9.98278206 0.36927957 9.98278206 -3 14 C-3.99 14 -4.98 14 -6 14 C-5.25 6.25 -5.25 6.25 -3 4 C-2.67 4.66 -2.34 5.32 -2 6 C-1.34 4.02 -0.68 2.04 0 0 Z " fill="#318BC7" transform="translate(90,68)"/>
<path d="M0 0 C0.66 0 1.32 0 2 0 C1.67 0.9075 1.34 1.815 1 2.75 C-0.76386836 8.98064292 -1.47101495 16.82205075 1.5 22.75 C1.995 23.4925 2.49 24.235 3 25 C2.01 25 1.02 25 0 25 C-3.67917077 17.39638041 -3.44680865 9.92698967 -1 2 C-0.67 1.34 -0.34 0.68 0 0 Z " fill="#28ACC4" transform="translate(18,62)"/>
<path d="M0 0 C1.45606519 4.52092968 0.27032841 7.51648796 -1 12 C0.65 11.01 2.3 10.02 4 9 C4.28875 9.639375 4.5775 10.27875 4.875 10.9375 C5.82823451 13.15206079 5.82823451 13.15206079 8 14 C8.33 13.01 8.66 12.02 9 11 C9 12.65 9 14.3 9 16 C7.68 16 6.36 16 5 16 C4.67 15.34 4.34 14.68 4 14 C0.97065509 13.34227572 0.97065509 13.34227572 -2 13 C-2.19294408 8.17639811 -1.75747614 4.50353262 0 0 Z " fill="#B2DAEF" transform="translate(62,71)"/>
<path d="M0 0 C2.64 0.33 5.28 0.66 8 1 C5.66785852 2.20628008 3.50357861 3.1654738 1 4 C0.67 6.64 0.34 9.28 0 12 C-2 10 -2 10 -2.25 7.125 C-2.01152253 4.14403168 -1.54507335 2.5107442 0 0 Z " fill="#289EDB" transform="translate(89,64)"/>
<path d="M0 0 C1.60031344 3.20062687 0.03173691 5.72271806 -1 9 C-1.33 8.01 -1.66 7.02 -2 6 C-2.33 6.99 -2.66 7.98 -3 9 C-4.32 8.67 -5.64 8.34 -7 8 C-5.125 3.25 -5.125 3.25 -4 1 C-1.9375 0.375 -1.9375 0.375 0 0 Z " fill="#3377CD" transform="translate(110,74)"/>
<path d="M0 0 C1.41687119 4.25061356 0.19320039 6.71851625 -1 11 C-0.01 11.33 0.98 11.66 2 12 C0.35 12.66 -1.3 13.32 -3 14 C-3 10.37 -3 6.74 -3 3 C-4.98 3.33 -6.96 3.66 -9 4 C-9 3.01 -9 2.02 -9 1 C-2.25 0.875 -2.25 0.875 0 2 C0 1.34 0 0.68 0 0 Z " fill="#2D91C8" transform="translate(111,59)"/>
<path d="M0 0 C0.2475 0.804375 0.495 1.60875 0.75 2.4375 C1.36875 3.7059375 1.36875 3.7059375 2 5 C3.32 5.33 4.64 5.66 6 6 C1.38 6.33 -3.24 6.66 -8 7 C-7.34 6.67 -6.68 6.34 -6 6 C-6 5.34 -6 4.68 -6 4 C-2.47058824 0 -2.47058824 0 0 0 Z " fill="#369DCF" transform="translate(44,82)"/>
<path d="M0 0 C1.60031344 3.20062687 0.03173691 5.72271806 -1 9 C-0.34 9 0.32 9 1 9 C1.33 9.99 1.66 10.98 2 12 C0.02 11.34 -1.96 10.68 -4 10 C-4 12.31 -4 14.62 -4 17 C-4.33 17 -4.66 17 -5 17 C-5.46060581 10.55151869 -4.41348898 6.49722522 -1 1 C-0.67 0.67 -0.34 0.34 0 0 Z " fill="#39BACB" transform="translate(28,60)"/>
<path d="M0 0 C2.64 0 5.28 0 8 0 C8.3125 2.1875 8.3125 2.1875 8 5 C5.5 7.8125 5.5 7.8125 3 10 C2.8046875 7.98177083 2.609375 5.96354167 2.4140625 3.9453125 C2.13625251 1.77331755 2.13625251 1.77331755 0 0 Z " fill="#436DD6" transform="translate(128,64)"/>
<path d="M0 0 C-0.33 2.97 -0.66 5.94 -1 9 C-1.99 8.01 -2.98 7.02 -4 6 C-4.66 7.32 -5.32 8.64 -6 10 C-6.33 10 -6.66 10 -7 10 C-6.39169139 3.55192878 -6.39169139 3.55192878 -4.625 1.0625 C-3 0 -3 0 0 0 Z " fill="#05BCD0" transform="translate(34,59)"/>
<path d="M0 0 C0.33 0 0.66 0 1 0 C1.3125 2.1875 1.3125 2.1875 1 5 C-1.1875 7.875 -1.1875 7.875 -4 10 C-6.8125 9.8125 -6.8125 9.8125 -9 9 C-7.68 8.67 -6.36 8.34 -5 8 C-5.33 5.69 -5.66 3.38 -6 1 C-5.67 2.32 -5.34 3.64 -5 5 C-4.01 5 -3.02 5 -2 5 C-1.34 3.35 -0.68 1.7 0 0 Z " fill="#C9E6F5" transform="translate(89,77)"/>
<path d="M0 0 C0.66 1.32 1.32 2.64 2 4 C1.04367001 5.29315061 0.08486149 6.58446853 -0.875 7.875 C-1.40867187 8.59429687 -1.94234375 9.31359375 -2.4921875 10.0546875 C-4 12 -4 12 -6 14 C-8.125 13.625 -8.125 13.625 -10 13 C-8.68 12.67 -7.36 12.34 -6 12 C-6.33 10.68 -6.66 9.36 -7 8 C-6.401875 7.979375 -5.80375 7.95875 -5.1875 7.9375 C-2.56685398 7.09543384 -2.56685398 7.09543384 -1.25 3.4375 C-0.8375 2.303125 -0.425 1.16875 0 0 Z " fill="#C1E1F5" transform="translate(104,73)"/>
<path d="M0 0 C0.99 0.66 1.98 1.32 3 2 C2.46930939 5.82097239 1.50298434 8.06171403 -1 11 C-1.99 10.67 -2.98 10.34 -4 10 C-3.67 9.01 -3.34 8.02 -3 7 C-3 7.66 -3 8.32 -3 9 C-2.34 9 -1.68 9 -1 9 C-1.33 6.69 -1.66 4.38 -2 2 C-1.34 2 -0.68 2 0 2 C0 1.34 0 0.68 0 0 Z " fill="#3E85CC" transform="translate(101,71)"/>
<path d="M0 0 C0.99 0 1.98 0 3 0 C2 4 1 8 0 12 C-0.66 12 -1.32 12 -2 12 C-2.05395478 10.37536158 -2.09277195 8.75021459 -2.125 7.125 C-2.14820313 6.22007813 -2.17140625 5.31515625 -2.1953125 4.3828125 C-2 2 -2 2 0 0 Z " fill="#1BA7D0" transform="translate(53,69)"/>
<path d="M0 0 C0.66 0 1.32 0 2 0 C1.47784461 3.7595188 0.82726947 6.36771463 -2 9 C-5.1875 9.25 -5.1875 9.25 -8 9 C-8.33 8.34 -8.66 7.68 -9 7 C-8.34 7 -7.68 7 -7 7 C-6.67 6.34 -6.34 5.68 -6 5 C-4.68 5 -3.36 5 -2 5 C-1.34 3.35 -0.68 1.7 0 0 Z " fill="#D8DEF3" transform="translate(132,78)"/>
<path d="M0 0 C0.33 1.32 0.66 2.64 1 4 C2.32 3.67 3.64 3.34 5 3 C5.33 6.3 5.66 9.6 6 13 C5.34 13 4.68 13 4 13 C2 10 2 10 2 6 C1.34 6 0.68 6 0 6 C0 4.02 0 2.04 0 0 Z " fill="#DDEEF6" transform="translate(90,73)"/>
<path d="M0 0 C0.33 0 0.66 0 1 0 C1.07471734 3.8853017 0.97236506 7.24944905 0 11 C0.33 11.66 0.66 12.32 1 13 C-0.32 13 -1.64 13 -3 13 C-2.88490339 11.58249437 -2.75746342 10.16598831 -2.625 8.75 C-2.55539063 7.96109375 -2.48578125 7.1721875 -2.4140625 6.359375 C-1.98492887 3.914123 -1.21399362 2.15163097 0 0 Z " fill="#4A79D1" transform="translate(119,70)"/>
<path d="M0 0 C2.12472576 -0.05386629 4.24983652 -0.09273071 6.375 -0.125 C7.55835938 -0.14820313 8.74171875 -0.17140625 9.9609375 -0.1953125 C13 0 13 0 15 2 C15.26991906 4.68839385 15.08737357 7.29141936 15 10 C14.67 10 14.34 10 14 10 C14 8.02 14 6.04 14 4 C10.65060119 1.97441119 8.13037449 1.78261013 4.25 1.875 C3.26515625 1.89304688 2.2803125 1.91109375 1.265625 1.9296875 C0.51796875 1.95289063 -0.2296875 1.97609375 -1 2 C-0.67 1.34 -0.34 0.68 0 0 Z " fill="#50C7D3" transform="translate(31,52)"/>
<path d="M0 0 C0.33 0 0.66 0 1 0 C1.29296875 6.0546875 1.29296875 6.0546875 1 8 C-2 10 -2 10 -5 10 C-4.67 7.03 -4.34 4.06 -4 1 C-3.34 2.32 -2.68 3.64 -2 5 C-1.34 5 -0.68 5 0 5 C0 3.35 0 1.7 0 0 Z " fill="#C6F0F5" transform="translate(44,56)"/>
<path d="M0 0 C2.84614024 2.84614024 2.45579076 5.80369142 2.625 9.625 C2.68300781 10.68460938 2.68300781 10.68460938 2.7421875 11.765625 C2.83647724 13.50998524 2.91932891 15.25495691 3 17 C2.34 17 1.68 17 1 17 C0.09586327 13.16275828 -0.10576898 9.62497726 -0.0625 5.6875 C-0.05347656 4.61886719 -0.04445313 3.55023438 -0.03515625 2.44921875 C-0.02355469 1.64097656 -0.01195313 0.83273438 0 0 Z " fill="#FCF8F3" transform="translate(20,68)"/>
<path d="M0 0 C4.875 0.875 4.875 0.875 6 2 C6.04063832 3.66617115 6.042721 5.33388095 6 7 C5.34 7 4.68 7 4 7 C3.67 7.99 3.34 8.98 3 10 C2.92652344 9.04287109 2.92652344 9.04287109 2.8515625 8.06640625 C2.77679688 7.24011719 2.70203125 6.41382813 2.625 5.5625 C2.55539063 4.73878906 2.48578125 3.91507813 2.4140625 3.06640625 C2.27742188 2.38449219 2.14078125 1.70257813 2 1 C1.34 0.67 0.68 0.34 0 0 Z " fill="#F4FCF9" transform="translate(38,54)"/>
<path d="M0 0 C0.99 1.485 0.99 1.485 2 3 C2.66 2.67 3.32 2.34 4 2 C4.33 2.99 4.66 3.98 5 5 C3.125 8.1875 3.125 8.1875 1 11 C0.67 11 0.34 11 0 11 C0 7.37 0 3.74 0 0 Z " fill="#CBEDF2" transform="translate(73,67)"/>
<path d="M0 0 C1.32 0 2.64 0 4 0 C4 3.3 4 6.6 4 10 C3.67 10 3.34 10 3 10 C2.67 7.69 2.34 5.38 2 3 C1.01 3 0.02 3 -1 3 C-1.33 4.32 -1.66 5.64 -2 7 C-2.125 4.625 -2.125 4.625 -2 2 C-1.34 1.34 -0.68 0.68 0 0 Z " fill="#CBF2F8" transform="translate(93,66)"/>
<path d="M0 0 C0.61875 0.33 1.2375 0.66 1.875 1 C6.26211512 2.40387684 10.43151427 2.15967523 15 2 C14.67 2.66 14.34 3.32 14 4 C9.71 4 5.42 4 1 4 C0.67 2.68 0.34 1.36 0 0 Z " fill="#3C9DC8" transform="translate(21,87)"/>
<path d="M0 0 C0 1.32 0 2.64 0 4 C1.32 4.33 2.64 4.66 4 5 C1.625 5.125 1.625 5.125 -1 5 C-1.66 4.34 -2.32 3.68 -3 3 C-3.99 3 -4.98 3 -6 3 C-6.66 2.34 -7.32 1.68 -8 1 C-5.07175348 0.02391783 -3.04386724 -0.08226668 0 0 Z " fill="#B7DEEF" transform="translate(58,82)"/>
<path d="M0 0 C0.33 0 0.66 0 1 0 C1.33 3.3 1.66 6.6 2 10 C0.68 9.67 -0.64 9.34 -2 9 C-1.125 1.125 -1.125 1.125 0 0 Z " fill="#FDFCF4" transform="translate(82,75)"/>
<path d="M0 0 C1.32 0 2.64 0 4 0 C2.125 3.875 2.125 3.875 1 5 C-0.51928038 5.07179964 -2.04167482 5.08392007 -3.5625 5.0625 C-4.38878906 5.05347656 -5.21507812 5.04445313 -6.06640625 5.03515625 C-6.70449219 5.02355469 -7.34257812 5.01195313 -8 5 C-8 4.67 -8 4.34 -8 4 C-5.36 4 -2.72 4 0 4 C0 2.68 0 1.36 0 0 Z " fill="#1D9BC9" transform="translate(36,80)"/>
<path d="M0 0 C1 3 1 3 0.00390625 5.26171875 C-0.47175781 6.06222656 -0.94742188 6.86273438 -1.4375 7.6875 C-1.91058594 8.49574219 -2.38367187 9.30398437 -2.87109375 10.13671875 C-3.24363281 10.75160156 -3.61617187 11.36648437 -4 12 C-5 9 -5 9 -4.2578125 6.9921875 C-3.88398437 6.29351562 -3.51015625 5.59484375 -3.125 4.875 C-2.75632813 4.17117187 -2.38765625 3.46734375 -2.0078125 2.7421875 C-1 1 -1 1 0 0 Z " fill="#22A6BF" transform="translate(46,67)"/>
<path d="M0 0 C0.99 0 1.98 0 3 0 C3.125 5.75 3.125 5.75 2 8 C1.34 8 0.68 8 0 8 C0 5.36 0 2.72 0 0 Z " fill="#11A7D8" transform="translate(65,64)"/>
<path d="M0 0 C1.32 0.99 2.64 1.98 4 3 C3.34 3 2.68 3 2 3 C2 3.66 2 4.32 2 5 C0.04072937 6.7143618 -1.95880212 8.38405168 -4 10 C-3.49019669 6.22745547 -2.79299818 4.55012877 0 2 C0 1.34 0 0.68 0 0 Z " fill="#20B7C6" transform="translate(24,52)"/>
<path d="M0 0 C0.33 0 0.66 0 1 0 C1 2.97 1 5.94 1 9 C0.01 9.495 0.01 9.495 -1 10 C-2.23076923 4.58461538 -2.23076923 4.58461538 -1.0625 1.625 C-0.5365625 0.820625 -0.5365625 0.820625 0 0 Z " fill="#2291E5" transform="translate(76,77)"/>
<path d="M0 0 C0.66 0 1.32 0 2 0 C3.25664978 2.90600261 4 4.79604584 4 8 C3.34 8 2.68 8 2 8 C1.67 7.34 1.34 6.68 1 6 C0.01 5.34 -0.98 4.68 -2 4 C-1.34 2.68 -0.68 1.36 0 0 Z " fill="#4B8ACC" transform="translate(90,79)"/>
<path d="M0 0 C0.66 0.99 1.32 1.98 2 3 C1.01 4.98 0.02 6.96 -1 9 C-1.66 9 -2.32 9 -3 9 C-3.33 9.66 -3.66 10.32 -4 11 C-3.39301257 6.87248551 -1.96189209 3.6678852 0 0 Z " fill="#4B9FD3" transform="translate(75,74)"/>
<path d="M0 0 C1.2065625 0.0309375 1.2065625 0.0309375 2.4375 0.0625 C1.6875 5.8125 1.6875 5.8125 -0.5625 8.0625 C-0.5625 6.0825 -0.5625 4.1025 -0.5625 2.0625 C-1.5525 1.7325 -2.5425 1.4025 -3.5625 1.0625 C-2.5625 0.0625 -2.5625 0.0625 0 0 Z " fill="#CFE1F3" transform="translate(128.5625,65.9375)"/>
<path d="M0 0 C1.04005702 3.38018531 1.08004482 6.4780279 1 10 C0.01 10 -0.98 10 -2 10 C-1.85950482 8.52031676 -1.71245174 7.04125484 -1.5625 5.5625 C-1.48128906 4.73878906 -1.40007813 3.91507813 -1.31640625 3.06640625 C-1 1 -1 1 0 0 Z " fill="#0AB4C8" transform="translate(47,54)"/>
<path d="M0 0 C0.5534764 2.07553648 1 3.84365964 1 6 C-0.98 6.33 -2.96 6.66 -5 7 C-5 6.34 -5 5.68 -5 5 C-4.34 5 -3.68 5 -3 5 C-2.5359375 4.0409375 -2.5359375 4.0409375 -2.0625 3.0625 C-1 1 -1 1 0 0 Z " fill="#6A64D6" transform="translate(133,82)"/>
<path d="M0 0 C0.66 0 1.32 0 2 0 C2 1.65 2 3.3 2 5 C0.35 5.33 -1.3 5.66 -3 6 C-3 4.68 -3 3.36 -3 2 C-1.68 2.33 -0.36 2.66 1 3 C0.67 2.01 0.34 1.02 0 0 Z " fill="#4178E7" transform="translate(106,80)"/>
<path d="M0 0 C0.33 0 0.66 0 1 0 C1 2.64 1 5.28 1 8 C-0.32 7.67 -1.64 7.34 -3 7 C-1.125 2.25 -1.125 2.25 0 0 Z " fill="#4C83CD" transform="translate(106,75)"/>
<path d="M0 0 C0.66 1.32 1.32 2.64 2 4 C0.02 6.97 0.02 6.97 -2 10 C-3.39195915 5.82412255 -1.82323219 3.86525224 0 0 Z " fill="#CFE6F2" transform="translate(104,73)"/>
<path d="M0 0 C0.33 0 0.66 0 1 0 C1 2.31 1 4.62 1 7 C1.99 7.33 2.98 7.66 4 8 C2.35 8.66 0.7 9.32 -1 10 C-0.67 6.7 -0.34 3.4 0 0 Z " fill="#6DA4CD" transform="translate(109,63)"/>
<path d="M0 0 C2.97 0 5.94 0 9 0 C9 0.33 9 0.66 9 1 C8.071875 1.28875 7.14375 1.5775 6.1875 1.875 C2.90208333 2.8875 2.90208333 2.8875 0 5 C0 3.35 0 1.7 0 0 Z " fill="#5899D0" transform="translate(113,65)"/>
<path d="M0 0 C1.65 0 3.3 0 5 0 C5 1.65 5 3.3 5 5 C4.34 5 3.68 5 3 5 C3 4.34 3 3.68 3 3 C2.01 2.67 1.02 2.34 0 2 C0 1.34 0 0.68 0 0 Z " fill="#0AB9C2" transform="translate(35,57)"/>
</svg>
