<?xml version="1.0" encoding="UTF-8" standalone="no"?>
<svg
   version="1.1"
   width="325.25571"
   height="411.06277"
   style="clip-rule:evenodd;fill-rule:evenodd;image-rendering:optimizeQuality;shape-rendering:geometricPrecision;text-rendering:geometricPrecision"
   id="svg94"
   sodipodi:docname="090646b554affc2e222a8a2f441a8627.svg"
   xmlns:inkscape="http://www.inkscape.org/namespaces/inkscape"
   xmlns:sodipodi="http://sodipodi.sourceforge.net/DTD/sodipodi-0.dtd"
   xmlns="http://www.w3.org/2000/svg"
   xmlns:svg="http://www.w3.org/2000/svg">
  <defs
     id="defs98" />
  <sodipodi:namedview
     id="namedview96"
     pagecolor="#ffffff"
     bordercolor="#666666"
     borderopacity="1.0"
     inkscape:pageshadow="2"
     inkscape:pageopacity="0.0"
     inkscape:pagecheckerboard="0" />
  <g
     id="g4"
     transform="translate(-297.5,-53.437486)">
    <path
       style="opacity:0.012"
       fill="#fefffe"
       d="m 523.5,59.5 c 1.333,0.6667 1.333,0.6667 0,0 z"
       id="path2" />
  </g>
  <g
     id="g8"
     transform="translate(-297.5,-53.437486)">
    <path
       style="opacity:1"
       fill="#73a3f3"
       d="m 385.5,53.5 c -11.159,0.8306 -22.493,1.3306 -34,1.5 49.001,1.0281 98.001,2.1948 147,3.5 -2.528,1.3159 -2.528,2.4826 0,3.5 -48.835,0.1673 -97.502,0.6673 -146,1.5 -13.671,-0.1666 -27.337,1e-4 -41,0.5 -4.429,2.2614 -8.096,5.428 -11,9.5 -0.917,-0.6272 -1.917,-0.9606 -3,-1 2.215,-8.9704 7.549,-15.1371 16,-18.5 23.998,-0.5 47.998,-0.6666 72,-0.5 z"
       id="path6" />
  </g>
  <g
     id="g12"
     transform="translate(-297.5,-53.437486)">
    <path
       style="opacity:1"
       fill="#518ff5"
       d="m 352.5,63.5 c 48.667,0 97.333,0 146,0 0.345,32.3778 0.345,64.711 0,97 2.216,6.215 6.216,10.881 12,14 35.831,1.33 71.498,1.33 107,0 1.109,0.057 2.109,0.39 3,1 0,1 0,2 0,3 -0.722,-0.418 -1.222,-1.084 -1.5,-2 -0.5,88.666 -0.667,177.333 -0.5,266 0.149,1.052 -0.017,2.052 -0.5,3 -3.059,2.901 -6.226,5.567 -9.5,8 -1.333,0 -2.667,0 -4,0 -99.084,0.648 -198.084,-0.019 -297,-2 -1.561,-2.841 -3.395,-5.508 -5.5,-8 -2.119,-3.299 -1.953,-6.466 0.5,-9.5 -1.813,-12.565 -2.813,-25.231 -3,-38 1.148,-101.828 1.314,-203.661 0.5,-305.5 0.053,-3.1752 -0.78,-5.8419 -2.5,-8 0.337,-3.1556 0.337,-6.4889 0,-10 1.083,0.0394 2.083,0.3728 3,1 2.904,-4.072 6.571,-7.2386 11,-9.5 13.663,-0.4999 27.329,-0.6666 41,-0.5 z"
       id="path10" />
  </g>
  <g
     id="g16"
     transform="translate(-297.5,-53.437486)">
    <path
       style="opacity:1"
       fill="#a4c4f7"
       d="m 502.5,56.5 c 40.213,39.2109 79.546,78.878 118,119 -0.891,-0.61 -1.891,-0.943 -3,-1 -34.002,0.167 -68.002,0 -102,-0.5 -7.72,-1.386 -12.553,-5.886 -14.5,-13.5 -0.167,-17.333 -0.333,-34.667 -0.5,-52 0,-17.6798 0.667,-35.0131 2,-52 z"
       id="path14" />
  </g>
  <g
     id="g20"
     transform="translate(-297.5,-53.437486)">
    <path
       style="opacity:0.00899999"
       fill="#fefffe"
       d="m 553.5,88.5 c 1.073,0.7506 1.24,1.7506 0.5,3 -0.483,-0.948 -0.649,-1.948 -0.5,-3 z"
       id="path18" />
  </g>
  <g
     id="g24"
     transform="translate(-297.5,-53.437486)">
    <path
       style="opacity:0.00899999"
       fill="#fefffe"
       d="m 568.5,103.5 c 1.073,0.751 1.24,1.751 0.5,3 -0.483,-0.948 -0.649,-1.948 -0.5,-3 z"
       id="path22" />
  </g>
  <g
     id="g28"
     transform="translate(-297.5,-53.437486)">
    <path
       style="opacity:1"
       fill="#5c88d5"
       d="m 385.5,53.5 c 37.002,-0.1667 74.002,0 111,0.5 2.352,0.2401 4.352,1.0735 6,2.5 -1.333,16.9869 -2,34.3202 -2,52 0.167,17.333 0.333,34.667 0.5,52 1.947,7.614 6.78,12.114 14.5,13.5 33.998,0.5 67.998,0.667 102,0.5 -35.502,1.33 -71.169,1.33 -107,0 -5.784,-3.119 -9.784,-7.785 -12,-14 0.345,-32.289 0.345,-64.6222 0,-97 -48.667,0 -97.333,0 -146,0 48.498,-0.8327 97.165,-1.3327 146,-1.5 -2.528,-1.0174 -2.528,-2.1841 0,-3.5 -48.999,-1.3052 -97.999,-2.4719 -147,-3.5 11.507,-0.1694 22.841,-0.6694 34,-1.5 z"
       id="path26" />
  </g>
  <g
     id="g32"
     transform="translate(-297.5,-53.437486)">
    <path
       style="opacity:0.791"
       fill="#5487e3"
       d="m 297.5,82.5 c 1.72,2.1581 2.553,4.8248 2.5,8 0.814,101.839 0.648,203.672 -0.5,305.5 0.187,12.769 1.187,25.435 3,38 -2.453,3.034 -2.619,6.201 -0.5,9.5 2.105,2.492 3.939,5.159 5.5,8 -2.502,-1.67 -4.502,-3.836 -6,-6.5 -1.401,-0.41 -2.734,-0.91 -4,-1.5 0,-120.333 0,-240.667 0,-361 z"
       id="path30" />
  </g>
  <g
     id="g36"
     transform="translate(-297.5,-53.437486)">
    <path
       style="opacity:0.00499998"
       fill="#cfe3e3"
       d="m 620.5,179.5 c 0.617,0.111 1.117,0.444 1.5,1 0.81,3.858 0.643,7.524 -0.5,11 -0.685,-3.927 -1.018,-7.927 -1,-12 z"
       id="path34" />
  </g>
  <g
     id="g40"
     transform="translate(-297.5,-53.437486)">
    <path
       style="opacity:1"
       fill="#ccdcf2"
       d="m 371.5,231.5 c 59,0 118,0 177,0 0,8 0,16 0,24 -59,0 -118,0 -177,0 0,-8 0,-16 0,-24 z"
       id="path38" />
  </g>
  <g
     id="g44"
     transform="translate(-297.5,-53.437486)">
    <path
       style="opacity:1"
       fill="#fdfefd"
       d="m 372.5,232.5 c 58.333,0 116.667,0 175,0 0,7.333 0,14.667 0,22 -58.333,0 -116.667,0 -175,0 0,-7.333 0,-14.667 0,-22 z"
       id="path42" />
  </g>
  <g
     id="g48"
     transform="translate(-297.5,-53.437486)">
    <path
       style="opacity:1"
       fill="#cddcf1"
       d="m 371.5,279.5 c 59,0 118,0 177,0 0,8 0,16 0,24 -59,0 -118,0 -177,0 0,-8 0,-16 0,-24 z"
       id="path46" />
  </g>
  <g
     id="g52"
     transform="translate(-297.5,-53.437486)">
    <path
       style="opacity:1"
       fill="#fdfefd"
       d="m 372.5,280.5 c 58.333,0 116.667,0 175,0 0,7.333 0,14.667 0,22 -58.333,0 -116.667,0 -175,0 0,-7.333 0,-14.667 0,-22 z"
       id="path50" />
  </g>
  <g
     id="g56"
     transform="translate(-297.5,-53.437486)">
    <path
       style="opacity:0.642"
       fill="#5680ca"
       d="m 620.5,178.5 c 0,0.333 0,0.667 0,1 -0.018,4.073 0.315,8.073 1,12 0.442,81.189 0.775,162.523 1,244 -0.968,2.107 -1.302,4.441 -1,7 -1,0 -2,0 -3,0 -0.167,-88.667 0,-177.334 0.5,-266 0.278,0.916 0.778,1.582 1.5,2 z"
       id="path54" />
  </g>
  <g
     id="g60"
     transform="translate(-297.5,-53.437486)">
    <path
       style="opacity:1"
       fill="#fdfefd"
       d="m 547.5,328.5 c 0,7.333 0,14.667 0,22 -58.333,0 -116.667,0 -175,0 0,-7.333 0,-14.667 0,-22 58.333,0 116.667,0 175,0 z"
       id="path58" />
  </g>
  <g
     id="g64"
     transform="translate(-297.5,-53.437486)">
    <path
       style="opacity:1"
       fill="#d0dff3"
       d="m 547.5,327.5 c 0,0.333 0,0.667 0,1 -58.333,0 -116.667,0 -175,0 0,7.333 0,14.667 0,22 58.333,0 116.667,0 175,0 -58.164,0.999 -116.498,1.332 -175,1 -0.992,-7.816 -1.326,-15.816 -1,-24 58.667,0 117.333,0 176,0 z"
       id="path62" />
  </g>
  <g
     id="g68"
     transform="translate(-297.5,-53.437486)">
    <path
       style="opacity:1"
       fill="#7ea6ec"
       d="m 547.5,327.5 c 0.993,8.15 1.326,16.483 1,25 -58.836,0.332 -117.502,-10e-4 -176,-1 58.502,0.332 116.836,-10e-4 175,-1 0,-7.333 0,-14.667 0,-22 0,-0.333 0,-0.667 0,-1 z"
       id="path66" />
  </g>
  <g
     id="g72"
     transform="translate(-297.5,-53.437486)">
    <path
       style="opacity:1"
       fill="#fdfefd"
       d="m 499.5,376.5 c 0,7.333 0,14.667 0,22 -42.333,0 -84.667,0 -127,0 0,-7.333 0,-14.667 0,-22 42.333,0 84.667,0 127,0 z"
       id="path70" />
  </g>
  <g
     id="g76"
     transform="translate(-297.5,-53.437486)">
    <path
       style="opacity:1"
       fill="#d0e0f3"
       d="m 499.5,375.5 c 0,0.333 0,0.667 0,1 -42.333,0 -84.667,0 -127,0 0,7.333 0,14.667 0,22 42.333,0 84.667,0 127,0 -42.163,0.999 -84.497,1.332 -127,1 -0.992,-7.816 -1.326,-15.816 -1,-24 42.667,0 85.333,0 128,0 z"
       id="path74" />
  </g>
  <g
     id="g80"
     transform="translate(-297.5,-53.437486)">
    <path
       style="opacity:1"
       fill="#80a7eb"
       d="m 499.5,375.5 c 0.993,8.15 1.326,16.483 1,25 -42.837,0.332 -85.503,-10e-4 -128,-1 42.503,0.332 84.837,-10e-4 127,-1 0,-7.333 0,-14.667 0,-22 0,-0.333 0,-0.667 0,-1 z"
       id="path78" />
  </g>
  <g
     id="g84"
     transform="translate(-297.5,-53.437486)">
    <path
       style="opacity:0.997"
       fill="#c1c2c4"
       d="m 622.5,435.5 c 1.139,9.534 -1.527,17.701 -8,24.5 -2.626,2.146 -5.626,3.479 -9,4 -97.667,0.667 -195.333,0.667 -293,0 -9.264,-3.689 -14.264,-10.522 -15,-20.5 1.266,0.59 2.599,1.09 4,1.5 1.498,2.664 3.498,4.83 6,6.5 1.705,1.692 3.705,3.025 6,4 96.832,1.166 193.832,1.332 291,0.5 1.566,-0.608 2.9,-1.442 4,-2.5 3.274,-2.433 6.441,-5.099 9.5,-8 0.483,-0.948 0.649,-1.948 0.5,-3 1,0 2,0 3,0 -0.302,-2.559 0.032,-4.893 1,-7 z"
       id="path82" />
  </g>
  <g
     id="g88"
     transform="translate(-297.5,-53.437486)">
    <path
       style="opacity:1"
       fill="#a3b3cd"
       d="m 604.5,453.5 c 1.333,0 2.667,0 4,0 -1.1,1.058 -2.434,1.892 -4,2.5 -97.168,0.832 -194.168,0.666 -291,-0.5 96.334,0.167 192.667,0 289,-0.5 0.916,-0.278 1.582,-0.778 2,-1.5 z"
       id="path86" />
  </g>
  <g
     id="g92"
     transform="translate(-297.5,-53.437486)">
    <path
       style="opacity:1"
       fill="#6790d5"
       d="m 307.5,451.5 c 98.916,1.981 197.916,2.648 297,2 -0.418,0.722 -1.084,1.222 -2,1.5 -96.333,0.5 -192.666,0.667 -289,0.5 -2.295,-0.975 -4.295,-2.308 -6,-4 z"
       id="path90" />
  </g>
</svg>
