<?xml version="1.0" encoding="UTF-8"?>
<svg version="1.1" xmlns="http://www.w3.org/2000/svg" width="256" height="256">
<path d="M0 0 C84.48 0 168.96 0 256 0 C256 84.48 256 168.96 256 256 C171.52 256 87.04 256 0 256 C0 171.52 0 87.04 0 0 Z " fill="#4284F4" transform="translate(0,0)"/>
<path d="M0 0 C46.86 0 93.72 0 142 0 C142 9.24 142 18.48 142 28 C95.14 28 48.28 28 0 28 C0 18.76 0 9.52 0 0 Z " fill="#FFFFFF" transform="translate(57,114)"/>
<path d="M0 0 C46.86 0 93.72 0 142 0 C142 9.24 142 18.48 142 28 C95.14 28 48.28 28 0 28 C0 18.76 0 9.52 0 0 Z " fill="#FFFFFF" transform="translate(57,57)"/>
<path d="M0 0 C33 0 66 0 100 0 C100 9.24 100 18.48 100 28 C67 28 34 28 0 28 C0 18.76 0 9.52 0 0 Z " fill="#FFFFFF" transform="translate(57,171)"/>
<path d="M0 0 C1.11716322 1.67574483 2.21936421 3.36266405 3.26171875 5.0859375 C7.86374918 12.4744028 12.45997243 16.70877309 21 19 C21 19.33 21 19.66 21 20 C14.07 20 7.14 20 0 20 C0 13.4 0 6.8 0 0 Z " fill="#000000" transform="translate(0,236)"/>
<path d="M0 0 C0.33 0 0.66 0 1 0 C1 6.93 1 13.86 1 21 C-5.6 21 -12.2 21 -19 21 C-17.32425517 19.88283678 -15.63733595 18.78063579 -13.9140625 17.73828125 C-6.5255972 13.13625082 -2.29122691 8.54002757 0 0 Z " fill="#000000" transform="translate(255,235)"/>
<path d="M0 0 C6.93 0 13.86 0 21 0 C21 6.6 21 13.2 21 20 C19.88283678 18.32425517 18.78063579 16.63733595 17.73828125 14.9140625 C13.13625082 7.5255972 8.54002757 3.29122691 0 1 C0 0.67 0 0.34 0 0 Z " fill="#000000" transform="translate(235,0)"/>
<path d="M0 0 C6.6 0 13.2 0 20 0 C18.32425517 1.11716322 16.63733595 2.21936421 14.9140625 3.26171875 C7.5255972 7.86374918 3.29122691 12.45997243 1 21 C0.67 21 0.34 21 0 21 C0 14.07 0 7.14 0 0 Z " fill="#000000" transform="translate(0,0)"/>
</svg>
