<?xml version="1.0" encoding="UTF-8"?>
<svg version="1.1" xmlns="http://www.w3.org/2000/svg" width="500" height="500">
<path d="M0 0 C12.27413385 9.79771187 23.09770857 21.48362894 34.16448975 32.58283997 C36.05284051 34.47305933 37.94138906 36.36307901 39.8302002 38.25283813 C44.26235783 42.68807879 48.69196482 47.12585746 53.12061381 51.56460124 C58.17077801 56.62602176 63.22385119 61.68453396 68.27714586 66.74282873 C78.6542448 77.13032331 89.02776691 87.52138491 99.39886475 97.91487122 C103.93844121 96.25500096 106.44695674 94.21293264 109.83636475 90.72737122 C110.55650757 89.99296814 110.55650757 89.99296814 111.29119873 89.24372864 C113.96281782 86.49529994 116.51053608 83.67319483 118.96136475 80.72737122 C120.16792725 79.33518372 120.16792725 79.33518372 121.39886475 77.91487122 C122.05886475 77.91487122 122.71886475 77.91487122 123.39886475 77.91487122 C123.72886475 76.92487122 124.05886475 75.93487122 124.39886475 74.91487122 C125.05886475 74.91487122 125.71886475 74.91487122 126.39886475 74.91487122 C126.7340789 74.09119049 126.7340789 74.09119049 127.07606506 73.25086975 C128.79530456 70.2147782 131.09618979 67.96278691 133.56365967 65.53889465 C134.08915405 65.01471451 134.61464844 64.49053436 135.15606689 63.95046997 C136.89260342 62.22041761 138.63600787 60.49745481 140.3793335 58.77424622 C141.59332896 57.56652678 142.80680696 56.358287 144.01979065 55.14955139 C147.21700483 51.96563968 150.41972747 48.78733215 153.62408447 45.61061096 C158.73577595 40.54200714 163.8409001 35.46681341 168.94259071 30.38814545 C170.71646694 28.62439659 172.49377187 26.86415971 174.27146912 25.10426331 C179.35446811 20.05854286 184.3787547 15.014691 188.98065186 9.516922 C191.44686963 6.73101719 194.27694823 4.4378822 197.21136475 2.16487122 C197.81593506 1.69388 198.42050537 1.22288879 199.043396 0.73762512 C209.16897046 -6.91286851 220.14040125 -9.30845493 232.6918335 -7.81169128 C244.76855573 -5.54596994 255.32220914 1.64714759 262.33636475 11.72737122 C268.50514983 23.30953561 267.82873628 36.03710287 267.78704834 48.76301575 C267.79111937 50.85691094 267.79646421 52.95080398 267.80297852 55.04469299 C267.816593 60.70155233 267.8113782 66.35824656 267.80184126 72.01510859 C267.79421619 77.94946373 267.80129797 83.88380527 267.80599976 89.81816101 C267.81144817 99.77929712 267.80428879 109.74036636 267.78997803 119.70149231 C267.77364435 131.20321604 267.77894898 142.70478028 267.79545724 154.20650017 C267.80908744 164.10067326 267.81098453 173.99479844 267.80314124 183.88897789 C267.79847432 189.79015394 267.79781305 195.69125511 267.8077507 201.5924263 C267.8164407 207.13949524 267.81036123 212.68635918 267.79306793 218.23340607 C267.78911435 220.2642597 267.79021771 222.2951307 267.79685593 224.32597733 C267.87168313 249.55078368 267.87168313 249.55078368 258.8324585 258.93830872 C249.10931796 266.8354341 235.86802864 268.28469941 223.77386475 268.16487122 C222.7976416 268.16027893 221.82141846 268.15568665 220.81561279 268.1509552 C194.66819351 267.83687833 194.66819351 267.83687833 183.39886475 264.91487122 C182.84149517 258.07330767 182.29101329 251.23121229 181.74481201 244.38874817 C181.55913801 242.07222116 181.3720176 239.75580953 181.18328857 237.43952942 C175.69771917 170.04748071 175.69771917 170.04748071 182.03167725 142.86018372 C182.52251792 140.5897164 182.52251792 140.5897164 182.39886475 136.91487122 C181.82114822 137.49258774 181.2434317 138.07030426 180.64820862 138.66552734 C165.56509399 153.74864197 150.48197937 168.83175659 135.39886475 183.91487122 C134.5068486 184.80704849 133.61483246 185.69922577 132.69578552 186.61843872 C123.5455225 195.76675658 114.00025918 200.94282742 100.83636475 201.22737122 C82.21584087 201.01356562 70.57985482 189.57408293 58.2387085 177.01252747 C57.11652897 175.88218906 55.99359453 174.75259969 54.86994934 173.62371826 C51.94618983 170.68302184 49.03116679 167.73382942 46.11846924 164.78218079 C41.42846305 160.03242111 36.72516002 155.29583163 32.02157784 150.55952263 C30.38463825 148.90863555 28.75156988 147.25399488 27.11906433 145.59872437 C26.12378806 144.59343176 25.12843604 143.58821415 24.13299561 142.58308411 C22.83041054 141.2635952 22.83041054 141.2635952 21.50151062 139.91744995 C19.56185545 137.87427655 19.56185545 137.87427655 17.39886475 136.91487122 C17.39978654 137.47734055 17.40070833 138.03980988 17.40165806 138.61932373 C17.42385255 152.37782431 17.4402796 166.13632171 17.45067692 179.89483643 C17.45587551 186.54865788 17.46291771 193.20246285 17.4743042 199.85627747 C17.4852412 206.28833645 17.49116431 212.72038299 17.49374199 219.15245056 C17.49557687 221.59538468 17.49915958 224.03831819 17.5045948 226.48124695 C17.53202877 239.33342818 17.46675599 252.100479 16.39886475 264.91487122 C5.25092597 265.80173067 -5.83547535 266.13131956 -17.0178833 266.15510559 C-19.79527836 266.16489463 -22.57195671 266.19608129 -25.34918213 266.22737122 C-50.17440907 266.37849623 -50.17440907 266.37849623 -57.60113525 259.22737122 C-64.53819447 252.36571482 -66.5623116 245.47798011 -66.73256302 235.79179096 C-66.74058904 234.24236623 -66.74327142 232.69290773 -66.74157715 231.14346313 C-66.74454827 230.2843194 -66.74751939 229.42517567 -66.75058055 228.53999728 C-66.75922153 225.67381569 -66.76077188 222.8076761 -66.76226807 219.94148254 C-66.76689949 217.88112805 -66.77192459 215.82077441 -66.77731323 213.76042175 C-66.79040776 208.17136613 -66.79687641 202.5823225 -66.80132389 196.99325395 C-66.80425931 193.49803078 -66.80836499 190.00281086 -66.81282806 186.50758934 C-66.82649508 175.56190119 -66.8361657 164.6162205 -66.84002995 153.67052442 C-66.84450923 141.05370433 -66.86205448 128.43699265 -66.89103055 115.82020551 C-66.91267543 106.05519955 -66.92273573 96.29022403 -66.92407107 86.52519435 C-66.92511706 80.6987587 -66.93098105 74.87242508 -66.94889069 69.04601479 C-66.96541993 63.56222726 -66.96750331 58.07861793 -66.95875168 52.5948143 C-66.95798391 50.58898502 -66.96228947 48.58314597 -66.97220993 46.57734108 C-67.05081165 29.68628317 -65.85471314 15.57593519 -53.85113525 2.60237122 C-39.28401234 -11.13234467 -15.97345022 -11.93035147 0 0 Z " fill="#EA4132" transform="translate(149.60113525390625,121.08512878417969)"/>
<path d="M0 0 C0.33 0 0.66 0 1 0 C1.07012646 25.64326628 1.12300604 51.28651816 1.15543652 76.92986107 C1.17089576 88.83689965 1.19196732 100.7438786 1.22631836 112.65087891 C1.2562495 123.03078299 1.27558186 133.41064388 1.28226548 143.79058993 C1.28617143 149.28508326 1.29533144 154.77945303 1.31719017 160.27390671 C1.33761393 165.44979611 1.34382188 170.62551151 1.33932304 175.80143738 C1.34014561 177.69683911 1.34607602 179.5922469 1.35761642 181.48761368 C1.49723996 205.61054988 1.49723996 205.61054988 -7.56640625 215.0234375 C-17.28954679 222.92056288 -30.5308361 224.36982819 -42.625 224.25 C-44.08933472 224.24311157 -44.08933472 224.24311157 -45.58325195 224.23608398 C-71.73067123 223.92200712 -71.73067123 223.92200712 -83 221 C-83.55736957 214.15843645 -84.10785146 207.31634107 -84.65405273 200.47387695 C-84.83972673 198.15734995 -85.02684715 195.84093831 -85.21557617 193.5246582 C-90.07189322 133.86318446 -90.07189322 133.86318446 -86 107 C-85.89816406 106.30729004 -85.79632813 105.61458008 -85.69140625 104.90087891 C-83.38337377 89.8096233 -83.38337377 89.8096233 -78 84 C-75.3125 82.25 -75.3125 82.25 -73 81 C-72.7009375 80.38511719 -72.401875 79.77023438 -72.09375 79.13671875 C-70.80687234 76.62271132 -69.35562079 75.35752161 -67.1875 73.5625 C-63.9676559 70.8366753 -60.94559797 68.02520872 -58 65 C-56.33333333 63.33333333 -54.66666667 61.66666667 -53 60 C-52.40574219 59.38253906 -51.81148438 58.76507813 -51.19921875 58.12890625 C-50.57660156 57.48824219 -49.95398438 56.84757812 -49.3125 56.1875 C-48.73113281 55.58292969 -48.14976562 54.97835937 -47.55078125 54.35546875 C-46 53 -46 53 -44 53 C-43.731875 52.195625 -43.46375 51.39125 -43.1875 50.5625 C-42.795625 49.716875 -42.40375 48.87125 -42 48 C-41.01 47.67 -40.02 47.34 -39 47 C-39 46.34 -39 45.68 -39 45 C-37.35546875 43.30859375 -37.35546875 43.30859375 -35.1875 41.4375 C-34.12595703 40.50744141 -34.12595703 40.50744141 -33.04296875 39.55859375 C-31 38 -31 38 -28 37 C-27.29695214 35.68548643 -26.63364115 34.34934099 -26 33 C-24.58300781 31.38769531 -24.58300781 31.38769531 -22.953125 29.828125 C-22.06065063 28.9613916 -22.06065063 28.9613916 -21.15014648 28.07714844 C-20.20957397 27.17270996 -20.20957397 27.17270996 -19.25 26.25 C-11.91105912 19.03270929 -6.39861169 12.36922542 -1.98046875 3.00390625 C-1 1 -1 1 0 0 Z " fill="#01AD44" transform="translate(416,165)"/>
<path d="M0 0 C2 2 2 2 2 5 C2.66 5 3.32 5 4 5 C4.45375 6.051875 4.9075 7.10375 5.375 8.1875 C5.65085937 8.82300781 5.92671875 9.45851562 6.2109375 10.11328125 C6.86515008 11.67756182 7.4429693 13.27353674 8 14.875 C8.33 15.57625 8.66 16.2775 9 17 C9.99 17.33 10.98 17.66 12 18 C13.4296875 19.453125 13.4296875 19.453125 14.875 21.25 C17.40535173 24.37491526 20.14699012 27.16551291 23 30 C23.98931634 30.98854809 24.9782336 31.9774957 25.96679688 32.96679688 C26.49084106 33.49084106 27.01488525 34.01488525 27.55480957 34.55480957 C66 73 66 73 68.73046875 75.73828125 C70.07149958 77.0746958 71.42684715 78.39740941 72.8125 79.6875 C74 81 74 81 74 83 C74.59374892 83.26930297 75.18749784 83.53860594 75.79923916 83.8160696 C79.49626156 85.80493505 81.91476119 88.3590783 84 92 C84.80050648 95.65768273 84.71402264 99.1836083 84.60522461 102.91381836 C84.59795349 103.99129333 84.59068237 105.06876831 84.58319092 106.17889404 C84.55188687 109.73353905 84.47747354 113.28587692 84.40234375 116.83984375 C84.37121205 119.32496652 84.34265217 121.81012272 84.31654358 124.29530334 C84.24812601 130.17329005 84.15216339 136.0503316 84.04327351 141.92769676 C83.93423717 147.90102989 83.85693457 153.87458584 83.78415585 159.84847164 C83.23197577 205.09529707 83.23197577 205.09529707 82 221 C70.85206122 221.88685945 59.7656599 222.21644834 48.58325195 222.24023438 C45.80585689 222.25002341 43.02917855 222.28121007 40.25195312 222.3125 C15.42672618 222.46362501 15.42672618 222.46362501 8 215.3125 C1.04383078 208.43194131 -0.81280859 201.8071782 -1.12584114 192.09607124 C-1.13128073 190.65138882 -1.13135243 189.20667946 -1.12698364 187.76199341 C-1.12854363 186.96042529 -1.13010362 186.15885717 -1.13171089 185.33299911 C-1.13568165 182.66224732 -1.13254658 179.99155294 -1.12939453 177.32080078 C-1.13075025 175.40023261 -1.13253114 173.47966471 -1.13470459 171.55909729 C-1.13925679 166.35505868 -1.13749894 161.15103993 -1.1343255 155.94700098 C-1.13179268 150.50355635 -1.13414182 145.0601134 -1.13571167 139.6166687 C-1.13752973 130.48239842 -1.13513559 121.34813624 -1.13037109 112.21386719 C-1.1249194 101.63972138 -1.12669916 91.06559482 -1.1321975 80.49144948 C-1.13672732 71.41790544 -1.13738012 62.34436721 -1.13475883 53.27082241 C-1.13319659 47.84887112 -1.13300105 42.42692889 -1.13629532 37.00497818 C-1.13917246 31.91442138 -1.13720127 26.82388958 -1.13140106 21.73333549 C-1.13007303 19.85995844 -1.1304683 17.98657929 -1.13266373 16.11320305 C-1.13537332 13.5674747 -1.1319966 11.02182781 -1.12698364 8.47610474 C-1.12921436 7.7250575 -1.13144509 6.97401026 -1.13374341 6.20020401 C-1.11415051 1.11415051 -1.11415051 1.11415051 0 0 Z " fill="#4283F3" transform="translate(84,165)"/>
<path d="M0 0 C9.4453098 8.1280114 14.44563195 16.36568734 15.48876953 28.9921875 C15.60584791 31.1476053 15.66659029 33.29478581 15.6953125 35.453125 C15.70925049 36.13568359 15.72318848 36.81824219 15.73754883 37.52148438 C15.69737345 41.71641977 15.07615913 43.83342576 12.3203125 46.953125 C11.65202191 48.42228204 11.00768238 49.90248107 10.3828125 51.390625 C6.80487879 58.73081022 0.9984567 64.20633971 -4.6796875 69.953125 C-5.46601563 70.75492187 -6.25234375 71.55671875 -7.0625 72.3828125 C-8.92050754 74.25494938 -10.7949247 76.10799506 -12.6796875 77.953125 C-14.01 79.2834375 -14.01 79.2834375 -15.3671875 80.640625 C-16.511875 81.7853125 -16.511875 81.7853125 -17.6796875 82.953125 C-18.5665625 83.88125 -19.4534375 84.809375 -20.3671875 85.765625 C-22.6796875 87.953125 -22.6796875 87.953125 -24.6796875 87.953125 C-24.6796875 88.613125 -24.6796875 89.273125 -24.6796875 89.953125 C-25.9645826 91.33319751 -27.30984552 92.65732853 -28.6796875 93.953125 C-29.4840625 94.7575 -30.2884375 95.561875 -31.1171875 96.390625 C-31.9628125 97.23625 -32.8084375 98.081875 -33.6796875 98.953125 C-34.5665625 99.88125 -35.4534375 100.809375 -36.3671875 101.765625 C-38.6796875 103.953125 -38.6796875 103.953125 -40.6796875 103.953125 C-40.9478125 104.55125 -41.2159375 105.149375 -41.4921875 105.765625 C-42.67886156 107.95160354 -43.77567863 109.36645094 -45.6796875 110.953125 C-46.3396875 110.953125 -46.9996875 110.953125 -47.6796875 110.953125 C-47.9065625 111.51 -48.1334375 112.066875 -48.3671875 112.640625 C-50.05518786 115.61472088 -52.14645267 117.67321365 -54.6796875 119.953125 C-55.3396875 119.953125 -55.9996875 119.953125 -56.6796875 119.953125 C-57.02 121.12875 -57.02 121.12875 -57.3671875 122.328125 C-59.02349804 125.64074608 -60.32007036 125.69326857 -63.6796875 126.953125 C-65.02379012 128.97047705 -65.02379012 128.97047705 -65.6796875 130.953125 C-66.3396875 130.953125 -66.9996875 130.953125 -67.6796875 130.953125 C-68.63677226 114.17302172 -68.97341634 97.39461355 -69.21191406 80.59185791 C-69.24197734 78.53003848 -69.27423249 76.46826627 -69.30737305 74.40649414 C-69.31820734 73.73094797 -69.32904163 73.0554018 -69.34020424 72.35938454 C-69.36210891 70.99550044 -69.38410072 69.63161773 -69.40617943 68.26773643 C-69.45948801 64.87632282 -69.50433729 61.48513906 -69.53213501 58.09341431 C-69.54357614 56.74603147 -69.55516247 55.39864986 -69.56689453 54.05126953 C-69.57259272 53.38649912 -69.5782909 52.72172871 -69.58416176 52.03681374 C-69.6293707 47.90986214 -69.75364544 43.79296419 -69.93529987 39.66982746 C-70.02189991 37.61040282 -70.08869901 35.55131037 -70.14866638 33.49095154 C-70.22676291 30.93997254 -70.33918754 28.3897099 -70.49305725 25.84217834 C-70.64974672 19.07486564 -69.92207636 15.43723297 -65.35351562 10.29272461 C-63.83067755 8.80927997 -62.27530388 7.35799231 -60.6796875 5.953125 C-60.09030396 5.41325455 -59.50092041 4.87338409 -58.89367676 4.31715393 C-41.73178859 -10.70511532 -18.87565637 -14.41813985 0 0 Z " fill="#FCBA02" transform="translate(401.6796875,122.046875)"/>
<path d="M0 0 C16.85576246 13.8064788 16.85576246 13.8064788 17.68555737 19.21396255 C17.67541764 20.06569927 17.66527792 20.91743599 17.65483093 21.79498291 C17.64839569 23.2672937 17.64839569 23.2672937 17.64183044 24.76934814 C17.62169388 25.83965271 17.60155731 26.90995728 17.58081055 28.01269531 C17.57149506 29.1446936 17.56217957 30.27669189 17.55258179 31.44299316 C17.51818568 35.18755883 17.46229404 38.93148214 17.40625 42.67578125 C17.37822014 45.27079905 17.3515294 47.86583163 17.3261261 50.46087646 C17.26284058 56.59497191 17.186043 62.72876202 17.10270578 68.86261344 C17.00857002 75.84672734 16.93168404 82.83099782 16.85624444 89.8153348 C16.70069594 104.18052889 16.52349288 118.54539819 16.33203125 132.91015625 C15.04090034 131.95471186 13.75152076 130.99690051 12.46289062 130.03808594 C11.7446814 129.50495789 11.02647217 128.97182983 10.28649902 128.42254639 C8.22370143 126.82632937 6.49272286 125.17143831 4.83203125 123.16015625 C4.34734375 122.5878125 3.86265625 122.01546875 3.36328125 121.42578125 C2.33203125 119.91015625 2.33203125 119.91015625 2.33203125 117.91015625 C1.8009375 117.70390625 1.26984375 117.49765625 0.72265625 117.28515625 C-2.67570311 115.33054433 -5.17852803 112.68891908 -7.91796875 109.91015625 C-8.47226563 109.36359375 -9.0265625 108.81703125 -9.59765625 108.25390625 C-13.66796875 104.16354295 -13.66796875 104.16354295 -13.66796875 101.91015625 C-14.26559021 101.63719727 -14.86321167 101.36423828 -15.47894287 101.08300781 C-17.60637465 99.94315757 -18.99337347 98.83800682 -20.69238281 97.14453125 C-21.25266174 96.59055664 -21.81294067 96.03658203 -22.39019775 95.46582031 C-22.98201843 94.86995117 -23.57383911 94.27408203 -24.18359375 93.66015625 C-24.79942322 93.04624023 -25.41525269 92.43232422 -26.04974365 91.79980469 C-27.34649521 90.50441142 -28.64073532 89.20649981 -29.93261719 87.90625 C-31.91772077 85.91040557 -33.91330466 83.92548899 -35.91015625 81.94140625 C-37.16861086 80.6816307 -38.42644529 79.42123524 -39.68359375 78.16015625 C-40.28351135 77.56428711 -40.88342896 76.96841797 -41.50152588 76.35449219 C-45.66796875 72.14008872 -45.66796875 72.14008872 -45.66796875 69.91015625 C-46.22484375 69.70390625 -46.78171875 69.49765625 -47.35546875 69.28515625 C-50.5407403 67.39121101 -52.37314527 64.793396 -54.66796875 61.91015625 C-55.18359375 61.41515625 -55.69921875 60.92015625 -56.23046875 60.41015625 C-59.73759058 56.75055086 -61.66796875 54.02277313 -61.66796875 48.91015625 C-62.32796875 48.91015625 -62.98796875 48.91015625 -63.66796875 48.91015625 C-64.32796875 47.59015625 -64.98796875 46.27015625 -65.66796875 44.91015625 C-65.99796875 44.91015625 -66.32796875 44.91015625 -66.66796875 44.91015625 C-67.22850223 28.55088288 -65.50752521 15.12374252 -53.91796875 2.59765625 C-39.20314291 -11.2763224 -16.17349454 -11.732535 0 0 Z " fill="#C4221D" transform="translate(149.66796875,121.08984375)"/>
<path d="M0 0 C0.33 0 0.66 0 1 0 C1.04668458 25.74690222 1.08197145 51.49379811 1.10362434 77.2407341 C1.11394459 89.19500899 1.12801922 101.1492576 1.15087891 113.10351562 C1.17078987 123.52071756 1.18371099 133.93790047 1.18817699 144.3551209 C1.19078826 149.8728669 1.19694142 155.39055846 1.21146011 160.90828705 C1.22500778 166.09890619 1.22922835 171.28944833 1.22621536 176.48008347 C1.22676679 178.3876754 1.23076095 180.29526985 1.23841095 182.20284653 C1.24832813 184.80270514 1.2459807 187.40227117 1.24050903 190.00213623 C1.24633472 190.76089263 1.2521604 191.51964902 1.25816262 192.30139804 C1.23507109 196.34710944 0.86548531 198.26902938 -1 202 C-1 137.98 -1 73.96 -1 8 C-1.66 8 -2.32 8 -3 8 C-3.061875 8.9075 -3.12375 9.815 -3.1875 10.75 C-4.19934935 14.79739742 -5.70696087 15.59045917 -9 18 C-10.31165257 20.11660427 -10.31165257 20.11660427 -11 22 C-11.99 21.67 -12.98 21.34 -14 21 C-13.48050781 20.39414063 -12.96101563 19.78828125 -12.42578125 19.1640625 C-8.1333476 14.00679472 -4.71757134 9.03377365 -1.91015625 2.93359375 C-1 1 -1 1 0 0 Z " fill="#289856" transform="translate(416,165)"/>
<path d="M0 0 C2 2 2 2 2 5 C2.66 5 3.32 5 4 5 C7 11.625 7 11.625 7 15 C5.35 14.01 3.7 13.02 2 12 C1.67 75.03 1.34 138.06 1 203 C0.67 203 0.34 203 0 203 C-0.84186923 197.89276401 -1.14264439 192.94074381 -1.12698364 187.76199341 C-1.12854363 186.96042529 -1.13010362 186.15885717 -1.13171089 185.33299911 C-1.13568165 182.66224732 -1.13254658 179.99155294 -1.12939453 177.32080078 C-1.13075025 175.40023261 -1.13253114 173.47966471 -1.13470459 171.55909729 C-1.13925679 166.35505868 -1.13749894 161.15103993 -1.1343255 155.94700098 C-1.13179268 150.50355635 -1.13414182 145.0601134 -1.13571167 139.6166687 C-1.13752973 130.48239842 -1.13513559 121.34813624 -1.13037109 112.21386719 C-1.1249194 101.63972138 -1.12669916 91.06559482 -1.1321975 80.49144948 C-1.13672732 71.41790544 -1.13738012 62.34436721 -1.13475883 53.27082241 C-1.13319659 47.84887112 -1.13300105 42.42692889 -1.13629532 37.00497818 C-1.13917246 31.91442138 -1.13720127 26.82388958 -1.13140106 21.73333549 C-1.13007303 19.85995844 -1.1304683 17.98657929 -1.13266373 16.11320305 C-1.13537332 13.5674747 -1.1319966 11.02182781 -1.12698364 8.47610474 C-1.12921436 7.7250575 -1.13144509 6.97401026 -1.13374341 6.20020401 C-1.11415051 1.11415051 -1.11415051 1.11415051 0 0 Z " fill="#4E7AC5" transform="translate(84,165)"/>
<path d="M0 0 C0.66 0 1.32 0 2 0 C0.65473942 5.97893592 -2.37995284 10.10309066 -7 14 C-17.24114892 19.71833491 -28.11860253 21.3631729 -39.6875 21.25 C-41.15135132 21.24419922 -41.15135132 21.24419922 -42.64477539 21.23828125 C-53.4770296 21.11376264 -64.23260281 20.13198416 -75 19 C-75 18.34 -75 17.68 -75 17 C-74.08584824 16.9845388 -74.08584824 16.9845388 -73.15322876 16.96876526 C-66.82697535 16.86083047 -60.50086815 16.74622212 -54.17480469 16.62768555 C-51.81187999 16.58429484 -49.44892309 16.54262287 -47.0859375 16.50268555 C-43.69521364 16.44508307 -40.3046525 16.3813599 -36.9140625 16.31640625 C-35.32182358 16.29133751 -35.32182358 16.29133751 -33.69741821 16.26576233 C-32.22611954 16.2358445 -32.22611954 16.2358445 -30.72509766 16.20532227 C-29.42603989 16.18200584 -29.42603989 16.18200584 -28.10073853 16.15821838 C-25.94242107 16.12903408 -25.94242107 16.12903408 -24 15 C-22.12943209 14.7724985 -20.25314042 14.59037189 -18.375 14.4375 C-17.37210937 14.35371094 -16.36921875 14.26992188 -15.3359375 14.18359375 C-14.56507813 14.12300781 -13.79421875 14.06242187 -13 14 C-13 13.34 -13 12.68 -13 12 C-12.38125 11.938125 -11.7625 11.87625 -11.125 11.8125 C-8.72238859 11.171081 -8.72238859 11.171081 -7.75 8.4375 C-7.37875 7.2309375 -7.37875 7.2309375 -7 6 C-4 6 -4 6 -2 7 C-1.34 4.69 -0.68 2.38 0 0 Z " fill="#139F49" transform="translate(413,368)"/>
<path d="M0 0 C3 2 3 2 4.375 4.875 C6.49173026 8.94563512 8.9072725 11.32127757 13.3125 12.75 C13.869375 12.8325 14.42625 12.915 15 13 C15 13.66 15 14.32 15 15 C18.38849195 16.01795685 21.52390509 16.15427135 25.05371094 16.20532227 C26.27467468 16.22526749 27.49563843 16.24521271 28.75360107 16.26576233 C30.06725647 16.28247482 31.38091187 16.29918732 32.734375 16.31640625 C34.09629936 16.33698919 35.45821752 16.35798601 36.82012939 16.37937927 C40.39734872 16.43446165 43.97462438 16.48393164 47.55194092 16.53222656 C51.20525094 16.58254289 54.85847958 16.63817597 58.51171875 16.69335938 C65.67441206 16.80077165 72.83717391 16.90176226 80 17 C80 12.38 80 7.76 80 3 C80.33 3 80.66 3 81 3 C81 7.95 81 12.9 81 18 C69.84787687 18.87467632 58.76877707 19.21644171 47.58325195 19.24023438 C44.80585689 19.25002341 42.02917855 19.28121007 39.25195312 19.3125 C14.33507449 19.46446186 14.33507449 19.46446186 4.78125 10.06640625 C2.17633238 7.0444733 0 4.0944545 0 0 Z " fill="#5283CF" transform="translate(85,368)"/>
<path d="M0 0 C0.33 0 0.66 0 1 0 C0.67 19.47 0.34 38.94 0 59 C-0.33 59 -0.66 59 -1 59 C-1 42.17 -1 25.34 -1 8 C-1.66 8 -2.32 8 -3 8 C-3.061875 8.9075 -3.12375 9.815 -3.1875 10.75 C-4.19934935 14.79739742 -5.70696087 15.59045917 -9 18 C-10.31165257 20.11660427 -10.31165257 20.11660427 -11 22 C-11.99 21.67 -12.98 21.34 -14 21 C-13.48050781 20.39414063 -12.96101563 19.78828125 -12.42578125 19.1640625 C-8.1333476 14.00679472 -4.71757134 9.03377365 -1.91015625 2.93359375 C-1 1 -1 1 0 0 Z " fill="#1CA451" transform="translate(416,165)"/>
<path d="M0 0 C4.6960409 3.60536175 4.6960409 3.60536175 5.44523048 7.0428257 C5.57523543 9.59371526 5.55269197 12.1023347 5.47583008 14.65551758 C5.46680664 15.6218512 5.4577832 16.58818481 5.44848633 17.58380127 C5.41277384 20.77153958 5.34132841 23.95741848 5.26953125 27.14453125 C5.23776193 29.35695901 5.20822548 31.56941986 5.18083191 33.78190613 C5.10279035 39.60044687 4.9944241 45.418043 4.87976074 51.23596191 C4.76807785 57.17461339 4.6850452 63.11365757 4.59960938 69.05273438 C4.42779692 80.70238652 4.22394943 92.35124167 4 104 C3.67 104 3.34 104 3 104 C2.99191315 102.7855722 2.98382629 101.57114441 2.97549438 100.31991577 C2.89799444 88.87253055 2.81024523 77.42526362 2.71247292 65.97803307 C2.66253686 60.09296397 2.6162064 54.2079126 2.578125 48.32275391 C2.54123847 42.64277703 2.49486902 36.96294934 2.44193649 31.28310013 C2.42341051 29.11662031 2.40829593 26.95010854 2.39665604 24.78358078 C2.37976309 21.74798064 2.35072014 18.71272082 2.31884766 15.67724609 C2.31668747 14.78244537 2.31452728 13.88764465 2.31230164 12.96572876 C2.2491281 8.25276071 1.81323077 4.43130678 0 0 Z " fill="#4F70B4" transform="translate(163,252)"/>
<path d="M0 0 C12.21 0 24.42 0 37 0 C37 0.66 37 1.32 37 2 C33.53989484 2.7822914 30.34176342 3.12826944 26.796875 3.1328125 C25.81589844 3.13410156 24.83492188 3.13539063 23.82421875 3.13671875 C22.30248047 3.13091797 22.30248047 3.13091797 20.75 3.125 C19.25146484 3.13080078 19.25146484 3.13080078 17.72265625 3.13671875 C11.73345393 3.12888973 5.93904802 2.77626561 0 2 C0 1.34 0 0.68 0 0 Z " fill="#9E5733" transform="translate(352,386)"/>
<path d="M0 0 C0.99 0.33 1.98 0.66 3 1 C-1.52991796 6.43733055 -6.34294216 11.46458931 -11.375 16.4375 C-12.11105469 17.16904297 -12.84710938 17.90058594 -13.60546875 18.65429688 C-15.40136074 20.43852723 -17.19955985 22.22036124 -19 24 C-19.66 23.01 -20.32 22.02 -21 21 C-18.375 17.125 -18.375 17.125 -15 16 C-15 15.01 -15 14.02 -15 13 C-13.865625 12.566875 -12.73125 12.13375 -11.5625 11.6875 C-10.386875 11.130625 -9.21125 10.57375 -8 10 C-7.67 9.01 -7.34 8.02 -7 7 C-6.01 7 -5.02 7 -4 7 C-4 5.68 -4 4.36 -4 3 C-2.1875 1.1875 -2.1875 1.1875 0 0 Z " fill="#D7443C" transform="translate(311,274)"/>
<path d="M0 0 C-5.445 1.485 -5.445 1.485 -11 3 C-11 2.34 -11 1.68 -11 1 C-23.21 1 -35.42 1 -48 1 C-48 1.66 -48 2.32 -48 3 C-54.93 2.505 -54.93 2.505 -62 2 C-62 1.34 -62 0.68 -62 0 C-54.50694 -0.15397203 -47.0137844 -0.30215209 -39.52046585 -0.4429636 C-36.04092391 -0.5085313 -32.56144426 -0.57608435 -29.08203125 -0.64819336 C-25.0808287 -0.73102877 -21.07950611 -0.80519494 -17.078125 -0.87890625 C-15.83009094 -0.90594131 -14.58205688 -0.93297638 -13.29620361 -0.96083069 C-12.13530212 -0.98092697 -10.97440063 -1.00102325 -9.77832031 -1.02172852 C-8.75683899 -1.04171402 -7.73535767 -1.06169952 -6.68292236 -1.08229065 C-4 -1 -4 -1 0 0 Z " fill="#3C873E" transform="translate(400,385)"/>
<path d="M0 0 C3 2 3 2 4.375 4.875 C6.49173026 8.94563512 8.9072725 11.32127757 13.3125 12.75 C13.869375 12.8325 14.42625 12.915 15 13 C15 13.66 15 14.32 15 15 C18.24078125 15.94466756 21.27225655 16.19098828 24.640625 16.31640625 C26.24550781 16.37924805 26.24550781 16.37924805 27.8828125 16.44335938 C28.99398437 16.48267578 30.10515625 16.52199219 31.25 16.5625 C32.37664062 16.60568359 33.50328125 16.64886719 34.6640625 16.69335938 C37.44258954 16.79932015 40.22120391 16.90139142 43 17 C43 17.33 43 17.66 43 18 C39.02108648 18.11735877 35.0426254 18.18763654 31.0625 18.25 C29.94552734 18.28351563 28.82855469 18.31703125 27.67773438 18.3515625 C19.42341829 18.44838732 13.13545782 17.41054451 6.66015625 12.0703125 C3.48124314 8.19965546 1.12647144 5.00653975 0 0 Z " fill="#4D7DD8" transform="translate(85,368)"/>
<path d="M0 0 C0.37113402 5.56701031 0.37113402 5.56701031 -1.5 7.75 C-2.2425 8.36875 -2.2425 8.36875 -3 9 C-3 9.66 -3 10.32 -3 11 C-1.68 11 -0.36 11 1 11 C1 12.65 1 14.3 1 16 C-0.2989839 15.09373216 -1.58893167 14.17450463 -2.875 13.25 C-3.59429687 12.73953125 -4.31359375 12.2290625 -5.0546875 11.703125 C-7.08570565 9.92496453 -7.97855012 8.47298393 -9 6 C-7.68 6.33 -6.36 6.66 -5 7 C-4.566875 5.5459375 -4.566875 5.5459375 -4.125 4.0625 C-2.63265306 0 -2.63265306 0 0 0 Z " fill="#B9272D" transform="translate(165,238)"/>
<path d="M0 0 C0.33 0 0.66 0 1 0 C1.28826388 3.74743041 0.89173278 6.58839301 -0.40625 10.0625 C-2.1643987 15.16222326 -2.97156255 20.23013527 -3.6875 25.5625 C-3.81705078 26.47580078 -3.94660156 27.38910156 -4.08007812 28.33007812 C-4.39423546 30.5524504 -4.70073797 32.77558177 -5 35 C-5.33 35 -5.66 35 -6 35 C-6.26290286 27.80035657 -5.54936444 21.17610909 -4.125 14.125 C-3.95097656 13.20203125 -3.77695312 12.2790625 -3.59765625 11.328125 C-2.79312054 7.21605357 -2.02023375 3.7032333 0 0 Z " fill="#368F4D" transform="translate(335,253)"/>
<path d="M0 0 C0.66 0.33 1.32 0.66 2 1 C1.34 1.7425 0.68 2.485 0 3.25 C-2.39211447 5.97242945 -2.39211447 5.97242945 -2 10 C-2.99 10 -3.98 10 -5 10 C-5.33 10.66 -5.66 11.32 -6 12 C-6.639375 12.309375 -7.27875 12.61875 -7.9375 12.9375 C-10.31971493 13.95345922 -10.31971493 13.95345922 -12 17 C-12.99 17 -13.98 17 -15 17 C-15.33 17.99 -15.66 18.98 -16 20 C-16.33 19.34 -16.66 18.68 -17 18 C-16.278125 17.29875 -15.55625 16.5975 -14.8125 15.875 C-12.90843614 13.98163313 -11.26820864 12.09933371 -9.5625 10 C-7.64456732 7.7546154 -6.00125141 6.07679112 -3.75 4.25 C-0.97640062 2.29368116 -0.97640062 2.29368116 0 0 Z " fill="#2BA62E" transform="translate(361,226)"/>
<path d="M0 0 C4.91935902 4.11619836 9.52647956 8.40410362 14 13 C11 14 11 14 9 14 C8.896875 13.360625 8.79375 12.72125 8.6875 12.0625 C8.460625 11.381875 8.23375 10.70125 8 10 C7.01 9.67 6.02 9.34 5 9 C4.34 8.01 3.68 7.02 3 6 C-0.08365871 5.7497843 -0.08365871 5.7497843 -3 6 C-2.01 4.02 -1.02 2.04 0 0 Z " fill="#5F78D4" transform="translate(115,204)"/>
<path d="M0 0 C0.33 0 0.66 0 1 0 C1.20086443 3.71599191 1.1519437 4.77208445 -1 8 C-1.66 8 -2.32 8 -3 8 C-3.061875 8.9075 -3.12375 9.815 -3.1875 10.75 C-4.19934935 14.79739742 -5.70696087 15.59045917 -9 18 C-10.31165257 20.11660427 -10.31165257 20.11660427 -11 22 C-11.99 21.67 -12.98 21.34 -14 21 C-13.48050781 20.39414063 -12.96101563 19.78828125 -12.42578125 19.1640625 C-8.1333476 14.00679472 -4.71757134 9.03377365 -1.91015625 2.93359375 C-1 1 -1 1 0 0 Z " fill="#32A12F" transform="translate(416,165)"/>
<path d="M0 0 C6.14777908 2.98074137 10.27807625 8.41711437 14 14 C12.35 14 10.7 14 9 14 C9 13.34 9 12.68 9 12 C8.34 11.67 7.68 11.34 7 11 C7.33 10.34 7.66 9.68 8 9 C7.236875 8.95875 6.47375 8.9175 5.6875 8.875 C3 8 3 8 1.1875 5.0625 C0 2 0 2 0 0 Z " fill="#6176D0" transform="translate(99,188)"/>
<path d="M0 0 C3.29450431 2.71405482 4.87521242 4.10484602 5.47583008 8.41333008 C5.40775146 9.68587646 5.33967285 10.95842285 5.26953125 12.26953125 C5.24026047 12.95053391 5.21098969 13.63153656 5.18083191 14.33317566 C5.08234564 16.49495479 4.94801043 18.65275746 4.8125 20.8125 C4.73915687 22.28308638 4.66816788 23.75379217 4.59960938 25.22460938 C4.42697202 28.81819149 4.22215347 32.40909983 4 36 C3.67 36 3.34 36 3 36 C2.98018066 35.12263184 2.96036133 34.24526367 2.93994141 33.34130859 C2.861524 30.06467423 2.77482117 26.78847139 2.68261719 23.51220703 C2.64449762 22.09822937 2.60961596 20.68416035 2.578125 19.27001953 C2.53210142 17.2291616 2.47417333 15.1889234 2.4140625 13.1484375 C2.3826416 11.92302246 2.3512207 10.69760742 2.31884766 9.43505859 C2.00051231 6.00551927 1.22383184 3.20772767 0 0 Z " fill="#5269A6" transform="translate(163,252)"/>
<path d="M0 0 C0 0.66 0 1.32 0 2 C-0.66 2 -1.32 2 -2 2 C-2 2.99 -2 3.98 -2 5 C-3.65 5 -5.3 5 -7 5 C-7 6.98 -7 8.96 -7 11 C-7.99 10.67 -8.98 10.34 -10 10 C-10.66 10 -11.32 10 -12 10 C-12.66 9.67 -13.32 9.34 -14 9 C-12.37680325 7.68527053 -10.751385 6.37328338 -9.125 5.0625 C-8.22007812 4.33160156 -7.31515625 3.60070312 -6.3828125 2.84765625 C-2.71035941 0 -2.71035941 0 0 0 Z " fill="#EAA91E" transform="translate(358,117)"/>
<path d="M0 0 C0.99 0.33 1.98 0.66 3 1 C-0.3 4.3 -3.6 7.6 -7 11 C-7 8 -7 8 -6 6 C-6.66 6 -7.32 6 -8 6 C-7.67 5.01 -7.34 4.02 -7 3 C-3.535 2.505 -3.535 2.505 0 2 C0 1.34 0 0.68 0 0 Z " fill="#D5473B" transform="translate(329,257)"/>
<path d="M0 0 C0.33 0.66 0.66 1.32 1 2 C0.071875 2.7115625 0.071875 2.7115625 -0.875 3.4375 C-3.8110621 6.97804547 -4.27544711 10.53827956 -5 15 C-5.99 14.34 -6.98 13.68 -8 13 C-7.67 12.34 -7.34 11.68 -7 11 C-7.66 10.67 -8.32 10.34 -9 10 C-6.03 6.7 -3.06 3.4 0 0 Z " fill="#B5302C" transform="translate(99,121)"/>
<path d="M0 0 C1 2 1 2 0.9375 3.9375 C-0.47575133 7.04665292 -2.9757159 7.51638893 -6 9 C-8.15187711 10.88957155 -10.04175164 12.90187676 -12 15 C-12.66 14.67 -13.32 14.34 -14 14 C-9.38 9.38 -4.76 4.76 0 0 Z " fill="#CC4D3F" transform="translate(331,139)"/>
<path d="M0 0 C2 1 2 1 4 3 C4.99 3.33 5.98 3.66 7 4 C7 4.66 7 5.32 7 6 C6.01 6.66 5.02 7.32 4 8 C3.67 8.66 3.34 9.32 3 10 C0.9375 7.8125 0.9375 7.8125 -1 5 C-0.75 2.1875 -0.75 2.1875 0 0 Z " fill="#DF433C" transform="translate(167,250)"/>
<path d="M0 0 C0.66 0 1.32 0 2 0 C2 0.99 2 1.98 2 3 C0.37064759 4.37868281 -1.29749607 5.71274093 -3 7 C-3.33 7.66 -3.66 8.32 -4 9 C-4.66 9 -5.32 9 -6 9 C-6 9.66 -6 10.32 -6 11 C-7.95927063 12.7143618 -9.95880212 14.38405168 -12 16 C-12.66 15.67 -13.32 15.34 -14 15 C-12.88121617 13.82737096 -11.75476949 12.66204862 -10.625 11.5 C-9.99851562 10.8503125 -9.37203125 10.200625 -8.7265625 9.53125 C-7 8 -7 8 -5 8 C-4.731875 7.195625 -4.46375 6.39125 -4.1875 5.5625 C-3.795625 4.716875 -3.40375 3.87125 -3 3 C-2.01 2.67 -1.02 2.34 0 2 C0 1.34 0 0.68 0 0 Z " fill="#32A42A" transform="translate(377,210)"/>
<path d="M0 0 C4.13621084 3.3810038 7.81316569 6.66590534 11 11 C9.35 10.67 7.7 10.34 6 10 C6 9.01 6 8.02 6 7 C4.35 7.33 2.7 7.66 1 8 C-0.35439668 5.29120665 -0.06501451 2.99066732 0 0 Z " fill="#D6453F" transform="translate(202,173)"/>
<path d="M0 0 C0.33 0.99 0.66 1.98 1 3 C1.66 3 2.32 3 3 3 C6 9.625 6 9.625 6 13 C3 11.5625 3 11.5625 0 9 C-0.53698855 5.94127109 -0.35474551 3.07446111 0 0 Z " fill="#6173CA" transform="translate(85,167)"/>
<path d="M0 0 C0.33 0 0.66 0 1 0 C1.13277344 0.85464844 1.26554687 1.70929688 1.40234375 2.58984375 C1.57894531 3.69457031 1.75554687 4.79929688 1.9375 5.9375 C2.19853516 7.59072266 2.19853516 7.59072266 2.46484375 9.27734375 C2.71845136 11.90426929 2.71845136 11.90426929 4 13 C4.04080783 14.99958364 4.04254356 17.00045254 4 19 C2.015625 17.484375 2.015625 17.484375 0 15 C-0.2911521 12.26317029 -0.38322418 9.96059961 -0.25 7.25 C-0.23195313 6.55261719 -0.21390625 5.85523438 -0.1953125 5.13671875 C-0.14838554 3.42388461 -0.07664605 1.71176176 0 0 Z " fill="#A04152" transform="translate(83,151)"/>
<path d="M0 0 C0 0.66 0 1.32 0 2 C-0.66 2 -1.32 2 -2 2 C-2.04125 2.5775 -2.0825 3.155 -2.125 3.75 C-3.44065958 7.13312465 -5.96552364 8.19222685 -9 10 C-9 7 -9 7 -7.5390625 5.17578125 C-6.90742188 4.56089844 -6.27578125 3.94601563 -5.625 3.3125 C-4.68527344 2.37857422 -4.68527344 2.37857422 -3.7265625 1.42578125 C-2 0 -2 0 0 0 Z " fill="#EDB623" transform="translate(344,127)"/>
<path d="M0 0 C4.52615993 3.67832017 8.39424999 7.41086363 12 12 C10.35 12 8.7 12 7 12 C6.773125 11.278125 6.54625 10.55625 6.3125 9.8125 C4.75528356 6.47560763 2.61945291 4.55051994 0 2 C0 1.34 0 0.68 0 0 Z " fill="#CA4A42" transform="translate(233,204)"/>
<path d="M0 0 C0.66 0 1.32 0 2 0 C1.46760392 4.52536666 -0.27123273 7.38839627 -3 11 C-3.99 11.66 -4.98 12.32 -6 13 C-6 11.68 -6 10.36 -6 9 C-5.01 8.67 -4.02 8.34 -3 8 C-1.98245132 6.1346755 -1.98245132 6.1346755 -1.3125 3.9375 C-1.06113281 3.20402344 -0.80976563 2.47054687 -0.55078125 1.71484375 C-0.36902344 1.14894531 -0.18726563 0.58304688 0 0 Z " fill="#C8C21A" transform="translate(411,169)"/>
<path d="M0 0 C1.65 0 3.3 0 5 0 C5 0.99 5 1.98 5 3 C5.99 2.67 6.98 2.34 8 2 C8 3.98 8 5.96 8 8 C6.85073734 7.04578192 5.70569459 6.08647955 4.5625 5.125 C3.92441406 4.59132812 3.28632813 4.05765625 2.62890625 3.5078125 C1 2 1 2 0 0 Z " fill="#A92E3F" transform="translate(140,228)"/>
<path d="M0 0 C1.65 0 3.3 0 5 0 C5 0.99 5 1.98 5 3 C5.99 2.67 6.98 2.34 8 2 C8 3.98 8 5.96 8 8 C6.85073734 7.04578192 5.70569459 6.08647955 4.5625 5.125 C3.92441406 4.59132812 3.28632812 4.05765625 2.62890625 3.5078125 C1 2 1 2 0 0 Z " fill="#A92F3D" transform="translate(124,212)"/>
<path d="M0 0 C1.65 1.65 3.3 3.3 5 5 C1.7 5.66 -1.6 6.32 -5 7 C-4.67 6.01 -4.34 5.02 -4 4 C-1.9375 3.3125 -1.9375 3.3125 0 3 C0 2.01 0 1.02 0 0 Z " fill="#DE433A" transform="translate(181,152)"/>
<path d="M0 0 C5.31427203 2.70923672 8.42148591 5.22864787 12 10 C9.625 9.75 9.625 9.75 7 9 C6.30062468 7.68352881 5.63270867 6.34977849 5 5 C2.94999129 4.19471111 2.94999129 4.19471111 1 4 C0.67 2.68 0.34 1.36 0 0 Z " fill="#ECB82B" transform="translate(396,119)"/>
<path d="M0 0 C4.03384128 2.07143201 5.92856799 3.96615872 8 8 C6.02 8 4.04 8 2 8 C1.855625 7.236875 1.71125 6.47375 1.5625 5.6875 C1.0367406 2.91827092 1.0367406 2.91827092 0 0 Z " fill="#6076CD" transform="translate(131,220)"/>
<path d="M0 0 C2.64 0.66 5.28 1.32 8 2 C8 3.98 8 5.96 8 8 C6.85073734 7.04578192 5.70569459 6.08647955 4.5625 5.125 C3.92441406 4.59132812 3.28632812 4.05765625 2.62890625 3.5078125 C1 2 1 2 0 0 Z " fill="#A82E3F" transform="translate(108,196)"/>
<path d="M0 0 C4.13621084 3.3810038 7.81316569 6.66590534 11 11 C9.35 10.67 7.7 10.34 6 10 C6 9.01 6 8.02 6 7 C5.34 7 4.68 7 4 7 C0 2.52941176 0 2.52941176 0 0 Z " fill="#CA463E" transform="translate(218,189)"/>
<path d="M0 0 C0.33 0.66 0.66 1.32 1 2 C0.67 2.66 0.34 3.32 0 4 C1.98 4 3.96 4 6 4 C6 4.33 6 4.66 6 5 C1.07872966 5.16682272 -2.50343896 5.24828052 -7 3 C-7 2.67 -7 2.34 -7 2 C-4.69 1.34 -2.38 0.68 0 0 Z " fill="#D8453A" transform="translate(238,315)"/>
<path d="M0 0 C1.485 0.99 1.485 0.99 3 2 C3 2.66 3 3.32 3 4 C3.9590625 4.433125 3.9590625 4.433125 4.9375 4.875 C7 6 7 6 8 8 C5.69 7.67 3.38 7.34 1 7 C0.67 4.69 0.34 2.38 0 0 Z " fill="#5B7AD8" transform="translate(155,244)"/>
<path d="M0 0 C4.03384128 2.07143201 5.92856799 3.96615872 8 8 C6.02 8 4.04 8 2 8 C1.855625 7.236875 1.71125 6.47375 1.5625 5.6875 C1.0367406 2.91827092 1.0367406 2.91827092 0 0 Z " fill="#6275CC" transform="translate(147,236)"/>
<path d="M0 0 C2.31 0.66 4.62 1.32 7 2 C7.33 3.98 7.66 5.96 8 8 C6 6.625 6 6.625 4 5 C4 4.34 4 3.68 4 3 C2.68 2.34 1.36 1.68 0 1 C0 0.67 0 0.34 0 0 Z " fill="#A82F3F" transform="translate(148,236)"/>
<path d="M0 0 C2.31 0.66 4.62 1.32 7 2 C7.33 3.98 7.66 5.96 8 8 C6 6.625 6 6.625 4 5 C4 4.34 4 3.68 4 3 C2.68 2.34 1.36 1.68 0 1 C0 0.67 0 0.34 0 0 Z " fill="#A82F3F" transform="translate(132,220)"/>
<path d="M0 0 C1.98 1.65 3.96 3.3 6 5 C2.8035914 6.06546953 0.34252724 6.07427838 -3 6 C-2.01 4.02 -1.02 2.04 0 0 Z " fill="#577CDA" transform="translate(115,204)"/>
<path d="M0 0 C1.14926266 0.95421808 2.29430541 1.91352045 3.4375 2.875 C4.07558594 3.40867188 4.71367187 3.94234375 5.37109375 4.4921875 C7 6 7 6 8 8 C7.01 8 6.02 8 5 8 C5 7.34 5 6.68 5 6 C3.35 6 1.7 6 0 6 C0 4.02 0 2.04 0 0 Z " fill="#CD4B3C" transform="translate(188,159)"/>
<path d="M0 0 C3.91402949 1.26941497 5.79072873 2.51167694 8 6 C5.69 5.67 3.38 5.34 1 5 C0.67 3.35 0.34 1.7 0 0 Z " fill="#D94340" transform="translate(173,146)"/>
<path d="M0 0 C4.71403788 0.47939368 8.66579301 0.96834048 13 3 C9.30581799 4.231394 6.7943739 3.64432764 3 3 C3 2.34 3 1.68 3 1 C2.01 0.67 1.02 0.34 0 0 Z " fill="#A72E2E" transform="translate(130,114)"/>
<path d="M0 0 C1.98 0 3.96 0 6 0 C6 1.98 6 3.96 6 6 C3.97945196 4.35830472 1.97956942 2.69088222 0 1 C0 0.67 0 0.34 0 0 Z " fill="#AA2D3E" transform="translate(116,204)"/>
<path d="M0 0 C0 1.65 0 3.3 0 5 C-0.99 4.67 -1.98 4.34 -3 4 C-3.66 4 -4.32 4 -5 4 C-5.66 3.67 -6.32 3.34 -7 3 C-4.49955934 -0.00052879 -4.2621484 0 0 0 Z " fill="#F5B116" transform="translate(351,123)"/>
<path d="M0 0 C3.34373475 0.55728913 6.03312999 1.35173889 9 3 C6.50935112 3.68707555 4.62113708 4 2 4 C1.34 2.68 0.68 1.36 0 0 Z " fill="#EEB625" transform="translate(386,115)"/>
<path d="M0 0 C0.33 0 0.66 0 1 0 C1.144375 1.093125 1.28875 2.18625 1.4375 3.3125 C1.88288104 6.93122987 1.88288104 6.93122987 3 10 C2.34 10.66 1.68 11.32 1 12 C0 11 0 11 -0.09765625 8.49609375 C-0.08605469 7.48675781 -0.07445312 6.47742188 -0.0625 5.4375 C-0.05347656 4.42558594 -0.04445313 3.41367187 -0.03515625 2.37109375 C-0.02355469 1.58863281 -0.01195312 0.80617188 0 0 Z " fill="#09A848" transform="translate(331,337)"/>
<path d="M0 0 C2.5625 2.0625 2.5625 2.0625 5 5 C4.8125 8.8125 4.8125 8.8125 4 12 C3.67 12 3.34 12 3 12 C2.86722656 11.38511719 2.73445312 10.77023437 2.59765625 10.13671875 C2.42105469 9.32847656 2.24445313 8.52023437 2.0625 7.6875 C1.88847656 6.88699219 1.71445313 6.08648437 1.53515625 5.26171875 C1.00113841 2.854599 1.00113841 2.854599 0 0 Z " fill="#766FA9" transform="translate(163,252)"/>
<path d="M0 0 C1.65 0 3.3 0 5 0 C5.33 1.65 5.66 3.3 6 5 C4.125 4.75 4.125 4.75 2 4 C0.75 1.9375 0.75 1.9375 0 0 Z " fill="#D34639" transform="translate(248,219)"/>
<path d="M0 0 C0.99 0.33 1.98 0.66 3 1 C-0.465 3.97 -0.465 3.97 -4 7 C-4 5.68 -4 4.36 -4 3 C-3.01 3 -2.02 3 -1 3 C-0.67 2.01 -0.34 1.02 0 0 Z " fill="#CBC11B" transform="translate(397,188)"/>
<path d="M0 0 C1.14926266 0.95421808 2.29430541 1.91352045 3.4375 2.875 C4.07558594 3.40867188 4.71367187 3.94234375 5.37109375 4.4921875 C7 6 7 6 8 8 C5 8 5 8 2.3125 5.6875 C0 3 0 3 0 0 Z " fill="#A52B26" transform="translate(156,127)"/>
<path d="M0 0 C0 0.99 0 1.98 0 3 C-3 4 -3 4 -5.1875 3.0625 C-5.785625 2.711875 -6.38375 2.36125 -7 2 C-4 0 -4 0 0 0 Z " fill="#B02521" transform="translate(114,115)"/>
<path d="M0 0 C1.2065625 0.0309375 1.2065625 0.0309375 2.4375 0.0625 C0.7875 1.7125 -0.8625 3.3625 -2.5625 5.0625 C-3.125 3.125 -3.125 3.125 -3.5625 1.0625 C-2.5625 0.0625 -2.5625 0.0625 0 0 Z " fill="#D7433A" transform="translate(278.5625,307.9375)"/>
<path d="M0 0 C2.97 0.495 2.97 0.495 6 1 C6 2.65 6 4.3 6 6 C3.97945196 4.35830472 1.97956942 2.69088222 0 1 C0 0.67 0 0.34 0 0 Z " fill="#A53148" transform="translate(160,248)"/>
<path d="M0 0 C1.98 0 3.96 0 6 0 C6 1.98 6 3.96 6 6 C5.34 5.67 4.68 5.34 4 5 C4 4.34 4 3.68 4 3 C2.68 2.34 1.36 1.68 0 1 C0 0.67 0 0.34 0 0 Z " fill="#A92E3F" transform="translate(100,188)"/>
<path d="M0 0 C1.65 0 3.3 0 5 0 C5 1.98 5 3.96 5 6 C3.31237149 4.3545622 1.6459651 2.68711423 0 1 C0 0.67 0 0.34 0 0 Z " fill="#AA2D3E" transform="translate(95,182)"/>
<path d="M0 0 C2.31 1.98 4.62 3.96 7 6 C6.01 6.495 6.01 6.495 5 7 C4.01 6.67 3.02 6.34 2 6 C2 5.01 2 4.02 2 3 C1.34 3 0.68 3 0 3 C0 2.01 0 1.02 0 0 Z " fill="#D25139" transform="translate(206,177)"/>
</svg>
