<?xml version="1.0" encoding="UTF-8"?>
<svg version="1.1" xmlns="http://www.w3.org/2000/svg" width="980" height="980">
<path d="M0 0 C1.92434408 -0.00743927 1.92434408 -0.00743927 3.88756379 -0.01502883 C7.42050471 -0.02825915 10.95320617 -0.02309709 14.48615281 -0.01469534 C18.34050297 -0.00885503 22.19480911 -0.02045846 26.04914707 -0.02975702 C32.79538535 -0.04363419 39.54155657 -0.0464132 46.28780651 -0.04179764 C56.32024352 -0.03495169 66.35261289 -0.04524086 76.3850405 -0.0587552 C95.34828485 -0.08364391 114.311501 -0.08818521 133.27475906 -0.08628923 C147.92194263 -0.08491519 162.56911644 -0.0887385 177.2162981 -0.09621429 C179.32201763 -0.09726464 181.42773716 -0.09831226 183.53345669 -0.09935716 C185.10141446 -0.10013617 185.10141446 -0.10013617 186.70104815 -0.10093093 C187.74828812 -0.10145107 188.79552809 -0.10197121 189.8745026 -0.10250711 C190.9235224 -0.10303111 191.97254221 -0.1035551 193.05335049 -0.10409497 C222.55238474 -0.11867541 252.05141541 -0.12696208 281.55045319 -0.12234497 C283.21803742 -0.12208704 283.21803742 -0.12208704 284.91931023 -0.1218239 C290.55370961 -0.12093503 296.18810898 -0.11999022 301.82250834 -0.11902589 C302.94147695 -0.11883485 304.06044556 -0.11864382 305.2133223 -0.118447 C307.47614883 -0.1180599 309.73897536 -0.11766958 312.00180189 -0.11727602 C347.20181222 -0.11130762 382.40175678 -0.12673836 417.60175228 -0.15888214 C457.16889979 -0.19498344 496.73600561 -0.21428839 536.30317062 -0.20934343 C540.5247726 -0.20887347 544.74637458 -0.20846322 548.96797657 -0.20809174 C550.52711943 -0.20793816 550.52711943 -0.20793816 552.11776013 -0.20778148 C567.78864224 -0.20658812 583.4594792 -0.21853462 599.13034916 -0.23723602 C616.9609865 -0.25850485 634.79152933 -0.26229049 652.62217093 -0.24293643 C662.59150361 -0.23263443 672.56060551 -0.23601833 682.52991717 -0.25946729 C689.20150634 -0.27376356 695.87292586 -0.26965586 702.54450377 -0.25102152 C706.33766474 -0.24093126 710.13037862 -0.23837546 713.92351062 -0.25834221 C746.71172826 -0.41936214 776.489398 6.53348648 802.56049252 27.38311005 C803.10560482 27.81607391 803.65071712 28.24903778 804.21234798 28.69512177 C830.83933471 50.03384781 847.77186798 79.7578373 853.56049252 113.38311005 C853.93887821 117.87034449 853.96849064 122.32127329 853.94360256 126.82261753 C853.94856208 128.10551358 853.95352159 129.38840964 853.9586314 130.71018133 C853.97186171 134.24312224 853.96669965 137.7758237 853.9582979 141.30877034 C853.95245759 145.1631205 853.96406103 149.01742664 853.97335958 152.8717646 C853.98723676 159.61800288 853.99001576 166.3641741 853.9854002 173.11042404 C853.97855425 183.14286105 853.98884343 193.17523042 854.00235776 203.20765803 C854.02724648 222.17090238 854.03178777 241.13411853 854.02989179 260.09737659 C854.02851776 274.74456016 854.03234106 289.39173397 854.03981686 304.03891563 C854.0408672 306.14463516 854.04191482 308.25035469 854.04295972 310.35607423 C854.04347906 311.4013794 854.04399841 312.44668458 854.04453349 313.52366568 C854.04505363 314.57090565 854.04557377 315.61814562 854.04610968 316.69712013 C854.04663367 317.74613993 854.04715766 318.79515974 854.04769753 319.87596802 C854.06227797 349.37500227 854.07056464 378.87403294 854.06594753 408.37307072 C854.06577558 409.48479354 854.06560362 410.59651637 854.06542646 411.74192776 C854.06453759 417.37632714 854.06359278 423.01072651 854.06262845 428.64512587 C854.06243742 429.76409448 854.06224638 430.88306309 854.06204956 432.03593983 C854.06166247 434.29876636 854.06127214 436.56159289 854.06087858 438.82441942 C854.05491018 474.02442975 854.07034092 509.22437431 854.1024847 544.42436981 C854.138586 583.99151732 854.15789095 623.55862314 854.152946 663.12578815 C854.15247604 667.34739013 854.15206578 671.56899211 854.1516943 675.7905941 C854.15159191 676.83002268 854.15148953 677.86945125 854.15138404 678.94037766 C854.15019068 694.61125977 854.16213718 710.28209673 854.18083858 725.95296669 C854.20210742 743.78360403 854.20589305 761.61414686 854.18653899 779.44478846 C854.17623699 789.41412114 854.17962089 799.38322304 854.20306985 809.3525347 C854.21736612 816.02412388 854.21325842 822.69554339 854.19462408 829.3671213 C854.18453383 833.16028227 854.18197802 836.95299615 854.20194477 840.74612815 C854.3957748 880.27316306 842.84088995 912.78660633 815.90033627 942.04717255 C811.74204102 946.19852573 807.21334976 949.80549292 802.56049252 953.38311005 C801.74322689 954.03924286 800.92596127 954.69537567 800.08393002 955.3713913 C779.45230759 971.30820181 753.19631994 980.91039148 727.12098503 980.76622009 C725.83808898 980.77117961 724.55519293 980.77613912 723.23342124 980.78124893 C719.70048032 980.79447924 716.16777887 980.78931718 712.63483222 980.78091543 C708.78048206 980.77507512 704.92617592 980.78667856 701.07183796 980.79597712 C694.32559968 980.80985429 687.57942846 980.81263329 680.83317852 980.80801773 C670.80074151 980.80117178 660.76837214 980.81146096 650.73594453 980.82497529 C631.77270018 980.84986401 612.80948403 980.8544053 593.84622597 980.85250932 C579.1990424 980.85113529 564.55186859 980.85495859 549.90468693 980.86243439 C547.7989674 980.86348473 545.69324787 980.86453235 543.58752834 980.86557725 C542.54222316 980.86609659 541.49691798 980.86661594 540.41993688 980.86715102 C539.37269692 980.86767116 538.32545695 980.8681913 537.24648243 980.86872721 C536.19746263 980.8692512 535.14844282 980.86977519 534.06763454 980.87031506 C504.56860029 980.8848955 475.06956962 980.89318217 445.57053185 980.88856506 C444.45880902 980.88839311 443.3470862 980.88822115 442.2016748 980.88804399 C436.56727542 980.88715512 430.93287605 980.88621031 425.29847669 980.88524598 C424.17950808 980.88505495 423.06053948 980.88486391 421.90766273 980.88466709 C419.6448362 980.88428 417.38200967 980.88388967 415.11918314 980.88349611 C379.91917281 980.87752772 344.71922825 980.89295845 309.51923275 980.92510223 C269.95208524 980.96120353 230.38497942 980.98050848 190.81781441 980.97556353 C186.59621243 980.97509357 182.37461045 980.97468331 178.15300846 980.97431183 C176.5938656 980.97415825 176.5938656 980.97415825 175.0032249 980.97400157 C159.33234279 980.97280822 143.66150583 980.98475471 127.99063587 981.00345612 C110.15999853 981.02472495 92.3294557 981.02851058 74.4988141 981.00915653 C64.52948143 980.99885453 54.56037952 981.00223843 44.59106787 981.02568738 C37.91947869 981.03998365 31.24805917 981.03587595 24.57648126 981.01724161 C20.78332029 981.00715136 16.99060641 981.00459555 13.19747441 981.0245623 C-19.59074323 981.18558223 -49.36841297 974.23273362 -75.43950748 953.38311005 C-75.98461979 952.95014618 -76.52973209 952.51718231 -77.09136295 952.07109833 C-103.71834968 930.73237229 -120.65088295 901.00838279 -126.43950748 867.38311005 C-126.81789317 862.89587561 -126.84750561 858.4449468 -126.82261753 853.94360256 C-126.82757705 852.66070651 -126.83253656 851.37781046 -126.83764637 850.05603877 C-126.85087668 846.52309786 -126.84571462 842.9903964 -126.83731287 839.45744975 C-126.83147256 835.60309959 -126.84307599 831.74879345 -126.85237455 827.89445549 C-126.86625173 821.14821721 -126.86903073 814.40204599 -126.86441517 807.65579605 C-126.85756922 797.62335904 -126.8678584 787.59098967 -126.88137273 777.55856206 C-126.90626144 758.59531772 -126.91080274 739.63210156 -126.90890676 720.6688435 C-126.90753272 706.02165993 -126.91135603 691.37448612 -126.91883183 676.72730446 C-126.91988217 674.62158493 -126.92092979 672.5158654 -126.92197469 670.41014587 C-126.92249403 669.36484069 -126.92301338 668.31953551 -126.92354846 667.24255442 C-126.9240686 666.19531445 -126.92458874 665.14807448 -126.92512465 664.06909996 C-126.92564864 663.02008016 -126.92617263 661.97106035 -126.9267125 660.89025207 C-126.94129294 631.39121782 -126.94957961 601.89218715 -126.9449625 572.39314938 C-126.94479055 571.28142655 -126.94461859 570.16970373 -126.94444143 569.02429233 C-126.94355256 563.38989295 -126.94260775 557.75549359 -126.94164342 552.12109422 C-126.94145238 551.00212561 -126.94126135 549.88315701 -126.94106453 548.73028026 C-126.94067744 546.46745373 -126.94028711 544.2046272 -126.93989355 541.94180067 C-126.93392515 506.74179034 -126.94935589 471.54184578 -126.98149967 436.34185028 C-127.01760097 396.77470277 -127.03690592 357.20759696 -127.03196096 317.64043194 C-127.031491 313.41882996 -127.03108075 309.19722798 -127.03070927 304.97562599 C-127.03060688 303.93619742 -127.03050449 302.89676884 -127.03039901 301.82584243 C-127.02920565 286.15496032 -127.04115215 270.48412336 -127.05985355 254.8132534 C-127.08112239 236.98261606 -127.08490802 219.15207323 -127.06555396 201.32143163 C-127.05525196 191.35209896 -127.05863586 181.38299705 -127.08208482 171.4136854 C-127.09638109 164.74209622 -127.09227339 158.0706767 -127.07363905 151.39909879 C-127.06354879 147.60593782 -127.06099299 143.81322394 -127.08095974 140.02009194 C-127.27478977 100.49305703 -115.71990492 67.97961377 -88.77935123 38.71904755 C-84.62105599 34.56769436 -80.09236473 30.96072717 -75.43950748 27.38311005 C-74.62224186 26.72697723 -73.80497623 26.07084442 -72.96294498 25.3948288 C-52.33132256 9.45801828 -26.07533491 -0.14417138 0 0 Z " fill="#FEFEFE" transform="translate(126.43950748443604,-0.38311004638671875)"/>
<path d="M0 0 C1.08893555 -0.01023193 2.17787109 -0.02046387 3.29980469 -0.03100586 C10.548305 0.04768648 16.87593701 1.16455834 23.75 3.4375 C24.42804688 3.65639893 25.10609375 3.87529785 25.8046875 4.10083008 C38.03359157 8.25107917 48.09089825 14.84748629 57.52348328 23.62432861 C58.35128265 24.39228032 58.35128265 24.39228032 59.19580525 25.1757462 C67.23666188 32.69659578 74.97390857 40.53037156 82.74926758 48.32324219 C84.52434649 50.09860374 86.29964675 51.873744 88.07514954 53.64868164 C91.87150699 57.44481286 95.66634651 61.24245127 99.45975685 65.04152679 C104.94415073 70.53410581 110.431359 76.02386629 115.91922148 81.51297942 C124.82644607 90.4223836 133.73144302 99.33401079 142.63500977 108.24707031 C151.27542791 116.89669099 159.91691326 125.54524322 168.55981445 134.19238281 C169.09405825 134.72688933 169.62830205 135.26139586 170.17873506 135.81209955 C172.85933235 138.49400204 175.53995041 141.17588377 178.22057879 143.85775518 C200.4002722 166.04778714 222.57630024 188.24147872 244.75 210.4375 C247.73767763 209.09505579 249.81971455 207.61533644 252.12632656 205.29888916 C252.77766864 204.64967908 253.42901072 204.000469 254.10009044 203.33158588 C254.80717885 202.61662543 255.51426726 201.90166498 256.24278259 201.16503906 C257.00065223 200.40676158 257.75852186 199.6484841 258.53935724 198.86722851 C261.08561162 196.31723451 263.62464193 193.76016557 266.16381836 191.203125 C267.98520541 189.37626398 269.80705506 187.54986408 271.6293335 185.72389221 C275.55836862 181.78566911 279.48388576 177.84396754 283.4072094 173.90005493 C289.09230257 168.1854052 294.78436191 162.4777339 300.478427 156.77202523 C309.73314632 147.4982841 318.98449416 138.22118841 328.23266602 128.94091797 C328.78623894 128.38542711 329.33981186 127.82993626 329.91015971 127.25761235 C336.07577327 121.0704867 342.24056417 114.88254236 348.40441895 108.69366455 C350.63426854 106.45478453 352.86412495 104.21591129 355.09399414 101.97705078 C355.9192447 101.14846774 355.9192447 101.14846774 356.76116698 100.30314565 C365.96210536 91.06537906 375.16894919 81.83352252 384.38036829 72.60620689 C390.05359332 66.92268996 395.72175845 61.23421895 401.38334734 55.53911024 C405.73462223 51.16291187 410.09374827 46.79461117 414.45570374 42.42905998 C416.23478956 40.64597726 418.01130867 38.86032904 419.78495979 37.07184029 C443.70862103 12.95540823 443.70862103 12.95540823 457.375 7 C458.035 6.68869141 458.695 6.37738281 459.375 6.05664062 C469.55915055 1.42304722 479.10197049 -0.05035969 490.25 0.0625 C491.39597656 0.05089844 492.54195312 0.03929687 493.72265625 0.02734375 C501.19690274 0.05285312 507.66974378 1.06463435 514.75 3.4375 C515.42708008 3.65647949 516.10416016 3.87545898 516.80175781 4.10107422 C526.61443067 7.42472148 534.5578601 12.14200616 542.75 18.4375 C543.43707031 18.95183594 544.12414062 19.46617187 544.83203125 19.99609375 C558.66474121 31.0185466 568.1988899 49.06715137 570.75 66.4375 C571.04463899 72.13345206 571.02034484 77.82241766 571.00396729 83.52467346 C571.0062734 85.27153129 571.00945094 87.01838815 571.01342177 88.76524299 C571.02175754 93.55235617 571.01765002 98.33938943 571.01144934 103.12650287 C571.00692092 108.29424061 571.01391053 113.46196469 571.01940918 118.62969971 C571.02830045 128.74784314 571.0263824 138.86595689 571.0205839 148.98410148 C571.01606663 157.20702876 571.01545479 165.42994773 571.01763153 173.6528759 C571.017938 174.82332451 571.01824446 175.99377312 571.01856022 177.19968988 C571.01919967 179.57744122 571.01984809 181.95519257 571.0205054 184.33294391 C571.02620785 206.62654972 571.019652 228.92013908 571.00890467 251.21374219 C570.99996806 270.34359352 571.00152227 289.47342059 571.01074219 308.60327148 C571.02144429 330.8188134 571.02565977 353.03434089 571.01951766 375.24988502 C571.01888056 377.61856997 571.01825182 379.98725492 571.01763153 382.35593987 C571.01732298 383.52137792 571.01701443 384.68681598 571.01669653 385.88757034 C571.0149695 394.10134092 571.01788484 402.31510237 571.02259064 410.52887154 C571.02819874 420.53756916 571.02668442 430.54623541 571.01602915 440.55492944 C571.0107717 445.66169759 571.008717 450.76841343 571.01532745 455.8751812 C571.02128736 460.55006243 571.01801105 465.22484285 571.00737235 469.89971494 C571.00513853 471.59069315 571.00627422 473.28167989 571.01112393 474.97265262 C571.0172141 477.2725923 571.01095861 479.57218761 571.00168228 481.87210941 C571.00135758 483.14916659 571.00103287 484.42622378 571.00069833 485.74197966 C570.11990073 498.72573375 563.47686046 511.82768182 553.75 520.4375 C516.11527606 549.88816493 442.49974323 532.4375 410.75 532.4375 C410.42 447.9575 410.09 363.4775 409.75 276.4375 C374.49748214 311.84812972 374.49748214 311.84812972 339.26708984 347.28076172 C332.41137695 354.15454102 332.41137695 354.15454102 329.18984985 357.37942505 C326.96135078 359.61162048 324.73853448 361.84930435 322.51919556 364.09060669 C319.67324852 366.96433595 316.81745691 369.82794497 313.95478177 372.68500733 C312.91513102 373.72582879 311.87875161 374.76993294 310.84638286 375.81797767 C301.56595966 385.23253054 291.21909237 393.92740502 279.0625 399.375 C277.35513672 400.16197266 277.35513672 400.16197266 275.61328125 400.96484375 C265.81343648 404.87903318 256.84034082 405.91124994 246.3125 405.8125 C245.07951172 405.82410156 243.84652344 405.83570313 242.57617188 405.84765625 C213.17784856 405.75447614 193.90485045 388.78235414 174.15966797 368.96069336 C173.12739714 367.9281153 172.0949047 366.89575877 171.06221199 365.86360264 C168.32779526 363.12940924 165.59637341 360.39224339 162.86561584 357.65439606 C160.29115873 355.07419201 157.7139402 352.49675449 155.13696289 349.91906738 C147.63023397 342.40711664 140.1278768 334.89079821 132.625 327.375 C115.83625 310.565625 99.0475 293.75625 81.75 276.4375 C81.255 403.1575 81.255 403.1575 80.75 532.4375 C-48.65 532.4375 -48.65 532.4375 -63.25 519.4375 C-73.68709432 508.86849928 -79.3633711 496.99299772 -79.38422108 482.13496494 C-79.38657331 481.41835376 -79.38892554 480.70174257 -79.39134905 479.96341589 C-79.39800707 477.56165989 -79.39758179 475.1599584 -79.39717102 472.75819397 C-79.40047164 471.01891464 -79.40419763 469.27963608 -79.4083125 467.54035848 C-79.41831812 462.76000691 -79.42204698 457.97966789 -79.42470181 453.19930732 C-79.42860914 448.04365308 -79.43818719 442.88800875 -79.44691467 437.73236084 C-79.46666714 425.28084455 -79.47674383 412.82932746 -79.48564246 400.37779942 C-79.49002742 394.51164091 -79.4953937 388.64548329 -79.50063133 382.77932549 C-79.51764252 363.27449894 -79.53213615 343.76967295 -79.53938007 324.26484013 C-79.54128991 319.20447349 -79.54321025 314.14410685 -79.54516602 309.08374023 C-79.54564976 307.82603785 -79.5461335 306.56833547 -79.5466319 305.27252089 C-79.55493019 284.90374956 -79.58026424 264.53503699 -79.61274669 244.1662913 C-79.64583608 223.24610817 -79.66383054 202.32595488 -79.66702431 181.40574545 C-79.66918768 169.66310477 -79.67791103 157.92054979 -79.70348549 146.17793465 C-79.72521814 136.17630117 -79.73323026 126.1747742 -79.72351871 116.17311979 C-79.71898146 111.07354051 -79.72082684 105.97418088 -79.74028015 100.87463188 C-79.75796565 96.19794275 -79.75687057 91.52163263 -79.74138286 86.84493916 C-79.73901495 85.16114346 -79.74328753 83.47732114 -79.75521151 81.793566 C-79.89400147 60.88517665 -74.19914473 43.43714013 -60.25 27.4375 C-59.78207031 26.82648438 -59.31414062 26.21546875 -58.83203125 25.5859375 C-48.89549449 12.82287856 -31.48699063 3.46295795 -15.6796875 0.73046875 C-10.46799198 0.10204887 -5.24419459 0.03807105 0 0 Z " fill="#EB4132" transform="translate(244.25,223.5625)"/>
<path d="M0 0 C0.33 0 0.66 0 1 0 C1.15855469 0.65484375 1.31710938 1.3096875 1.48046875 1.984375 C7.68904195 26.26984365 22.12480795 41.29828986 39.33422852 58.43188477 C40.63330667 59.72903841 41.9321534 61.02642386 43.23078918 62.32402039 C46.00167257 65.09177059 48.77409406 67.85796697 51.54776192 70.62292671 C55.93322811 74.99476188 60.31477988 79.37050647 64.69578552 83.74681091 C73.98171131 93.02169323 83.27189811 102.29230209 92.5625 111.5625 C102.62606899 121.60402109 112.68887939 131.64629596 122.74684662 141.69342846 C127.10362992 146.04522852 131.46283936 150.39457923 135.82392037 154.74207222 C138.52751435 157.43822306 141.22904941 160.1364296 143.93002129 162.83520699 C145.18448954 164.08779914 146.43982393 165.33952453 147.69607544 166.59032822 C149.40711633 168.29417995 151.11506986 170.00106765 152.82228088 171.70875549 C153.32255706 172.20543671 153.82283323 172.70211792 154.33826929 173.21385008 C157.92826327 176.8146402 160.25113629 179.20405708 160.24609566 184.3984251 C160.25007775 185.30311431 160.25405985 186.20780351 160.25816262 187.13990754 C160.25233693 188.13503367 160.24651125 189.13015981 160.24050903 190.15544128 C160.24221788 191.21156107 160.24392673 192.26768085 160.24568737 193.35580426 C160.24899444 196.91199411 160.23795845 200.46799731 160.22705078 204.02416992 C160.22648693 206.56645198 160.22680271 209.10873437 160.22793579 211.65101624 C160.22839195 217.13328128 160.22270121 222.61548569 160.21146011 228.09773827 C160.19521789 236.02417819 160.18999842 243.95059508 160.18748413 251.87704984 C160.18310502 264.73664978 160.16979005 277.59622437 160.15087891 290.45581055 C160.1325257 302.94897332 160.11836646 315.44212921 160.10986328 327.93530273 C160.10933783 328.70515942 160.10881239 329.47501611 160.10827102 330.26820179 C160.10566098 334.13028023 160.10313355 337.99235871 160.10064721 341.85443723 C160.07990798 373.90297658 160.04467657 405.95148477 160 438 C144.57856486 438.11719869 129.15716338 438.20516603 113.73538685 438.25906086 C106.57352047 438.28475894 99.41193203 438.31974674 92.25024414 438.37719727 C86.00252906 438.42729175 79.75501542 438.45935192 73.50710505 438.47044247 C70.20378471 438.4769178 66.90116918 438.4946468 63.59800148 438.52865028 C44.7949052 438.71442137 30.67611418 438.0677729 16 425 C5.72744871 414.59762183 -0.12769742 402.75765119 -0.12304783 388.09285164 C-0.12420167 387.41902097 -0.12535552 386.7451903 -0.12654433 386.05094051 C-0.12918951 383.79485041 -0.12470616 381.53883179 -0.12025452 379.28274536 C-0.12069065 377.64827072 -0.12156633 376.01379614 -0.12284368 374.37932193 C-0.12508041 369.88924744 -0.12107856 365.39919678 -0.11606562 360.90912533 C-0.11174954 356.06664976 -0.11320837 351.22417556 -0.1139679 346.38169861 C-0.11449239 337.99220587 -0.1113533 329.60272091 -0.10573006 321.21323013 C-0.09760506 309.08341518 -0.09499881 296.95360398 -0.09374207 284.8237866 C-0.09155312 265.14424102 -0.0848973 245.46469958 -0.07543945 225.78515625 C-0.06626127 206.66764344 -0.05918242 187.55013176 -0.05493164 168.43261719 C-0.05466892 167.25433028 -0.05440619 166.07604336 -0.05413551 164.86205079 C-0.05283048 158.95096645 -0.05156677 153.03988211 -0.05032361 147.12879777 C-0.0399559 98.08586232 -0.02234185 49.04293136 0 0 Z " fill="#4284F4" transform="translate(165,318)"/>
<path d="M0 0 C0.33 0 0.66 0 1 0 C1.04576549 50.18448649 1.08101314 100.36897088 1.10213066 150.55347413 C1.10463211 156.47656742 1.10722075 162.39966067 1.10986328 168.32275391 C1.1103879 169.50194826 1.11091252 170.68114261 1.11145304 171.89607012 C1.12015855 190.9960244 1.13592934 210.09596665 1.15430559 229.19591379 C1.17300055 248.79036669 1.18411587 268.38481329 1.18817699 287.97927475 C1.19092288 300.07265378 1.19959946 312.16599883 1.21583293 324.25936741 C1.22639482 332.54926756 1.22960243 340.83915012 1.22700275 349.12905651 C1.22572023 353.91375049 1.22770332 358.69838502 1.23841095 363.48306847 C1.24814368 367.86408653 1.24863472 372.24500518 1.24179779 376.62602782 C1.24095278 378.21028012 1.24348964 379.79453861 1.24976636 381.3787787 C1.31031495 397.60576093 -2.1181384 411.99195709 -13.7890625 424.04296875 C-30.16407302 438.53745686 -47.45155243 438.70583172 -68.1796875 438.48828125 C-70.80526045 438.47894132 -73.43084218 438.4718308 -76.056427 438.46684265 C-82.22563879 438.45140716 -88.39439853 438.41052145 -94.56341279 438.3600952 C-101.5961875 438.30387731 -108.62898576 438.27663443 -115.66192985 438.25161803 C-130.10818458 438.19959386 -144.55408595 438.11185612 -159 438 C-163.28257906 398.61035928 -166.19000097 359.21186675 -167.78414744 319.62684363 C-167.8446113 318.12820511 -167.90584585 316.62959748 -167.96785909 315.13102227 C-170.93241074 243.43684412 -172.00693823 178.60413568 -120.62456107 122.76186585 C-110.49368909 111.99008153 -99.62386038 102.09476742 -88.4375 92.4375 C-87.17522347 91.34437705 -87.17522347 91.34437705 -85.8874464 90.2291708 C-67.00076236 73.92220328 -47.54545226 58.38576002 -26.88258171 44.376791 C-12.15703563 34.263547 -4.2066967 19.28437623 -0.3125 1.9375 C-0.1578125 0.9784375 -0.1578125 0.9784375 0 0 Z " fill="#00AE45" transform="translate(814,318)"/>
<path d="M0 0 C1.14597656 -0.01160156 2.29195312 -0.02320313 3.47265625 -0.03515625 C10.94690274 -0.00964688 17.41974378 1.00213435 24.5 3.375 C25.17708008 3.59397949 25.85416016 3.81295898 26.55175781 4.03857422 C36.36443067 7.36222148 44.3078601 12.07950616 52.5 18.375 C53.53060547 19.14650391 53.53060547 19.14650391 54.58203125 19.93359375 C66.14061404 29.14393173 74.45053211 43.30741723 78.5 57.375 C78.67732666 57.9844043 78.85465332 58.59380859 79.03735352 59.22167969 C80.8430737 66.19383292 80.83158232 73.08268158 80.8125 80.25 C80.82861328 81.45269531 80.84472656 82.65539062 80.86132812 83.89453125 C80.87601756 110.95247755 65.49652361 129.43763294 47.39325452 147.61577463 C45.58581369 149.42476005 43.77610508 151.23145748 41.96630859 153.03808594 C40.64592254 154.35983066 39.32574851 155.68178722 38.00576782 157.00393677 C34.45919629 160.55502235 30.90952367 164.10299212 27.35909986 167.65022564 C23.63451074 171.37226561 19.91238158 175.09676439 16.18984985 178.82086182 C9.95306844 185.05945501 3.71419767 191.29595288 -2.52587891 197.53125 C-9.74717795 204.74708203 -16.96483215 211.96654484 -24.18065512 219.18785262 C-30.38622323 225.39794891 -36.59372543 231.60610685 -42.8028692 237.81262803 C-46.5076953 241.51589309 -50.2118374 245.21983551 -53.91423416 248.92552948 C-57.38401483 252.39818545 -60.85620692 255.86841166 -64.33032608 259.33672714 C-65.6079352 260.61300794 -66.8846829 261.89015169 -68.16053009 263.16819382 C-69.89359921 264.90397096 -71.62967893 266.63667765 -73.36660767 268.36859131 C-73.87757858 268.88179294 -74.38854949 269.39499458 -74.91500437 269.92374778 C-78.38584843 273.375 -78.38584843 273.375 -79.5 273.375 C-80.22359176 245.02861151 -80.80998046 216.68242162 -81.20988084 188.32950548 C-81.25740888 184.9681907 -81.30608386 181.60689345 -81.35546875 178.24560547 C-81.36527944 177.5765466 -81.37509012 176.90748773 -81.3851981 176.21815436 C-81.54595502 165.4407972 -81.79918483 154.66755615 -82.08777811 143.89295049 C-82.38270086 132.80350712 -82.5735608 121.71562189 -82.67726791 110.62274873 C-82.73860283 104.4039377 -82.84445258 98.19367109 -83.06378555 91.97826004 C-84.50591897 49.67218382 -84.50591897 49.67218382 -73.36874902 36.84060371 C-68.20237538 31.38684592 -62.402831 26.8632876 -56.23817205 22.6037612 C-53.22232025 20.47177336 -50.33774046 18.17052409 -47.43338013 15.89028931 C-42.78001264 12.25703792 -38.28083451 9.29320456 -32.875 6.9375 C-32.215 6.62619141 -31.555 6.31488281 -30.875 5.99414062 C-20.69084945 1.36054722 -11.14802951 -0.11285969 0 0 Z " fill="#FEBB00" transform="translate(734.5,223.625)"/>
<path d="M0 0 C1.08893555 -0.01023193 2.17787109 -0.02046387 3.29980469 -0.03100586 C10.548305 0.04768648 16.87593701 1.16455834 23.75 3.4375 C24.42804688 3.65639893 25.10609375 3.87529785 25.8046875 4.10083008 C41.41768352 9.3995733 53.12975877 19.09576042 64.75 30.4375 C65.41483398 31.08187012 66.07966797 31.72624023 66.76464844 32.39013672 C68.85152252 34.41836896 70.92796694 36.45661484 73 38.5 C73.98492432 39.46510498 73.98492432 39.46510498 74.98974609 40.44970703 C75.59641113 41.05540527 76.20307617 41.66110352 76.828125 42.28515625 C77.36856445 42.82148682 77.90900391 43.35781738 78.46582031 43.91040039 C81.67032904 47.7210852 80.88607314 52.6164219 80.87025452 57.3021698 C80.87153615 58.6780883 80.87153615 58.6780883 80.87284368 60.08180314 C80.87449619 63.16808043 80.86898082 66.25430386 80.86352539 69.34057617 C80.86324344 71.54788715 80.8634014 73.75519823 80.8639679 75.96250916 C80.86425558 81.96628044 80.85836355 87.97003186 80.85139394 93.97379851 C80.84515555 100.24386861 80.84455622 106.51393912 80.84336853 112.78401184 C80.84061052 123.31165912 80.83435831 133.83929987 80.82543945 144.36694336 C80.81626207 155.21101851 80.80918283 166.05509167 80.80493164 176.89916992 C80.80466892 177.56746876 80.80440619 178.2357676 80.80413551 178.92431792 C80.80283048 182.27693796 80.80156677 185.62955802 80.80032361 188.98217809 C80.78986246 216.80062382 80.77226578 244.6190614 80.75 272.4375 C76.73487388 270.8262321 74.03198887 268.00175418 71.03910828 264.98730469 C70.47301576 264.42503772 69.90692324 263.86277075 69.32367641 263.28346539 C67.4267324 261.39684543 65.53701901 259.50314678 63.6472168 257.609375 C62.28895076 256.25545598 60.93026728 254.90195562 59.57119751 253.54884338 C55.87826063 249.8693146 52.19177435 246.18338644 48.50680137 242.49588394 C45.42742025 239.41543349 42.34506841 236.33796414 39.2627576 233.26044559 C31.98571601 225.99450728 24.71402602 218.72324319 17.44555664 211.44873047 C9.9585207 203.95566485 2.46238026 196.4717979 -5.03832561 188.99241829 C-11.48381183 182.56458219 -17.92343881 176.13091672 -24.35848111 169.69262505 C-28.19894933 165.85034792 -32.04158464 162.01030493 -35.88991737 158.17590332 C-39.5138916 154.5645568 -43.13045895 150.94594919 -46.74161911 147.3217907 C-48.06320231 145.99785222 -49.38731146 144.67642928 -50.71421242 143.35782051 C-68.64278313 125.53316947 -79.42667533 106.75516114 -79.5625 81.0625 C-79.57454294 60.06764489 -74.20379155 43.44247002 -60.25 27.4375 C-59.78207031 26.82648438 -59.31414062 26.21546875 -58.83203125 25.5859375 C-48.89549449 12.82287856 -31.48699063 3.46295795 -15.6796875 0.73046875 C-10.46799198 0.10204887 -5.24419459 0.03807105 0 0 Z " fill="#C6221D" transform="translate(244.25,223.5625)"/>
<path d="M0 0 C0.66 0.33 1.32 0.66 2 1 C-3.28 6.28 -8.56 11.56 -14 17 C-14 11.79027084 -9.49956486 8.58109594 -6 5 C-4.05399166 3.22905099 -2.08162714 1.61326103 0 0 Z " fill="#CD3F3B" transform="translate(196,239)"/>
</svg>
