<?xml version="1.0" encoding="UTF-8"?>
<svg version="1.1" xmlns="http://www.w3.org/2000/svg" width="512" height="512">
<path d="M0 0 C0.69056066 -0.00175304 1.38112132 -0.00350607 2.09260806 -0.00531223 C4.39968113 -0.0099531 6.70669065 -0.00751169 9.01376629 -0.00507832 C10.68735022 -0.00694725 12.36093371 -0.00924828 14.03451651 -0.01194364 C18.62843889 -0.01805781 23.22234305 -0.01792849 27.81626856 -0.01674926 C32.77275951 -0.01654516 37.72924462 -0.02206491 42.68573284 -0.02680683 C52.39439718 -0.03511175 62.10305544 -0.0378616 71.81172303 -0.03841921 C79.70334827 -0.03889443 87.5949715 -0.04094946 95.48659611 -0.04411983 C117.86161999 -0.05292582 140.23663907 -0.05753927 162.61166469 -0.05678936 C163.81779984 -0.0567494 165.02393498 -0.05670945 166.26661968 -0.05666828 C168.07803166 -0.05660696 168.07803166 -0.05660696 169.92603781 -0.0565444 C189.49948751 -0.0561379 209.07291797 -0.06570858 228.6463621 -0.07980665 C248.74503393 -0.09416878 268.84369637 -0.10107693 288.94237345 -0.10021287 C300.22594305 -0.09988086 311.50949247 -0.10263 322.79305744 -0.11339092 C332.39953382 -0.12249375 342.00598088 -0.12467293 351.6124597 -0.1178815 C356.51288753 -0.11461527 361.41325911 -0.11456339 366.3136816 -0.12323475 C370.8024692 -0.13109598 375.29115592 -0.12967214 379.77994104 -0.12095062 C381.40103 -0.11941481 383.02212648 -0.12123483 384.64320657 -0.12681069 C404.82456327 -0.19161131 420.08862288 4.08805394 435.1111021 18.2887907 C446.37821583 30.25060123 451.94519528 43.97868684 451.95458031 60.3026886 C451.95633334 60.99324926 451.95808638 61.68380992 451.95989254 62.39529666 C451.96453341 64.70236973 451.962092 67.00937925 451.95965862 69.31645489 C451.96152756 70.99003882 451.96382859 72.66362231 451.96652395 74.33720511 C451.97263812 78.93112748 451.9725088 83.52503165 451.97132957 88.11895716 C451.97112547 93.07544811 451.97664522 98.03193322 451.98138714 102.98842144 C451.98969205 112.69708578 451.9924419 122.40574404 451.99299952 132.11441163 C451.99347473 140.00603687 451.99552976 147.8976601 451.99870014 155.78928471 C452.00750612 178.16430858 452.01211958 200.53932767 452.01136967 222.91435329 C452.01130973 224.72355601 452.01130973 224.72355601 452.01124859 226.56930828 C452.01118727 228.38072025 452.01118727 228.38072025 452.01112471 230.22872641 C452.01071821 249.80217611 452.02028889 269.37560657 452.03438696 288.9490507 C452.04874909 309.04772253 452.05565723 329.14638497 452.05479318 349.24506205 C452.05446116 360.52863164 452.05721031 371.81218107 452.06797123 383.09574604 C452.07707406 392.70222241 452.07925324 402.30866948 452.07246181 411.9151483 C452.06919557 416.81557612 452.0691437 421.71594771 452.07781506 426.6163702 C452.08567628 431.1051578 452.08425244 435.59384452 452.07553092 440.08262964 C452.07399512 441.7037186 452.07581514 443.32481508 452.081391 444.94589517 C452.14619161 465.12725187 447.86652637 480.39131148 433.6657896 495.4137907 C421.70397908 506.68090443 407.97589346 512.24788388 391.65189171 512.25726891 C390.96133105 512.25902194 390.27077039 512.26077498 389.55928364 512.26258114 C387.25221057 512.26722201 384.94520106 512.26478059 382.63812542 512.26234722 C380.96454149 512.26421616 379.290958 512.26651719 377.6173752 512.26921254 C373.02345282 512.27532671 368.42954866 512.2751974 363.83562315 512.27401817 C358.8791322 512.27381407 353.92264709 512.27933381 348.96615887 512.28407574 C339.25749453 512.29238065 329.54883627 512.2951305 319.84016868 512.29568812 C311.94854344 512.29616333 304.0569202 512.29821836 296.1652956 512.30138874 C273.79027172 512.31019472 251.41525264 512.31480818 229.04022702 512.31405827 C227.83409187 512.31401831 226.62795672 512.31397835 225.38527203 512.31393719 C224.17766404 512.31389631 222.97005606 512.31385543 221.7258539 512.31381331 C202.1524042 512.31340681 182.57897374 512.32297749 163.0055296 512.33707555 C142.90685778 512.35143769 122.80819534 512.35834583 102.70951825 512.35748178 C91.42594866 512.35714976 80.14239924 512.3598989 68.85883427 512.37065983 C59.25235789 512.37976266 49.64591083 512.38194184 40.03943201 512.3751504 C35.13900418 512.37188417 30.23863259 512.3718323 25.33821011 512.38050365 C20.84942251 512.38836488 16.36073579 512.38694104 11.87195066 512.37821952 C10.2508617 512.37668372 8.62976523 512.37850374 7.00868513 512.3840796 C-13.17267156 512.44888021 -28.43673118 508.16921497 -43.4592104 493.9684782 C-54.72632412 482.00666768 -60.29330357 468.27858206 -60.3026886 451.95458031 C-60.30444164 451.26401965 -60.30619467 450.57345898 -60.30800083 449.86197224 C-60.3126417 447.55489917 -60.31020029 445.24788966 -60.30776691 442.94081402 C-60.30963585 441.26723009 -60.31193688 439.5936466 -60.31463224 437.92006379 C-60.32074641 433.32614142 -60.32061709 428.73223726 -60.31943786 424.13831174 C-60.31923376 419.1818208 -60.32475351 414.22533569 -60.32949543 409.26884747 C-60.33780034 399.56018313 -60.3405502 389.85152487 -60.34110781 380.14285728 C-60.34158302 372.25123204 -60.34363805 364.3596088 -60.34680843 356.4679842 C-60.35561442 334.09296032 -60.36022787 311.71794124 -60.35947796 289.34291562 C-60.359438 288.13678047 -60.35939805 286.93064532 -60.35935688 285.68796062 C-60.359316 284.48035264 -60.35927512 283.27274466 -60.359233 282.0285425 C-60.3588265 262.4550928 -60.36839718 242.88166234 -60.38249525 223.3082182 C-60.39685738 203.20954638 -60.40376553 183.11088394 -60.40290147 163.01220685 C-60.40256945 151.72863726 -60.4053186 140.44508784 -60.41607952 129.16152287 C-60.42518235 119.55504649 -60.42736153 109.94859943 -60.4205701 100.34212061 C-60.41730387 95.44169278 -60.41725199 90.54132119 -60.42592335 85.6408987 C-60.43378457 81.15211111 -60.43236074 76.66342439 -60.42363922 72.17463926 C-60.42210341 70.5535503 -60.42392343 68.93245383 -60.42949929 67.31137373 C-60.49429991 47.13001704 -56.21463466 31.86595742 -42.0138979 16.8434782 C-30.05208737 5.57636448 -16.32400176 0.00938503 0 0 Z " fill="#00427C" transform="translate(60.17405414581299,-0.12863445281982422)"/>
<path d="M0 0 C2.06430141 0.03686253 4.12680694 0.04101474 6.19140625 0.04052734 C16.86910392 0.09713262 26.97127204 1.0577379 36.80078125 5.41162109 C37.58066406 5.73775391 38.36054688 6.06388672 39.1640625 6.39990234 C46.17317873 9.57199071 51.38176302 14.00201089 56.80078125 19.41162109 C57.37828125 19.97751953 57.95578125 20.54341797 58.55078125 21.12646484 C67.46333601 30.61926405 71.80078125 43.6281346 71.80078125 56.41162109 C60.91078125 56.41162109 50.02078125 56.41162109 38.80078125 56.41162109 C37.15078125 52.45162109 35.50078125 48.49162109 33.80078125 44.41162109 C31.52950791 41.38752746 31.52950791 41.38752746 28.80078125 39.41162109 C27.93453125 38.71037109 27.06828125 38.00912109 26.17578125 37.28662109 C15.31551388 31.25313922 1.06547323 30.37567103 -10.88671875 33.66162109 C-16.44067121 35.68551902 -21.54600559 38.6969579 -25.29296875 43.36865234 C-27.61710177 48.60796946 -26.66082894 55.20181997 -25.86328125 60.74755859 C-25.64414062 61.29669922 -25.425 61.84583984 -25.19921875 62.41162109 C-24.20921875 62.74162109 -23.21921875 63.07162109 -22.19921875 63.41162109 C-21.27109375 64.37068359 -21.27109375 64.37068359 -20.32421875 65.34912109 C-17.9452679 67.6581028 -16.30873504 68.3060153 -13.19921875 69.41162109 C-11.82108976 70.02969106 -10.44644095 70.65554564 -9.07421875 71.28662109 C-5.82865588 72.7392468 -2.5710181 74.02810254 0.78125 75.21240234 C10.85533536 78.84446389 20.72343079 83.01139378 30.61865234 87.10009766 C33.31706325 88.21225535 36.0206975 89.30998491 38.7265625 90.40380859 C46.90057041 93.76757844 53.89849573 97.82291932 60.80078125 103.41162109 C61.38085938 103.82927734 61.9609375 104.24693359 62.55859375 104.67724609 C70.54201505 110.61256455 76.28508599 120.64527164 77.80078125 130.41162109 C79.01685669 148.0301387 76.80246211 161.53010624 65.1796875 175.33740234 C58.08825973 183.00702806 49.36346625 187.66414655 39.4296875 190.58740234 C36.86075265 191.29857276 36.86075265 191.29857276 34.91015625 192.44677734 C31.87305506 193.83596992 28.77317881 194.16269904 25.48828125 194.53662109 C24.75843018 194.62008789 24.0285791 194.70355469 23.27661133 194.78955078 C9.31975365 196.21002233 -5.47839614 196.71642138 -19.19921875 193.41162109 C-19.19921875 192.75162109 -19.19921875 192.09162109 -19.19921875 191.41162109 C-20.43671875 191.37037109 -21.67421875 191.32912109 -22.94921875 191.28662109 C-35.82978831 189.81051187 -47.56166983 180.30926837 -55.609375 170.59521484 C-63.89509818 159.21506925 -68.19921875 146.40216843 -68.19921875 132.41162109 C-56.97921875 132.41162109 -45.75921875 132.41162109 -34.19921875 132.41162109 C-33.20921875 136.37162109 -32.21921875 140.33162109 -31.19921875 144.41162109 C-28.08539085 152.7950039 -23.47401727 155.95716282 -15.49609375 159.66943359 C-2.11801594 164.67745749 14.29501211 164.62130088 27.33984375 158.79833984 C29.82708678 157.46855435 29.82708678 157.46855435 32.01171875 155.74365234 C33.80078125 154.41162109 33.80078125 154.41162109 35.80078125 154.41162109 C36.26484375 153.23599609 36.26484375 153.23599609 36.73828125 152.03662109 C37.80078125 149.41162109 37.80078125 149.41162109 38.80078125 147.41162109 C39.23851387 141.27318457 39.36027127 135.087012 36.80078125 129.41162109 C32.70680891 125.07495937 28.03145253 122.19800348 22.55078125 119.91162109 C21.81553223 119.59322266 21.0802832 119.27482422 20.32275391 118.94677734 C14.72195242 116.55628478 9.06254142 114.31285835 3.40234375 112.06787109 C2.65009521 111.76901001 1.89784668 111.47014893 1.12280273 111.16223145 C-2.66640037 109.65820744 -6.45882319 108.16363978 -10.25878906 106.68701172 C-17.61790501 103.80561988 -24.8282801 100.7504834 -31.90625 97.22802734 C-32.55151642 96.90765503 -33.19678284 96.58728271 -33.86160278 96.25720215 C-46.91887375 89.61083207 -57.24841607 80.95069565 -63.19921875 67.41162109 C-64.4813302 62.0278752 -64.45898994 56.73252375 -64.51171875 51.22412109 C-64.54072266 50.23347656 -64.56972656 49.24283203 -64.59960938 48.22216797 C-64.7036603 36.01619353 -59.87734496 27.70359878 -51.88671875 18.84912109 C-37.01082509 5.3570315 -19.89513916 -0.36613903 0 0 Z " fill="#FAFBFC" transform="translate(376.19921875,159.58837890625)"/>
<path d="M0 0 C2.11505094 0.0291444 4.22760359 0.02050742 6.34277344 0.00756836 C24.91406373 0.03575982 41.67195432 5.30725353 55.54589844 17.96655273 C65.62344624 28.48751264 70.48339844 41.09999913 70.48339844 55.46655273 C59.59339844 55.46655273 48.70339844 55.46655273 37.48339844 55.46655273 C35.83339844 51.50655273 34.18339844 47.54655273 32.48339844 43.46655273 C26.58496485 37.23424555 19.25306921 32.84086179 10.52734375 32.35839844 C8.24087941 32.29590583 5.95818792 32.2809415 3.67089844 32.27905273 C2.90197266 32.26680664 2.13304687 32.25456055 1.34082031 32.24194336 C-8.11949719 32.21799319 -17.04847555 34.48165646 -24.19628906 40.99780273 C-27.48177049 44.93295563 -28.39436837 48.74694685 -28.13769531 53.83374023 C-26.75515545 59.694318 -22.9806199 64.75706633 -18.06738281 68.16577148 C-15.65653011 69.3951956 -13.50410935 70.16876645 -10.89160156 70.84155273 C-7.26300215 71.8608893 -3.950021 73.11105695 -0.54785156 74.72827148 C7.13159063 78.27819013 15.02980755 81.24231001 22.92480469 84.27319336 C39.23072334 90.59644564 53.87730693 97.12263298 66.48339844 109.46655273 C67.0725 110.01956055 67.66160156 110.57256836 68.26855469 111.14233398 C76.61541685 119.74536583 78.17819975 130.62138333 78.00683594 142.078125 C77.40913116 156.63195972 71.95971916 168.82237729 61.37792969 178.83764648 C55.9941898 183.46655273 55.9941898 183.46655273 52.48339844 183.46655273 C52.48339844 184.12655273 52.48339844 184.78655273 52.48339844 185.46655273 C48.93959407 188.21014321 45.44203938 189.07613687 41.15136719 189.93139648 C38.01486944 190.56053293 34.90926313 191.29419927 31.79589844 192.02905273 C10.09956332 197.14186431 -17.5651654 197.42170495 -37.51660156 186.46655273 C-41.39890549 184.02836695 -44.99029916 181.3936142 -48.51660156 178.46655273 C-49.16113281 177.93545898 -49.80566406 177.40436523 -50.46972656 176.85717773 C-60.26015688 167.94876817 -65.93190047 155.25336726 -68.51660156 142.46655273 C-68.51660156 139.16655273 -68.51660156 135.86655273 -68.51660156 132.46655273 C-57.29660156 132.46655273 -46.07660156 132.46655273 -34.51660156 132.46655273 C-34.02160156 137.91155273 -34.02160156 137.91155273 -33.51660156 143.46655273 C-30.55084208 150.55732621 -25.02483663 155.60925181 -18.32910156 159.15405273 C-5.72745805 163.93398648 11.03549255 164.92939809 23.79589844 160.34155273 C29.62681537 157.68841058 34.43655877 154.67030177 37.92089844 149.21655273 C39.35292804 142.21551912 39.47322179 134.62158971 35.48339844 128.46655273 C28.80576735 122.43988569 20.68901068 119.15574415 12.42327881 115.95419312 C10.30950269 115.13510565 8.20279887 114.29974976 6.09716797 113.45996094 C3.24620939 112.32403118 0.39328174 111.19335221 -2.46191406 110.06811523 C-52.09236189 90.49009863 -52.09236189 90.49009863 -61.51660156 72.46655273 C-66.59007769 60.04632186 -67.64298144 46.87116868 -62.76660156 34.23999023 C-57.29966553 22.1102259 -49.64206375 14.24874814 -37.82910156 8.15405273 C-37.2311377 7.84064941 -36.63317383 7.52724609 -36.01708984 7.2043457 C-24.43985746 1.59994679 -12.69224816 -0.19011844 0 0 Z " fill="#FBFCFD" transform="translate(129.5166015625,159.533447265625)"/>
<path d="M0 0 C11.55 0 23.1 0 35 0 C35 62.04 35 124.08 35 188 C23.45 188 11.9 188 0 188 C0 125.96 0 63.92 0 0 Z " fill="#F6F8FA" transform="translate(240,163)"/>
<path d="M0 0 C0.66 0.33 1.32 0.66 2 1 C1.43410156 1.54269531 0.86820313 2.08539063 0.28515625 2.64453125 C-0.44832031 3.35996094 -1.18179688 4.07539063 -1.9375 4.8125 C-2.66839844 5.52019531 -3.39929688 6.22789062 -4.15234375 6.95703125 C-7.09862951 10.2147637 -7.11720567 12.97516317 -7.0625 17.1875 C-7.05347656 18.08855469 -7.04445313 18.98960937 -7.03515625 19.91796875 C-7.02355469 20.60503906 -7.01195313 21.29210937 -7 22 C-9.42868849 19.57131151 -9.37537649 18.7294496 -9.5 15.375 C-9.40675985 9.52629992 -7.07613213 6.04637934 -3 2 C-2.01 1.34 -1.02 0.68 0 0 Z " fill="#4F7CA4" transform="translate(110,196)"/>
<path d="M0 0 C0.66 0.33 1.32 0.66 2 1 C-2.62 5.62 -7.24 10.24 -12 15 C-12 10.09687565 -8.29800369 7.38658643 -5 4 C-3.37458956 2.61667196 -1.72614587 1.25537882 0 0 Z " fill="#D3DEE8" transform="translate(84,172)"/>
</svg>
