<?xml version="1.0" standalone="no"?>
<!DOCTYPE svg PUBLIC "-//W3C//DTD SVG 20010904//EN"
 "http://www.w3.org/TR/2001/REC-SVG-20010904/DTD/svg10.dtd">
<svg version="1.0" xmlns="http://www.w3.org/2000/svg"
 width="92.000000pt" height="92.000000pt" viewBox="0 0 92.000000 92.000000"
 preserveAspectRatio="xMidYMid meet">

<g transform="translate(0.000000,92.000000) scale(0.100000,-0.100000)"
fill="#000000" stroke="none">
<path d="M0 460 l0 -360 315 0 315 0 0 360 0 360 -315 0 -315 0 0 -360z m560
-2 l0 -301 -182 6 c-99 4 -210 7 -245 7 l-63 0 0 288 c0 159 3 292 7 295 3 4
114 7 245 7 l238 0 0 -302z"/>
<path d="M232 549 c-83 -17 -125 -124 -89 -229 25 -72 125 -103 195 -60 38 24
40 33 8 53 -21 14 -26 14 -36 2 -17 -20 -63 -19 -83 3 -33 36 -34 124 -1 157
19 18 57 20 84 3 17 -11 23 -9 40 8 21 20 21 20 1 38 -25 23 -77 34 -119 25z"/>
<path d="M690 130 l0 -30 115 0 115 0 0 30 0 30 -115 0 -115 0 0 -30z"/>
</g>
</svg>
