<?xml version="1.0" standalone="no"?>
<!DOCTYPE svg PUBLIC "-//W3C//DTD SVG 20010904//EN"
 "http://www.w3.org/TR/2001/REC-SVG-20010904/DTD/svg10.dtd">
<svg version="1.0" xmlns="http://www.w3.org/2000/svg"
 width="512.000000pt" height="512.000000pt" viewBox="0 0 512.000000 512.000000"
 preserveAspectRatio="xMidYMid meet">

<g transform="translate(0.000000,512.000000) scale(0.100000,-0.100000)"
fill="#000000" stroke="none">
<path d="M2347 5110 c-788 -71 -1482 -482 -1917 -1137 -225 -339 -352 -681
-411 -1113 -22 -154 -16 -496 10 -669 111 -730 508 -1355 1118 -1761 339 -225
681 -352 1113 -411 154 -22 496 -16 669 10 730 111 1355 508 1761 1118 225
339 352 681 411 1113 22 154 16 496 -10 669 -111 730 -508 1355 -1118 1761
-330 219 -669 347 -1073 405 -131 19 -423 27 -553 15z m657 -980 c234 -50 466
-150 646 -278 157 -112 426 -398 400 -426 -5 -5 -159 -96 -342 -202 l-333
-193 -29 37 c-296 371 -829 434 -1198 142 -97 -78 -176 -176 -233 -293 -67
-137 -80 -197 -79 -362 0 -131 2 -146 33 -235 104 -307 357 -523 675 -579 191
-34 427 16 596 128 71 47 175 146 231 221 l26 34 284 -169 c156 -93 308 -182
337 -199 28 -17 52 -33 52 -37 0 -3 -33 -51 -74 -105 -238 -317 -592 -539
-994 -624 -129 -28 -385 -37 -529 -20 -351 40 -676 193 -932 436 -306 291
-482 675 -498 1085 -7 180 5 300 47 465 158 628 703 1103 1370 1194 115 16
432 4 544 -20z"/>
</g>
</svg>
