<?xml version="1.0" standalone="no"?>
<!DOCTYPE svg PUBLIC "-//W3C//DTD SVG 20010904//EN"
 "http://www.w3.org/TR/2001/REC-SVG-20010904/DTD/svg10.dtd">
<svg version="1.0" xmlns="http://www.w3.org/2000/svg"
 width="300.000000pt" height="168.000000pt" viewBox="0 0 300.000000 168.000000"
 preserveAspectRatio="xMidYMid meet">

<g transform="translate(0.000000,168.000000) scale(0.100000,-0.100000)"
fill="#000000" stroke="none">
<path d="M280 1678 c0 -2 -63 -298 -139 -658 l-138 -655 709 -3 c389 -1 708
-5 708 -10 -1 -4 -18 -83 -39 -177 l-37 -170 674 -3 c372 -1 677 -1 679 1 2 2
70 316 151 698 l149 694 -539 3 c-346 1 -538 6 -538 12 0 5 11 63 25 127 14
65 25 124 25 131 0 9 -176 12 -845 12 -465 0 -845 -1 -845 -2z m1470 -195 c0
-16 -185 -889 -196 -925 -4 -14 -17 -18 -59 -18 l-53 0 9 38 c13 56 12 57 -28
22 -104 -92 -248 -100 -345 -20 -172 143 -95 525 126 626 113 52 219 41 290
-30 22 -22 46 -50 51 -60 11 -19 15 -1 86 332 l11 52 54 0 c44 0 54 -3 54 -17z
m-1011 -259 c113 -33 181 -137 181 -274 0 -109 24 -100 -262 -100 l-251 0 7
-52 c9 -69 46 -131 90 -152 73 -34 193 -14 235 40 16 21 28 24 80 24 l61 0
-19 -39 c-74 -143 -307 -194 -448 -97 -35 24 -57 50 -80 95 -30 57 -33 71 -33
150 0 211 99 362 269 407 63 17 108 17 170 -2z m1416 -171 c38 -90 73 -163 77
-163 4 0 67 74 140 164 l133 165 129 0 128 1 -60 -67 c-186 -211 -375 -430
-379 -440 -2 -6 48 -125 111 -264 64 -139 116 -256 116 -261 0 -4 -55 -8 -122
-8 l-123 0 -80 176 c-44 96 -83 178 -87 180 -9 6 -17 -3 -179 -195 l-134 -160
-122 0 c-68 -1 -123 1 -123 3 0 3 104 127 231 276 216 255 230 273 221 298 -6
15 -51 119 -102 232 -50 113 -94 211 -97 218 -4 10 22 12 123 10 l128 -3 71
-162z"/>
<path d="M1293 1131 c-114 -29 -204 -185 -190 -331 10 -111 68 -170 165 -170
139 0 237 114 249 290 5 67 3 84 -16 124 -13 26 -37 54 -55 66 -39 23 -107 33
-153 21z"/>
<path d="M577 1126 c-59 -22 -102 -67 -132 -140 l-15 -36 185 0 185 0 0 35 c0
114 -110 183 -223 141z"/>
</g>
</svg>
