<svg version="1.1" id="Layer_1" xmlns="http://www.w3.org/2000/svg" xmlns:xlink="http://www.w3.org/1999/xlink" x="0px" y="0px"
	 width="100%" viewBox="0 0 152 152" enable-background="new 0 0 152 152" xml:space="preserve">
<path fill="#FEFEFE" opacity="1.000000" stroke="none" 
	d="
M105.000000,153.000000 
	C70.000008,153.000000 35.500008,153.000000 1.000009,153.000000 
	C1.000006,102.333344 1.000006,51.666687 1.000003,1.000023 
	C51.666653,1.000015 102.333305,1.000015 152.999969,1.000008 
	C152.999969,51.666645 152.999969,102.333290 152.999985,152.999969 
	C137.166672,153.000000 121.333336,153.000000 105.000000,153.000000 
M92.473907,101.954865 
	C84.437614,106.219948 76.144714,107.258003 67.428802,104.169731 
	C58.796497,101.111076 53.727119,94.563217 49.847347,85.921082 
	C49.881596,79.706047 49.915844,73.491020 50.444378,66.761040 
	C59.085552,47.646019 75.222221,43.322254 95.533913,54.571381 
	C99.951469,50.264965 104.338806,45.988007 109.724678,40.737637 
	C103.776360,37.525768 98.579918,33.903576 92.832031,31.760149 
	C70.165710,23.307705 42.569061,34.915733 33.688686,56.445805 
	C27.296534,70.414169 26.818079,84.302452 34.308434,98.751678 
	C48.634953,126.499458 85.844559,133.993500 108.785942,113.435654 
	C120.607635,102.020897 123.941757,87.747276 122.803787,71.946327 
	C122.582672,68.876045 121.166634,67.849686 118.020386,67.906441 
	C107.214111,68.101349 96.402222,67.984810 85.592468,67.986732 
	C82.834442,67.987221 80.076424,67.986801 77.378525,67.986801 
	C77.378525,74.590897 77.378525,80.460945 77.378525,86.893585 
	C85.975891,86.893585 94.174294,86.893585 102.616501,86.893585 
	C101.548248,93.653702 97.766914,97.914314 92.473907,101.954865 
z"/>
<path fill="#E64739" opacity="1.000000" stroke="none" 
	d="
M34.253311,55.989876 
	C42.569061,34.915733 70.165710,23.307705 92.832031,31.760149 
	C98.579918,33.903576 103.776360,37.525768 109.724678,40.737637 
	C104.338806,45.988007 99.951469,50.264965 95.533913,54.571381 
	C75.222221,43.322254 59.085552,47.646019 49.899734,66.837082 
	C44.321163,63.272045 39.287239,59.630962 34.253311,55.989876 
z"/>
<path fill="#3AA857" opacity="1.000000" stroke="none" 
	d="
M108.241150,113.641769 
	C85.844559,133.993500 48.634953,126.499458 34.558350,98.236130 
	C39.844505,94.050850 44.880749,90.381119 49.916988,86.711388 
	C53.727119,94.563217 58.796497,101.111076 67.428802,104.169731 
	C76.144714,107.258003 84.437614,106.219948 93.142624,101.958931 
	C98.621284,105.855919 103.431213,109.748848 108.241150,113.641769 
z"/>
<path fill="#4787EF" opacity="1.000000" stroke="none" 
	d="
M108.513550,113.538712 
	C103.431213,109.748848 98.621284,105.855919 93.507874,101.817596 
	C97.766914,97.914314 101.548248,93.653702 102.616501,86.893585 
	C94.174294,86.893585 85.975891,86.893585 77.378525,86.893585 
	C77.378525,80.460945 77.378525,74.590897 77.378525,67.986801 
	C80.076424,67.986801 82.834442,67.987221 85.592468,67.986732 
	C96.402222,67.984810 107.214111,68.101349 118.020386,67.906441 
	C121.166634,67.849686 122.582672,68.876045 122.803787,71.946327 
	C123.941757,87.747276 120.607635,102.020897 108.513550,113.538712 
z"/>
<path fill="#F7BC11" opacity="1.000000" stroke="none" 
	d="
M49.882168,86.316238 
	C44.880749,90.381119 39.844505,94.050850 34.530365,97.902084 
	C26.818079,84.302452 27.296534,70.414169 33.971001,56.217842 
	C39.287239,59.630962 44.321163,63.272045 49.652596,67.094559 
	C49.915844,73.491020 49.881596,79.706047 49.882168,86.316238 
z"/>
</svg>