<svg version="1.1" id="Layer_1" xmlns="http://www.w3.org/2000/svg" xmlns:xlink="http://www.w3.org/1999/xlink" x="0px" y="0px"
	 width="100%" viewBox="0 0 72 72" enable-background="new 0 0 72 72" xml:space="preserve">
<path fill="#FBFEFE" opacity="1.000000" stroke="none" 
	d="
M44.000000,73.000000 
	C29.333334,73.000000 15.166667,73.000000 1.000000,73.000000 
	C1.000000,49.000000 1.000000,25.000000 1.000000,1.000000 
	C25.000000,1.000000 49.000000,1.000000 73.000000,1.000000 
	C73.000000,25.000000 73.000000,49.000000 73.000000,73.000000 
	C63.500000,73.000000 54.000000,73.000000 44.000000,73.000000 
M38.107098,8.281485 
	C37.290775,8.315713 36.316807,8.069847 35.682247,8.427007 
	C28.438751,12.503978 21.170134,16.549242 14.115049,20.935631 
	C12.901203,21.690323 12.102284,23.984455 12.055652,25.594805 
	C11.843762,32.911915 11.776248,40.247684 12.112015,47.555832 
	C12.194407,49.349148 13.564099,51.729473 15.074296,52.697865 
	C21.226936,56.643158 27.574980,60.316135 34.060162,63.687107 
	C35.634720,64.505562 38.366657,64.483810 39.947887,63.660492 
	C46.431175,60.284767 52.801826,56.643723 58.921146,52.651531 
	C60.501320,51.620640 61.781673,48.996418 61.882675,47.036240 
	C62.241920,40.063965 62.284256,33.048023 61.885265,26.080759 
	C61.766251,24.002455 60.311253,21.253260 58.603268,20.146458 
	C52.193714,15.992969 45.426517,12.391394 38.107098,8.281485 
z"/>
<path fill="#21BC96" opacity="1.000000" stroke="none" 
	d="
M38.450226,8.432233 
	C45.426517,12.391394 52.193714,15.992969 58.603268,20.146458 
	C60.311253,21.253260 61.766251,24.002455 61.885265,26.080759 
	C62.284256,33.048023 62.241920,40.063965 61.882675,47.036240 
	C61.781673,48.996418 60.501320,51.620640 58.921146,52.651531 
	C52.801826,56.643723 46.431175,60.284767 39.947887,63.660492 
	C38.366657,64.483810 35.634720,64.505562 34.060162,63.687107 
	C27.574980,60.316135 21.226936,56.643158 15.074296,52.697865 
	C13.564099,51.729473 12.194407,49.349148 12.112015,47.555832 
	C11.776248,40.247684 11.843762,32.911915 12.055652,25.594805 
	C12.102284,23.984455 12.901203,21.690323 14.115049,20.935631 
	C21.170134,16.549242 28.438751,12.503978 35.682247,8.427007 
	C36.316807,8.069847 37.290775,8.315713 38.450226,8.432233 
M25.080137,48.551086 
	C25.390583,48.689262 25.701029,48.827438 26.007086,49.005730 
	C26.007086,49.005730 26.037415,48.978825 26.349121,49.482826 
	C26.886600,49.690266 27.424082,49.897701 27.950661,50.043198 
	C27.950661,50.043198 27.904587,50.087563 28.366350,50.655445 
	C35.439613,54.125740 42.324623,53.586609 48.499229,48.865616 
	C54.077415,44.600643 56.836147,38.811852 55.758148,31.081633 
	C45.309902,32.179333 39.810326,38.331844 37.167969,48.159374 
	C35.906292,45.555241 34.997135,43.678715 34.022709,41.355713 
	C34.022709,41.355713 33.760220,40.988708 33.767624,40.507080 
	C33.640667,40.174320 33.401432,39.979221 33.006016,39.994427 
	C33.006016,39.994427 33.076214,39.946709 32.984215,39.333702 
	C32.296841,38.610016 31.609463,37.886333 30.936029,37.063801 
	C30.936029,37.063801 30.837149,37.077518 30.643173,36.488346 
	C29.799721,35.939198 28.956270,35.390049 28.045786,34.927975 
	C28.045786,34.927975 28.152428,34.901459 27.951574,34.418800 
	C27.636095,34.303467 27.320616,34.188133 26.785408,33.832363 
	C26.785408,33.832363 26.460518,33.809254 25.978012,33.223778 
	C23.563120,32.430859 21.148228,31.637941 17.013937,30.280466 
	C18.223249,34.964855 19.043407,38.141811 19.898027,41.705406 
	C19.898027,41.705406 20.141678,42.007591 20.155441,42.540947 
	C20.402946,42.782284 20.650450,43.023621 20.969440,43.684006 
	C20.969440,43.684006 21.239143,44.012592 21.269159,44.474850 
	C21.422138,44.779488 21.668488,44.946102 21.996672,45.000084 
	C21.996672,45.000084 22.023586,44.993500 22.135935,45.505997 
	C22.411863,45.706329 22.687790,45.906666 23.083822,46.561459 
	C23.252054,46.859802 23.506763,47.023994 24.051748,47.553154 
	C24.354801,47.729362 24.657854,47.905567 24.990011,48.011280 
	C24.990011,48.011280 24.920372,48.042377 25.080137,48.551086 
M33.072178,31.427364 
	C38.113602,33.944820 42.770218,32.393345 42.821114,27.741810 
	C42.845043,25.554911 41.254757,22.464905 39.447853,21.413460 
	C37.901779,20.513790 34.444637,21.225798 32.825325,22.493177 
	C29.972591,24.725920 30.188522,27.985277 33.072178,31.427364 
z"/>
<path fill="#E5FCF9" opacity="1.000000" stroke="none" 
	d="
M34.087975,41.802189 
	C34.997135,43.678715 35.906292,45.555241 37.167969,48.159374 
	C39.810326,38.331844 45.309902,32.179333 55.758148,31.081633 
	C56.836147,38.811852 54.077415,44.600643 48.499229,48.865616 
	C42.324623,53.586609 35.439613,54.125740 28.571386,50.336853 
	C30.681108,50.018261 32.585796,50.018261 34.087975,50.018261 
	C34.087975,46.722050 34.087975,44.262119 34.087975,41.802189 
z"/>
<path fill="#FCFEFE" opacity="1.000000" stroke="none" 
	d="
M34.055344,41.578949 
	C34.087975,44.262119 34.087975,46.722050 34.087975,50.018261 
	C32.585796,50.018261 30.681108,50.018261 28.340504,50.052910 
	C27.904587,50.087563 27.950661,50.043198 27.820738,49.803520 
	C27.139683,49.368835 26.588549,49.173828 26.037415,48.978821 
	C26.037415,48.978825 26.007086,49.005730 25.892044,48.764351 
	C25.491461,48.362774 25.205915,48.202576 24.920372,48.042377 
	C24.920372,48.042377 24.990011,48.011280 24.875402,47.795307 
	C24.456512,47.404236 24.152231,47.229134 23.847950,47.054031 
	C23.506763,47.023994 23.252054,46.859802 22.949667,46.088131 
	C22.551537,45.407703 22.287561,45.200600 22.023586,44.993500 
	C22.023586,44.993500 21.996672,45.000084 21.935692,44.783638 
	C21.729731,44.305695 21.517874,44.120827 21.239143,44.012592 
	C21.239143,44.012592 20.969440,43.684006 20.902185,43.216221 
	C20.603846,42.501488 20.372763,42.254539 20.141678,42.007591 
	C20.141678,42.007591 19.898027,41.705406 19.926702,41.044643 
	C18.996283,35.097916 21.476780,33.215195 26.460518,33.809254 
	C26.460518,33.809254 26.785408,33.832363 27.019039,34.171143 
	C27.552589,34.640434 27.852509,34.770947 28.152428,34.901459 
	C28.152428,34.901459 28.045786,34.927975 28.082148,35.233925 
	C29.024721,36.052425 29.930935,36.564972 30.837149,37.077518 
	C30.837149,37.077518 30.936029,37.063801 30.948917,37.458427 
	C31.666609,38.550938 32.371410,39.248825 33.076214,39.946709 
	C33.076214,39.946709 33.006016,39.994427 33.069973,40.179886 
	C33.260040,40.656178 33.468803,40.863964 33.760220,40.988708 
	C33.760220,40.988708 34.022709,41.355713 34.055344,41.578949 
z"/>
<path fill="#E9FCFA" opacity="1.000000" stroke="none" 
	d="
M32.776627,31.164482 
	C30.188522,27.985277 29.972591,24.725920 32.825325,22.493177 
	C34.444637,21.225798 37.901779,20.513790 39.447853,21.413460 
	C41.254757,22.464905 42.845043,25.554911 42.821114,27.741810 
	C42.770218,32.393345 38.113602,33.944820 32.776627,31.164482 
z"/>
<path fill="#E5FCF9" opacity="1.000000" stroke="none" 
	d="
M26.219265,33.516518 
	C21.476780,33.215195 18.996283,35.097916 19.909472,40.851326 
	C19.043407,38.141811 18.223249,34.964855 17.013937,30.280466 
	C21.148228,31.637941 23.563120,32.430859 26.219265,33.516518 
z"/>
<path fill="#E5FCF9" opacity="1.000000" stroke="none" 
	d="
M30.740162,36.782932 
	C29.930935,36.564972 29.024721,36.052425 28.115664,35.190392 
	C28.956270,35.390049 29.799721,35.939198 30.740162,36.782932 
z"/>
<path fill="#E5FCF9" opacity="1.000000" stroke="none" 
	d="
M33.030212,39.640205 
	C32.371410,39.248825 31.666609,38.550938 30.941946,37.507851 
	C31.609463,37.886333 32.296841,38.610016 33.030212,39.640205 
z"/>
<path fill="#E5FCF9" opacity="1.000000" stroke="none" 
	d="
M26.193268,49.230824 
	C26.588549,49.173828 27.139683,49.368835 27.826189,49.834488 
	C27.424082,49.897701 26.886600,49.690266 26.193268,49.230824 
z"/>
<path fill="#E5FCF9" opacity="1.000000" stroke="none" 
	d="
M28.052002,34.660130 
	C27.852509,34.770947 27.552589,34.640434 27.128904,34.291359 
	C27.320616,34.188133 27.636095,34.303467 28.052002,34.660130 
z"/>
<path fill="#E5FCF9" opacity="1.000000" stroke="none" 
	d="
M33.763924,40.747894 
	C33.468803,40.863964 33.260040,40.656178 33.091927,40.143566 
	C33.401432,39.979221 33.640667,40.174320 33.763924,40.747894 
z"/>
<path fill="#E5FCF9" opacity="1.000000" stroke="none" 
	d="
M20.148560,42.274269 
	C20.372763,42.254539 20.603846,42.501488 20.866444,43.006699 
	C20.650450,43.023621 20.402946,42.782284 20.148560,42.274269 
z"/>
<path fill="#E5FCF9" opacity="1.000000" stroke="none" 
	d="
M21.254150,44.243721 
	C21.517874,44.120827 21.729731,44.305695 21.941460,44.770943 
	C21.668488,44.946102 21.422138,44.779488 21.254150,44.243721 
z"/>
<path fill="#E5FCF9" opacity="1.000000" stroke="none" 
	d="
M22.079762,45.249748 
	C22.287561,45.200600 22.551537,45.407703 22.889614,45.860901 
	C22.687790,45.906666 22.411863,45.706329 22.079762,45.249748 
z"/>
<path fill="#E5FCF9" opacity="1.000000" stroke="none" 
	d="
M23.949848,47.303593 
	C24.152231,47.229134 24.456512,47.404236 24.860851,47.830555 
	C24.657854,47.905567 24.354801,47.729362 23.949848,47.303593 
z"/>
<path fill="#E5FCF9" opacity="1.000000" stroke="none" 
	d="
M25.000256,48.296730 
	C25.205915,48.202576 25.491461,48.362774 25.894239,48.744293 
	C25.701029,48.827438 25.390583,48.689262 25.000256,48.296730 
z"/>
</svg>