<svg version="1.1" id="Layer_1" xmlns="http://www.w3.org/2000/svg" xmlns:xlink="http://www.w3.org/1999/xlink" x="0px" y="0px"
	 width="100%" viewBox="0 0 180 180" enable-background="new 0 0 180 180" xml:space="preserve">
<path fill="#4255FF" opacity="1.000000" stroke="none" 
	d="
M1.000000,157.000000 
	C1.000000,113.312439 1.000000,69.624878 1.255471,25.809111 
	C2.016547,25.068981 2.704866,24.534103 3.000277,23.833544 
	C7.249710,13.756097 13.922415,6.203995 24.618315,2.713722 
	C24.901768,2.621226 24.879629,1.592254 25.000000,1.000000 
	C68.687561,1.000000 112.375122,1.000000 156.190826,1.255414 
	C156.930817,2.016497 157.465622,2.704963 158.166153,3.000343 
	C168.243912,7.249626 175.795853,13.922635 179.286301,24.618555 
	C179.378769,24.901939 180.407745,24.879711 181.000000,25.000000 
	C181.000000,68.687561 181.000000,112.375122 180.744598,156.190796 
	C179.983490,156.930740 179.294952,157.465485 178.999557,158.166000 
	C174.750076,168.243469 168.077377,175.795685 157.381577,179.286301 
	C157.098160,179.378799 157.120346,180.407745 157.000000,181.000000 
	C113.312439,181.000000 69.624878,181.000000 25.809113,180.744537 
	C25.068991,179.983444 24.534111,179.295166 23.833555,178.999725 
	C13.756326,174.749969 6.204049,168.077332 2.713692,157.381439 
	C2.621214,157.098053 1.592245,157.120285 1.000000,157.000000 
M80.564240,30.959000 
	C52.351147,36.577797 31.961582,59.914280 31.025797,87.657257 
	C29.484184,133.361069 74.487289,163.674133 116.513428,145.358612 
	C118.249611,144.601974 120.786263,145.079727 122.777664,145.618866 
	C130.082565,147.596497 137.281998,149.964630 144.590134,151.929016 
	C147.526154,152.718201 148.798950,151.052094 148.730789,148.053513 
	C148.621094,143.228546 148.540573,138.391632 148.761688,133.574173 
	C148.919876,130.127975 148.240402,127.896881 144.278320,127.384178 
	C140.502350,126.895546 140.791595,125.016693 142.145020,121.751282 
	C145.360657,113.992912 149.014664,106.112549 150.353333,97.931602 
	C156.701370,59.137329 119.941307,23.663208 80.564240,30.959000 
z"/>
<path fill="#000000" opacity="1.000000" stroke="none" 
	d="
M24.531307,1.000000 
	C24.879629,1.592254 24.901768,2.621226 24.618315,2.713722 
	C13.922415,6.203995 7.249710,13.756097 3.000277,23.833544 
	C2.704866,24.534103 2.016547,25.068981 1.255471,25.340454 
	C1.000000,17.073662 1.000000,9.147325 1.000000,1.000000 
	C8.686132,1.000000 16.374374,1.000000 24.531307,1.000000 
z"/>
<path fill="#000000" opacity="1.000000" stroke="none" 
	d="
M181.000000,24.531309 
	C180.407745,24.879711 179.378769,24.901939 179.286301,24.618555 
	C175.795853,13.922635 168.243912,7.249626 158.166153,3.000343 
	C157.465622,2.704963 156.930817,2.016497 156.659485,1.255414 
	C164.926331,1.000000 172.852676,1.000000 181.000000,1.000000 
	C181.000000,8.686132 181.000000,16.374374 181.000000,24.531309 
z"/>
<path fill="#000000" opacity="1.000000" stroke="none" 
	d="
M1.000000,157.468689 
	C1.592245,157.120285 2.621214,157.098053 2.713692,157.381439 
	C6.204049,168.077332 13.756326,174.749969 23.833555,178.999725 
	C24.534111,179.295166 25.068991,179.983444 25.340454,180.744537 
	C17.073664,181.000000 9.147327,181.000000 1.000000,181.000000 
	C1.000000,173.313873 1.000000,165.625626 1.000000,157.468689 
z"/>
<path fill="#000000" opacity="1.000000" stroke="none" 
	d="
M157.468689,181.000000 
	C157.120346,180.407745 157.098160,179.378799 157.381577,179.286301 
	C168.077377,175.795685 174.750076,168.243469 178.999557,158.166000 
	C179.294952,157.465485 179.983490,156.930740 180.744598,156.659454 
	C181.000000,164.926331 181.000000,172.852676 181.000000,181.000000 
	C173.313873,181.000000 165.625626,181.000000 157.468689,181.000000 
z"/>
<path fill="#FDFDFF" opacity="1.000000" stroke="none" 
	d="
M80.997658,30.913380 
	C119.941307,23.663208 156.701370,59.137329 150.353333,97.931602 
	C149.014664,106.112549 145.360657,113.992912 142.145020,121.751282 
	C140.791595,125.016693 140.502350,126.895546 144.278320,127.384178 
	C148.240402,127.896881 148.919876,130.127975 148.761688,133.574173 
	C148.540573,138.391632 148.621094,143.228546 148.730789,148.053513 
	C148.798950,151.052094 147.526154,152.718201 144.590134,151.929016 
	C137.281998,149.964630 130.082565,147.596497 122.777664,145.618866 
	C120.786263,145.079727 118.249611,144.601974 116.513428,145.358612 
	C74.487289,163.674133 29.484184,133.361069 31.025797,87.657257 
	C31.961582,59.914280 52.351147,36.577797 80.997658,30.913380 
M57.001030,77.693047 
	C50.297279,97.380402 59.378719,117.493187 78.255020,124.764519 
	C96.316017,131.721802 116.974266,122.710663 124.540756,104.574646 
	C132.120361,86.407173 123.987495,65.455399 105.916031,57.116261 
	C87.609322,48.668571 65.244804,57.016644 57.001030,77.693047 
z"/>
<path fill="#4356FF" opacity="1.000000" stroke="none" 
	d="
M57.111767,77.315575 
	C65.244804,57.016644 87.609322,48.668571 105.916031,57.116261 
	C123.987495,65.455399 132.120361,86.407173 124.540756,104.574646 
	C116.974266,122.710663 96.316017,131.721802 78.255020,124.764519 
	C59.378719,117.493187 50.297279,97.380402 57.111767,77.315575 
z"/>
</svg>