<svg version="1.1" id="Layer_1" xmlns="http://www.w3.org/2000/svg" xmlns:xlink="http://www.w3.org/1999/xlink" x="0px" y="0px"
	 width="100%" viewBox="0 0 256 256" enable-background="new 0 0 256 256" xml:space="preserve">
<path fill="#F4B401" opacity="1.000000" stroke="none" 
	d="
M0.999999,236.000000 
	C1.000000,164.979111 1.000000,93.958206 1.337190,22.359699 
	C4.503016,13.847006 9.183619,7.499071 16.978720,3.768388 
	C18.699888,2.944648 20.328674,1.927882 22.000000,1.000000 
	C92.687561,1.000000 163.375122,1.000000 234.660126,1.340793 
	C240.346420,4.828093 246.009979,7.350384 250.332092,11.329670 
	C253.473465,14.221895 254.841370,19.040367 257.000000,22.999998 
	C257.000000,93.687561 257.000000,164.375122 256.662781,235.640259 
	C253.427414,240.749832 251.162109,245.916916 247.442047,249.624222 
	C244.131958,252.922943 239.210342,254.604630 235.000000,257.000000 
	C164.312439,257.000000 93.624878,257.000000 22.359955,256.662659 
	C13.854916,253.485046 7.497771,248.812653 3.766323,241.016327 
	C2.943322,239.296783 1.927197,237.669678 0.999999,236.000000 
M229.005829,124.500000 
	C229.005829,107.101982 229.005829,89.703957 229.005829,72.431046 
	C161.834213,72.431046 95.636421,72.431046 29.394133,72.431046 
	C29.394133,110.409164 29.394133,147.954849 29.394133,185.658234 
	C95.991295,185.658234 162.188721,185.658234 229.005829,185.658234 
	C229.005829,165.381760 229.005829,145.440887 229.005829,124.500000 
z"/>
<path fill="#0B0501" opacity="1.000000" stroke="none" 
	d="
M257.000000,22.531216 
	C254.841370,19.040367 253.473465,14.221895 250.332092,11.329670 
	C246.009979,7.350384 240.346420,4.828093 235.128784,1.340793 
	C242.259567,1.000000 249.519150,1.000000 257.000000,1.000000 
	C257.000000,8.019269 257.000000,15.040852 257.000000,22.531216 
z"/>
<path fill="#0A0401" opacity="1.000000" stroke="none" 
	d="
M235.468781,257.000000 
	C239.210342,254.604630 244.131958,252.922943 247.442047,249.624222 
	C251.162109,245.916916 253.427414,240.749832 256.662781,236.108917 
	C257.000000,242.927933 257.000000,249.855850 257.000000,257.000000 
	C249.980667,257.000000 242.959106,257.000000 235.468781,257.000000 
z"/>
<path fill="#0A0401" opacity="1.000000" stroke="none" 
	d="
M21.531088,1.000000 
	C20.328674,1.927882 18.699888,2.944648 16.978720,3.768388 
	C9.183619,7.499071 4.503016,13.847006 1.337190,21.891041 
	C1.000000,15.073850 1.000000,8.147699 1.000000,1.000000 
	C7.685770,1.000000 14.373973,1.000000 21.531088,1.000000 
z"/>
<path fill="#0B0501" opacity="1.000000" stroke="none" 
	d="
M0.999999,236.468918 
	C1.927197,237.669678 2.943322,239.296783 3.766323,241.016327 
	C7.497771,248.812653 13.854916,253.485046 21.891296,256.662659 
	C15.073852,257.000000 8.147703,257.000000 1.000000,257.000000 
	C1.000000,250.314240 1.000000,243.626038 0.999999,236.468918 
z"/>
<path fill="#FFFFFD" opacity="1.000000" stroke="none" 
	d="
M229.005829,125.000000 
	C229.005829,145.440887 229.005829,165.381760 229.005829,185.658234 
	C162.188721,185.658234 95.991295,185.658234 29.394133,185.658234 
	C29.394133,147.954849 29.394133,110.409164 29.394133,72.431046 
	C95.636421,72.431046 161.834213,72.431046 229.005829,72.431046 
	C229.005829,89.703957 229.005829,107.101982 229.005829,125.000000 
z"/>
</svg>