<?xml version="1.0" standalone="no"?>
<!DOCTYPE svg PUBLIC "-//W3C//DTD SVG 20010904//EN"
 "http://www.w3.org/TR/2001/REC-SVG-20010904/DTD/svg10.dtd">
<svg version="1.0" xmlns="http://www.w3.org/2000/svg"
 width="3840.000000pt" height="2160.000000pt" viewBox="0 0 3840.000000 2160.000000"
 preserveAspectRatio="xMidYMid meet">

<g transform="translate(0.000000,2160.000000) scale(0.100000,-0.100000)"
fill="#000000" stroke="none">
<path d="M18711 21379 c-1919 -87 -3774 -695 -5373 -1759 -604 -403 -1096
-807 -1623 -1335 -528 -527 -931 -1018 -1335 -1624 -1517 -2276 -2089 -5052
-1599 -7761 323 -1786 1114 -3479 2279 -4873 224 -269 378 -436 655 -712 276
-277 443 -431 712 -655 1635 -1366 3670 -2211 5788 -2404 362 -34 533 -40 985
-40 452 0 625 7 985 40 2113 194 4122 1025 5765 2384 484 400 1010 926 1410
1410 1374 1661 2208 3695 2390 5832 205 2413 -400 4783 -1730 6779 -404 606
-807 1097 -1335 1624 -527 528 -1018 931 -1624 1335 -1870 1246 -4093 1862
-6350 1759z m759 -1625 c146 -86 441 -260 655 -387 397 -234 848 -500 1190
-702 105 -62 379 -224 610 -360 231 -136 506 -298 610 -360 269 -159 1184
-698 1223 -721 l32 -18 0 -1359 0 -1359 -22 14 c-13 8 -149 89 -303 180 -154
91 -557 328 -895 528 -338 200 -887 524 -1220 720 -1492 880 -2000 1180 -2073
1224 -43 25 -81 46 -84 46 -2 0 -91 -51 -196 -114 -106 -62 -469 -277 -807
-476 -587 -346 -1316 -777 -1965 -1160 -1486 -878 -1609 -950 -1618 -950 -4 0
-7 609 -7 1353 l0 1352 238 140 c130 76 291 171 357 211 66 39 298 176 515
304 217 128 530 313 695 410 1026 606 2736 1615 2760 1628 11 6 25 12 30 12 6
0 130 -70 275 -156z m-2465 -10567 c1 -1662 4 -3076 8 -3143 27 -482 189 -940
456 -1289 120 -157 330 -349 509 -466 236 -154 568 -283 832 -324 25 -4 54 -9
65 -11 131 -25 518 -25 641 0 12 2 38 7 57 10 294 47 606 172 864 348 414 281
698 680 844 1183 53 184 94 438 99 625 2 52 3 1444 4 3093 l0 2997 1203 0
1203 0 -3 -3277 c-1 -1803 -5 -3289 -9 -3303 -3 -14 -9 -67 -13 -117 -3 -51
-8 -103 -10 -115 -2 -13 -6 -48 -9 -78 -4 -30 -8 -66 -11 -80 -42 -248 -62
-352 -96 -488 -235 -957 -745 -1693 -1551 -2239 -560 -379 -1200 -631 -1882
-738 -21 -4 -46 -8 -55 -10 -9 -1 -41 -6 -71 -10 -30 -4 -63 -9 -72 -10 -9 -2
-48 -7 -85 -10 -37 -4 -75 -9 -84 -10 -9 -2 -63 -6 -120 -10 -57 -4 -120 -8
-139 -10 -19 -2 -80 -4 -135 -6 -56 -1 -103 -7 -107 -13 -5 -7 -8 -5 -8 4 0
13 -1 13 -10 0 -7 -11 -10 -11 -10 -2 0 8 -5 10 -12 5 -18 -11 -42 -10 -50 2
-5 7 -8 7 -8 0 0 -11 -130 -12 -148 -1 -6 3 -14 1 -18 -5 -4 -8 -9 -7 -15 2
-7 12 -9 12 -9 0 0 -11 -3 -11 -15 -1 -12 10 -15 10 -15 -1 0 -9 -3 -10 -8 -4
-4 6 -20 10 -37 11 -59 2 -321 15 -350 18 -16 2 -64 7 -105 10 -72 7 -279 33
-318 41 -21 4 -68 11 -129 21 -21 3 -90 17 -153 31 -63 13 -126 27 -139 29
-141 28 -531 155 -721 235 -647 272 -1241 717 -1638 1228 -357 459 -593 991
-722 1624 -16 81 -32 169 -36 195 -3 26 -8 55 -10 66 -2 10 -6 44 -9 75 -3 31
-8 65 -10 76 -2 11 -7 58 -10 105 -4 47 -10 96 -13 110 -4 14 -8 1516 -9 3338
l-3 3312 1202 0 1203 0 0 -3023z"/>
</g>
</svg>
