<?xml version="1.0" standalone="no"?>
<!DOCTYPE svg PUBLIC "-//W3C//DTD SVG 20010904//EN"
 "http://www.w3.org/TR/2001/REC-SVG-20010904/DTD/svg10.dtd">
<svg version="1.0" xmlns="http://www.w3.org/2000/svg"
 width="256.000000pt" height="256.000000pt" viewBox="0 0 256.000000 256.000000"
 preserveAspectRatio="xMidYMid meet">

<g transform="translate(0.000000,256.000000) scale(0.100000,-0.100000)"
fill="#000000" stroke="none">
<path d="M60 2062 c0 -14 12 -22 53 -31 71 -16 109 -41 158 -103 25 -33 168
-316 378 -748 302 -623 339 -695 361 -698 23 -2 36 19 179 313 85 173 156 313
158 311 3 -2 67 -143 143 -313 121 -268 142 -308 162 -311 22 -3 42 39 322
692 241 560 308 706 343 751 48 61 87 90 146 106 27 7 37 15 37 29 0 19 -8 20
-245 20 -238 0 -245 -1 -245 -20 0 -13 9 -22 28 -26 78 -17 126 -48 136 -90 4
-14 -4 -50 -19 -90 -31 -81 -426 -996 -435 -1007 -6 -6 -250 497 -250 515 0 4
58 125 128 270 156 319 199 374 315 402 18 4 27 13 27 26 0 19 -7 20 -240 20
-233 0 -240 -1 -240 -20 0 -15 11 -22 45 -31 25 -6 60 -25 77 -40 49 -47 39
-92 -71 -314 -50 -102 -95 -185 -99 -185 -9 0 -127 251 -159 338 -46 125 -23
180 83 202 43 9 54 15 54 31 0 18 -10 19 -310 19 -299 0 -310 -1 -310 -19 0
-14 10 -21 33 -26 78 -17 163 -88 205 -172 36 -70 275 -608 275 -618 0 -20
-206 -406 -213 -398 -22 24 -493 933 -510 983 -42 125 -20 178 84 200 45 9 56
15 56 31 0 18 -11 19 -320 19 -304 0 -320 -1 -320 -18z"/>
</g>
</svg>
